<svg xmlns="http://www.w3.org/2000/svg" xmlns:xlink="http://www.w3.org/1999/xlink" viewBox="0 0 3445 1000"><defs><style>.cls-1{isolation:isolate;}.cls-2{fill:url(#linear-gradient);}.cls-3{fill:url(#linear-gradient-2);}.cls-4{fill:url(#linear-gradient-3);}.cls-5{fill:url(#linear-gradient-4);}.cls-6{fill:url(#linear-gradient-5);}.cls-7{fill:url(#linear-gradient-6);}.cls-8{fill:url(#linear-gradient-7);}.cls-9{fill:url(#linear-gradient-8);}.cls-10{fill:url(#linear-gradient-9);}.cls-11{fill:url(#linear-gradient-10);}.cls-12{fill:url(#linear-gradient-11);}.cls-13{fill:url(#linear-gradient-12);}.cls-14{fill:url(#linear-gradient-13);}.cls-15{fill:url(#linear-gradient-14);}.cls-16{fill:url(#linear-gradient-15);}.cls-17{fill:url(#linear-gradient-16);}.cls-18{fill:url(#linear-gradient-17);}.cls-19{fill:url(#linear-gradient-18);}.cls-20{fill:#fff;}.cls-21{fill:url(#linear-gradient-19);}.cls-22{fill:url(#linear-gradient-20);}.cls-23{fill:url(#linear-gradient-21);}.cls-24{mix-blend-mode:multiply;opacity:0.2;fill:url(#New_Gradient_Swatch_1);}.cls-25{fill:url(#linear-gradient-22);}.cls-26{fill:url(#linear-gradient-23);}.cls-27{fill:url(#linear-gradient-24);}.cls-28{fill:url(#linear-gradient-25);}.cls-29{fill:url(#linear-gradient-26);}.cls-30{font-size:146.06px;fill:#0c134f;font-family:Lato-Light, Lato;font-weight:300;}.cls-31{letter-spacing:-0.01em;}</style><linearGradient id="linear-gradient" x1="35.84" y1="745.45" x2="800.81" y2="745.45" gradientUnits="userSpaceOnUse"><stop offset="0" stop-color="#0c134f"/><stop offset="0.73" stop-color="#5c469c"/><stop offset="1" stop-color="#d4adfc"/></linearGradient><linearGradient id="linear-gradient-2" x1="827.09" y1="387.68" x2="957.15" y2="387.68" gradientUnits="userSpaceOnUse"><stop offset="0.83" stop-color="#d4adfc"/><stop offset="1" stop-color="#d4adfc"/></linearGradient><linearGradient id="linear-gradient-3" x1="478.82" y1="239.87" x2="511.72" y2="239.87" xlink:href="#linear-gradient"/><linearGradient id="linear-gradient-4" x1="233.45" y1="232.22" x2="289.83" y2="232.22" xlink:href="#linear-gradient"/><linearGradient id="linear-gradient-5" x1="381.76" y1="254.99" x2="416.93" y2="254.99" xlink:href="#linear-gradient"/><linearGradient id="linear-gradient-6" x1="792.26" y1="263.23" x2="859.93" y2="263.23" xlink:href="#linear-gradient-2"/><linearGradient id="linear-gradient-7" x1="411.41" y1="248.74" x2="448.58" y2="248.74" xlink:href="#linear-gradient"/><linearGradient id="linear-gradient-8" x1="443.37" y1="243.38" x2="480.16" y2="243.38" xlink:href="#linear-gradient"/><linearGradient id="linear-gradient-9" x1="625.08" y1="274.8" x2="677.43" y2="274.8" xlink:href="#linear-gradient"/><linearGradient id="linear-gradient-10" x1="550.46" y1="238.66" x2="585.37" y2="238.66" xlink:href="#linear-gradient"/><linearGradient id="linear-gradient-11" x1="345.87" y1="262.4" x2="387.49" y2="262.4" xlink:href="#linear-gradient"/><linearGradient id="linear-gradient-12" x1="110.74" y1="235.17" x2="829.81" y2="235.17" xlink:href="#linear-gradient"/><linearGradient id="linear-gradient-13" x1="823.37" y1="432.14" x2="861.32" y2="432.14" xlink:href="#linear-gradient-2"/><linearGradient id="linear-gradient-14" x1="586.01" y1="248.21" x2="627.91" y2="248.21" xlink:href="#linear-gradient"/><linearGradient id="linear-gradient-15" x1="512.91" y1="237.86" x2="548.09" y2="237.86" xlink:href="#linear-gradient"/><linearGradient id="linear-gradient-16" x1="254.5" y1="228.37" x2="273.69" y2="228.37" xlink:href="#linear-gradient"/><linearGradient id="linear-gradient-17" x1="232.89" y1="311.95" x2="298.74" y2="311.95" xlink:href="#linear-gradient"/><linearGradient id="linear-gradient-18" x1="388.76" y1="752.32" x2="600.15" y2="185.72" gradientUnits="userSpaceOnUse"><stop offset="0" stop-color="#5c469c"/><stop offset="1" stop-color="#d4adfc"/></linearGradient><linearGradient id="linear-gradient-19" x1="593.27" y1="285.74" x2="120.51" y2="274.93" gradientUnits="userSpaceOnUse"><stop offset="0" stop-color="#1d267d"/><stop offset="1" stop-color="#fcd4ad"/></linearGradient><linearGradient id="linear-gradient-20" x1="408.05" y1="342.45" x2="370.45" y2="947.97" xlink:href="#linear-gradient-19"/><linearGradient id="linear-gradient-21" x1="150.72" y1="628.66" x2="515.83" y2="628.66" gradientTransform="translate(38.88)" xlink:href="#linear-gradient-18"/><linearGradient id="New_Gradient_Swatch_1" x1="189.88" y1="657.08" x2="554.71" y2="657.08" gradientUnits="userSpaceOnUse"><stop offset="0" stop-color="#ea5634"/><stop offset="1" stop-color="#dd1db9"/></linearGradient><linearGradient id="linear-gradient-22" x1="189.61" y1="277.49" x2="292.82" y2="277.49" xlink:href="#linear-gradient-18"/><linearGradient id="linear-gradient-23" x1="84.66" y1="513.85" x2="821.86" y2="513.85" xlink:href="#linear-gradient"/><linearGradient id="linear-gradient-24" x1="560.38" y1="415.13" x2="561.92" y2="415.13" gradientUnits="userSpaceOnUse"><stop offset="0" stop-color="#811993"/><stop offset="1" stop-color="#cc1da2"/></linearGradient><linearGradient id="linear-gradient-25" x1="783.19" y1="504.76" x2="828.11" y2="504.76" xlink:href="#linear-gradient-2"/><linearGradient id="linear-gradient-26" x1="957.58" y1="409.82" x2="3314" y2="409.82" gradientUnits="userSpaceOnUse"><stop offset="0" stop-color="#0c134f"/><stop offset="0.75" stop-color="#5c469c"/><stop offset="1" stop-color="#9b7ccf"/></linearGradient></defs><g class="cls-1"><g id="Layer_1" data-name="Layer 1"><path class="cls-2" d="M81.32,535.47c-39.07,56.77-29.59,151.68,29.92,213.91,28-26.67,59.83-6.09,55.07-7.67h0l-1-.28c-9.46-2.68-18-2.63-26.36.66-6.73,2.65-13.38,7.38-20.36,14.43l0,.05h0c-.62.77-1.25,1.57-1.85,2.41-12.27,16.94,20.23,19.41,28.58,42.28S164.71,838,156.65,844.7,126.55,863.48,118.5,857s-7.07-18.38-9.77-24.92-9.34-8.79-11.27-14.41,1.44-11.14-6.18-14-23-4.63-29.11,5.44c-.28,3.39,12.2-1,13.81,2.17s-1.08,6.9,2.55,10.45,21,5.66,13.81,14.62S77.94,838,70,833.54s-30.48-1.84-34.16,21.78c-.24,4.8,11.58-10.26,15.48-7.89s3.55,6.61,8.38,6,8.42-4.34,15.06-1.36,9.9,4.07,5.14,8.3S65,867.63,58.62,865.16,41.79,886.53,52.44,899c3.8.33,4-13.82,5.91-14.85s4.93,4.33,8.73,1.75,11.11-16.83,19-13.78a79,79,0,0,1,21.45,13c4.93,4.33,18.43-8.36,25.93-8.26s34.57-11.48,43.17-10.26,17.55-3.12,19.54-13-2.8-7.92-7.83-17.21c-4.46-8.23-14.09-31.47-12.74-42.91,1.23.52,2.45,1,3.69,1.53,117.39,46.71,332-50.49,332-50.49s72-28.42,137-14c.29-.16.57-.33.85-.47a6.69,6.69,0,0,0,2.61-3.4,6.57,6.57,0,0,0-.9-4.29,14.51,14.51,0,0,0-1.62-2c-.7-.53-1.33-1.19-2.07-1.74a32,32,0,0,0-4.92-2.87l-2.7-1.25-2.83-1.09c1-.08,2-.12,3.08-.12a29,29,0,0,1,3.06.37,21.86,21.86,0,0,1,6,1.91,16,16,0,0,1,2.74,1.74,24.56,24.56,0,0,1,2.35,2.52,10.28,10.28,0,0,1,1.64,7.26l3.74-.12a32.55,32.55,0,0,0,5.41-.3c.88-.15,1.74-.43,2.61-.58s1.63-.64,2.44-.94a6.91,6.91,0,0,0,3.13-3.06,6.09,6.09,0,0,0-.48-4.36,25.18,25.18,0,0,0-1.49-2.21c-.66-.64-1.24-1.39-1.95-2.05a31.32,31.32,0,0,0-4.8-3.6l-5.54-2.95a36.33,36.33,0,0,1,6.41.94,24.14,24.14,0,0,1,6,2.81,28.09,28.09,0,0,1,2.67,2.11,16.36,16.36,0,0,1,2.21,2.79,10.17,10.17,0,0,1,.72,8,11,11,0,0,1-5.75,5.41c-1.05.25-2.14.64-3.2.84a23.36,23.36,0,0,1-3.07.25,17.93,17.93,0,0,1-5.66-1,26.06,26.06,0,0,1-3.58-1.23,10.52,10.52,0,0,1-2.27,3.79c34.69,8.87,66.83,30.56,84.19,76.11,1.19,3.12,2.24,6.15,3.23,9.15.23.14.46.27.67.42a6.91,6.91,0,0,0,4.17.82,6.73,6.73,0,0,0,3.5-2.63,20.5,20.5,0,0,0,1.09-2.26c.19-.84.51-1.67.7-2.56a24.65,24.65,0,0,0,.48-5.53c0-.33,0-.68-.07-1a20.65,20.65,0,0,1-2.22-1.71,23.36,23.36,0,0,1-2.05-2.34,27.2,27.2,0,0,1-2.93-5.09,45,45,0,0,1-1.7-5.48c1.37,1.4,2.38,3,3.61,4.4a47.53,47.53,0,0,0,3.79,4.09c.65.62,1.39,1.14,2,1.77s1.49.92,2.22,1.39a6.74,6.74,0,0,0,4.38.62,6.08,6.08,0,0,0,3.08-3.14,24.91,24.91,0,0,0,.84-2.61c.1-1,.33-1.91.43-2.92a28.33,28.33,0,0,0-.4-6.12c-.35-2.08-.64-4.28-1.16-6.42a28.21,28.21,0,0,1,3.26,5.84A19.76,19.76,0,0,1,766,793a29.86,29.86,0,0,1,0,3.54,26.27,26.27,0,0,1-.76,3.56,9.73,9.73,0,0,1-5.8,5.65,9.86,9.86,0,0,1-6-.49,19.76,19.76,0,0,1,.69,5.5,24,24,0,0,1-.36,3.14v0c.7,1.29,1.26,2.61,1.95,3.87a40.64,40.64,0,0,0,3,4.86c.52.76,1.14,1.43,1.65,2.18s1.29,1.23,1.91,1.85a6.64,6.64,0,0,0,4.18,1.48,6,6,0,0,0,3.63-2.51,27.09,27.09,0,0,0,1.33-2.45c.28-.93.7-1.83,1-2.81a31.86,31.86,0,0,0,.78-6.19c.07-2.13.21-4.38.09-6.61a27.35,27.35,0,0,1,2.09,6.47,21.06,21.06,0,0,1,.44,6.92,31.07,31.07,0,0,1-.71,3.53,27.72,27.72,0,0,1-1.43,3.39,9.67,9.67,0,0,1-6.76,4.49c-3.16.15-5.55-1.34-7.5-2.85A32.86,32.86,0,0,1,757,827a24.67,24.67,0,0,1-1.56-2.77,27.21,27.21,0,0,1-1.91-5.69,22.49,22.49,0,0,1-.41-3.06c-.23.54-.48,1.09-.72,1.62a10.22,10.22,0,0,1-6.37,4.65,10.62,10.62,0,0,1-4.09-.17c36.29,119.93-89.89,136.76-173.86,114.86-55.51-14.48-94.08-20.24-116.07-19.9a27.67,27.67,0,0,0-3.23-9.45c-4.69-7.78-14.09-11-22.31-14.9-11.95-5.67-23.73-15.87-23.79-29.1a34.57,34.57,0,0,0-5.82,22.26c.23,2.68,1.07,5.71,3.51,6.83,2.27,1.05,5.42.16,7,2,1.39,1.6.56,4.27-1.15,5.51s-3.93,1.44-6,1.52c-4.75.2-9.9-.05-13.64-3-3.51-2.76-5-7.29-7.46-11-4.95-7.61-13.89-11.92-22.88-13.2s-18.13.12-27.05,1.8c-11,2.08-22.57,4.9-30.75,12.6,2.24.9,4.74-.09,7.05-.8A29.77,29.77,0,0,1,338,899.11c-5.07-5.82-13.68-7.18-21.35-6.25s-15,3.71-22.67,4.7a30.33,30.33,0,0,1-14.91-1.5C290,908.17,298.79,923,313.59,929.52c9.63,4.24,20.62,4.29,31,2.81s20.59-4.39,31-5.86c5.5-.78,11.57-1,16.11,2.19-7.19-3.54-15.79-.1-22.64,4.05-5.45,3.29-11,7.15-17.09,8.47,8.08-.1,16.13,3,24,5.48,15.18,4.72,31.52,6.87,47,3.33,14.38-3.28,27.91-12,35.15-24.7,24.41-.29,63,1.39,108.69,19.31,82,32.2,245.49,37.31,233.3-143.67a132.06,132.06,0,0,0-14.76-49.57h0a148.68,148.68,0,0,0-8.64-14.55c-.58-2-.18-3.07,1.19-2.25,1.84,1.12,4,4.77,5.11,8.29s1.9,6.52,1.86,6.13c0-.19-.38-2.11-1-5.06-.28-1.22-.61-2.67-1-4.2-.08-.31-.14-.6-.23-.91-.56-1.87-1.33-3.85-2.11-5.93s-1.72-4.19-2.7-6.28-2.31-4-3.56-5.84a44.2,44.2,0,0,0-3.84-5,31.7,31.7,0,0,0-4.1-3.52c-5.08-3.77-11.07-5.56-16.93-7.68l-2.93-.93a163.13,163.13,0,0,0-22.4-15.4c0-.21-.08-.42-.1-.64a10.66,10.66,0,0,1,5.36-9.73c3.91-2.49,8.81-1.74,12.74-.5s6.66,3.19,7,2.15c.18-.52-1.14-2.18-3.46-4.43a65.81,65.81,0,0,0-10-7.16,57.68,57.68,0,0,0-6.57-3.14,40.42,40.42,0,0,0-7-2.32,44.57,44.57,0,0,0-6.91-1,20.68,20.68,0,0,0-6.21.45,82.67,82.67,0,0,0-11,3.5c-3.58,1.48-7.05,3.09-10.45,4.43-1.36.51-2.73,1-4.11,1.53l-1.59-.42c1.65,2.28,2.87,5.13,2,8.07-1.18,2.93-3.93,4.51-6.48,5.45a37.89,37.89,0,0,1-3.94.69c-1.29,0-2.59.12-3.87.12a31.15,31.15,0,0,1-7.41-1c-2.38-.63-4.7-1.44-7-2.19,1.21,0,2.42-.11,3.61-.1l3.54.09a48.76,48.76,0,0,0,6.87-.3c1.11-.15,2.16-.43,3.25-.57s2-.55,2.93-.8c1.7-.77,3.08-1.75,3.5-3s-.2-2.88-1.23-4.53a31.07,31.07,0,0,0-2.13-2.4c-.71-.5-1.38-1.06-2.08-1.61-5.12-1.15-10.38-2.16-15.83-3-.06-.18-.14-.35-.2-.54-1.39-4.41-1-10.27,2-16.07a20.07,20.07,0,0,1,12.33-9.88c4.3-1.31,7.85-1.57,7.85-3.18s-7.75-4-17.35-3.83a56.37,56.37,0,0,0-14.82,2.11,35.34,35.34,0,0,0-12.61,6.59c-6.66,6-12.2,13-17.92,19q-1.8,1.83-3.64,3.45c-5.27.17-10.67.5-16.17,1l1.71.83c2.23,1.51,4.35,3.93,4.58,7.05-.05,3.17-2,5.47-3.93,7.29a35.37,35.37,0,0,1-3.27,2.1,31.59,31.59,0,0,1-3.44,1.42,28.24,28.24,0,0,1-7,1.33c-1.22.12-2.44.19-3.66.22l1.8.81a9.78,9.78,0,0,1,4.67,6.79c.14,3.17-1.49,5.54-3.2,7.49a31.78,31.78,0,0,1-2.92,2.26,29.33,29.33,0,0,1-3.11,1.58,24.57,24.57,0,0,1-6.46,1.65,46.36,46.36,0,0,1-6.52.48l5.91-2.59a38.37,38.37,0,0,0,5.55-2.67c.85-.53,1.61-1.16,2.45-1.68s1.38-1.29,2.06-1.91a6.44,6.44,0,0,0,1.71-4.19,6,6,0,0,0-2.58-3.64c-.83-.43-1.61-1-2.53-1.34s-1.89-.71-2.9-1a41.17,41.17,0,0,0-6.42-1.16l-1.2-.07a25.31,25.31,0,0,1-2.47,2,31.69,31.69,0,0,1-3.21,1.78c-4.35,2-9.13,2.54-13.51,2.74,4-2,8.24-3.44,11.78-5.78.88-.58,1.65-1.26,2.51-1.83s1.39-1.38,2.09-2c1.08-1.47,1.79-3,1.61-4.28s-1.36-2.48-2.87-3.49c-.88-.38-1.72-.87-2.7-1.19s-2-.59-3.07-.82a43.15,43.15,0,0,0-6.75-.76l-3.5-.13-3.36-.08c1-.41,2.11-.79,3.19-1.13a34.93,34.93,0,0,1,3.56-.85,31.19,31.19,0,0,1,7.5-.51,35.56,35.56,0,0,1,3.81.52,30.61,30.61,0,0,1,3.72,1.24c2.36,1.37,4.66,3.47,5.23,6.56a8.93,8.93,0,0,1-1.68,5.89,28.17,28.17,0,0,1,6.49,0,32.68,32.68,0,0,1,3.62.73l0,0,4.8-1.74a44.17,44.17,0,0,0,6.1-2.39c1-.49,1.81-1.08,2.74-1.55s1.56-1.23,2.33-1.81c1.26-1.35,2.14-2.77,2.1-4.09s-1.1-2.61-2.53-3.78c-.86-.47-1.66-1-2.62-1.46s-2-.81-3-1.15c-.87-.27-1.77-.48-2.67-.69l-.33,0-.1-.15c-1.2-.26-2.44-.48-3.7-.67-2.34-.28-4.75-.42-7.21-.66a43.33,43.33,0,0,1,7.33-1.52c.65-.05,1.3-.08,2-.1a29.92,29.92,0,0,1-1.56-17c2.58-15,16.43-18,15.54-21.66-.23-.95-2.28-1.25-5.43-1a47.34,47.34,0,0,0-11.84,2.79,71.58,71.58,0,0,0-6.84,2.89,56.6,56.6,0,0,0-6.63,4,36.64,36.64,0,0,0-10.49,10.49c-6.47,10.19-10.87,21.72-17.11,29.64q-13.71,2.52-27.43,5.41c-.44-.32-.88-.63-1.3-1A23.53,23.53,0,0,1,503.8,659c-.31-15.64,12.32-21.8,10.7-25.4-.79-1.76-8.2.39-16.19,5.61s-16.52,13.24-20.11,22-5.76,18-9.5,25.59c-.2.41-.42.79-.63,1.19-10.71,2.46-21.36,4.94-31.93,7.34a27.38,27.38,0,0,1-3.61-14.29c0-14.51,11-21.18,9.23-24.48-.88-1.66-7.2,1-14.34,6.21-7.25,4.83-15.37,12.39-19.75,19.87s-7.95,15.54-12.71,21.58c-10.93,2.19-21.73,4.17-32.34,5.85-2.53-3.42-3.61-8.15-2.56-13.55,2.17-11.6,14-16.91,12.84-19.75-.61-1.46-7.26.7-15.12,4.76-7.88,3.85-17.07,9.48-22.5,14.88-2.69,2.75-5.24,5.51-7.82,8.05a59.07,59.07,0,0,1-8,6.62,31.67,31.67,0,0,1-7.91,3.9,9,9,0,0,1,1.35,3.54,10.11,10.11,0,0,1-3,7.5,29.39,29.39,0,0,1-2.92,2.17,25.57,25.57,0,0,1-3.15,1.47,28.13,28.13,0,0,1-13,1.18c4.12-1.35,8.16-2.42,11.66-4.38.86-.49,1.62-1.09,2.45-1.56s1.38-1.25,2.06-1.85a6.31,6.31,0,0,0,1.68-4.12,5.91,5.91,0,0,0-2.1-3.42c-3.93.08-7.84.11-11.69,0a17.42,17.42,0,0,1-7.53-3.9c-2.35-2.3-2.88-5-1-8.21s5.93-5.61,9.43-7.48c2.77-1.54,5.15-2.74,5.86-3.62a15.57,15.57,0,0,0,11.76-2.51c1.57-3-11.65-3.79-11.88-7.37s3.68-5.94,1.71-10.62-17.17-13.4-7-18.84,13.94,4,19.5,11.25,27.36,13.56,39.94-6.78c2.09-4.32-14.66,4.95-17.33,1.25s-.7-7.46-5.39-8.77-9.45.72-14.4-4.61-7.54-7.59-1.51-9.64,16.6-.89,21.48,3.85,23.81-13.14,18.87-28.8c-3.37-1.78-9,11.19-11.22,11.38s-2.86-5.91-7.37-5-16.78,11.17-22.91,5.28a79,79,0,0,1-14.68-20.35c-2.86-5.91-20.24.53-27.11-2.48s-36.31-2.88-43.75-7.35-17.39-4-23.08,4.41-.51,8.39.51,18.9.69,41.24-7.42,47.56c-3.69,2.87-9.8,6-14.91,10.13-26.75-29.46-22.78-65.94.42-92.67-33.66-15.79-64.6-39.07-99.64-51.67C84.45,531,82.86,533.22,81.32,535.47ZM772.14,879.33a26.76,26.76,0,0,1-.66,3.3A25.85,25.85,0,0,1,769,889a24.23,24.23,0,0,1-2.16,2.82,27.72,27.72,0,0,1-2.77,2.4,9.6,9.6,0,0,1-7.93,1.14,11.23,11.23,0,0,1-5.66-5.75,26.57,26.57,0,0,1-.9-3.26,27.54,27.54,0,0,1-.21-3.11,19,19,0,0,1,.66-5.89,28.69,28.69,0,0,1,.9-2.76c.28-.92.61-1.82,1-2.71q.12,1.47.24,2.91c0,1,0,1.9.06,2.83a31.71,31.71,0,0,0,.57,5.58c.21.91.51,1.78.63,2.66s.63,1.63.92,2.44a6.55,6.55,0,0,0,3.12,3.09,6.24,6.24,0,0,0,4.38-.68c.73-.53,1.54-1,2.26-1.6a28.75,28.75,0,0,0,2-2.1,37,37,0,0,0,3.36-5.16c.51-.93,1-1.88,1.51-2.86s.9-2,1.35-3C772.29,877.09,772.24,878.21,772.14,879.33ZM719.35,748.75c1.7.88,3.51,1.6,5.21,2.32.87.32,1.77.51,2.63.84s1.77.26,2.64.42a6.67,6.67,0,0,0,4.3-1.17,5.92,5.92,0,0,0,1.52-4.14,27.44,27.44,0,0,0-.33-2.77c-.32-.93-.5-1.92-.84-2.89a25.49,25.49,0,0,0-3-5.57c-1.19-1.81-2.48-3.65-3.77-5.56a40.85,40.85,0,0,1,5.47,4.18,30.47,30.47,0,0,1,2.43,2.52,19.41,19.41,0,0,1,2,3,32.72,32.72,0,0,1,1.48,3.31,28.79,28.79,0,0,1,.81,3.62,9.8,9.8,0,0,1-3,7.6,10.94,10.94,0,0,1-7.77,1.88,29.44,29.44,0,0,1-3.36-.85,25.58,25.58,0,0,1-2.89-1.36,27.93,27.93,0,0,1-2.52-1.72A21.24,21.24,0,0,1,718,750.5a31,31,0,0,1-3.87-4.46ZM541,704.18a30.86,30.86,0,0,1,3.52.46,30.09,30.09,0,0,1,3.51,1.17,8.58,8.58,0,0,1,3,14.05,18.89,18.89,0,0,1-5.74,4.34,31.17,31.17,0,0,1-13,3c4-2,7.94-3.6,11.26-6,.82-.6,1.53-1.29,2.32-1.87s1.26-1.41,1.88-2.08a4.71,4.71,0,0,0-1.62-7.71c-.85-.36-1.66-.83-2.58-1.14s-1.89-.56-2.88-.77c-4-.83-8.32-.68-12.78-.82A30.89,30.89,0,0,1,541,704.18Zm-95.74,20.58a33.38,33.38,0,0,1,3.52.48,30.16,30.16,0,0,1,3.51,1.18,10.16,10.16,0,0,1,5.3,6.22,9.11,9.11,0,0,1-1.17,6,26.07,26.07,0,0,1,6.2-.47,30.91,30.91,0,0,1,3.54.46h0a62.29,62.29,0,0,0,9.86-5.28c.82-.6,1.53-1.29,2.33-1.88s1.26-1.41,1.89-2.09a4.69,4.69,0,0,0-1.66-7.7c-.85-.36-1.66-.83-2.58-1.12s-1.9-.56-2.89-.77c-4-.82-8.33-.67-12.79-.83a31.4,31.4,0,0,1,13.2-2.62,28.64,28.64,0,0,1,3.53.45,30.7,30.7,0,0,1,3.52,1.15,8.55,8.55,0,0,1,3,14,30.6,30.6,0,0,1-2.74,2.51,27.51,27.51,0,0,1-3,1.86,28.36,28.36,0,0,1-10,2.79l1.81.65a8.54,8.54,0,0,1,3,14,32.06,32.06,0,0,1-2.77,2.5,26.72,26.72,0,0,1-16.36,4.83c4.08-1.95,8.11-3.57,11.49-6,.83-.6,1.55-1.3,2.35-1.88s1.28-1.41,1.91-2.09a4.68,4.68,0,0,0-1.63-7.71c-.85-.36-1.66-.83-2.59-1.13s-1.9-.56-2.9-.77a43.7,43.7,0,0,0-7.41-.71,24.4,24.4,0,0,1-2.31,2.05,29.32,29.32,0,0,1-3.07,1.84,31.15,31.15,0,0,1-13.26,2.9c4.07-1.93,8.1-3.52,11.47-5.9.83-.6,1.55-1.29,2.36-1.87s1.28-1.4,1.91-2.07a4.69,4.69,0,0,0-1.6-7.72c-.85-.36-1.66-.83-2.58-1.14s-1.89-.57-2.89-.79c-4-.85-8.32-.74-12.78-.94A31.65,31.65,0,0,1,445.27,724.76ZM385.79,732a30.81,30.81,0,0,1,3.5.59,32.42,32.42,0,0,1,3.47,1.28A8.54,8.54,0,0,1,395.3,748a28.88,28.88,0,0,1-2.85,2.41,29.4,29.4,0,0,1-3.14,1.75,31.2,31.2,0,0,1-13.4,2.47c4.15-1.8,8.25-3.24,11.71-5.52.85-.58,1.59-1.24,2.41-1.8s1.33-1.36,2-2a6.19,6.19,0,0,0,1.43-4.25,6.27,6.27,0,0,0-2.8-3.5c-.84-.39-1.64-.89-2.55-1.23s-1.87-.63-2.86-.87c-4-1-8.28-1-12.71-1.38A31.7,31.7,0,0,1,385.79,732Zm-137-22.39h0l.78.23Zm44.52,55.21a32.9,32.9,0,0,1,3.53.94,36.91,36.91,0,0,1,3.43,1.64,10.33,10.33,0,0,1,4.49,6.3,56.2,56.2,0,0,0,10.21-3.91c.91-.5,1.73-1.11,2.61-1.61a28.42,28.42,0,0,0,2.17-1.88,4.64,4.64,0,0,0-.82-7.83c-.82-.45-1.58-1-2.48-1.4s-1.85-.76-2.83-1.08c-4-1.26-8.29-1.63-12.74-2.36a33.62,33.62,0,0,1,13.55-1c1.17.18,2.33.54,3.49.84a31,31,0,0,1,3.42,1.51,10.24,10.24,0,0,1,4.73,6.7,10,10,0,0,1-3.18,7.57,30.35,30.35,0,0,1-3.09,2.22,26.11,26.11,0,0,1-3.33,1.52,30.13,30.13,0,0,1-11.61,1.59,10.16,10.16,0,0,1-3.49,7.16,29.9,29.9,0,0,1-3.24,2.11,32.4,32.4,0,0,1-3.47,1.42,33.48,33.48,0,0,1-14.35,1c4.6-1.29,9.07-2.27,12.94-4.18.95-.48,1.8-1.07,2.72-1.54s1.53-1.22,2.29-1.81c1.21-1.34,2-2.75,1.94-4.08s-1.14-2.6-2.51-3.78c-.82-.47-1.58-1-2.48-1.47s-1.86-.82-2.85-1.17c-4-1.38-8.4-1.91-12.92-2.8A35.46,35.46,0,0,1,293.26,764.78ZM240.09,620.25c10-3,35-5.59,39.92,3.55s-.65,19.69-.7,26.76,5.18,11.74,4.77,17.66-5.66,9.71.25,15.29a36.6,36.6,0,0,0,14.26,8.18c-.53.09-1.11.21-1.76.36-2.83.59-6.67,1.57-10.88,2.81-8.4,2.47-18.34,5.34-24.38,7.32a56,56,0,0,1-12.21,3.06c-1.1-9.84-16.53-22.64-15.64-40.54C234.93,640.39,230.07,623.26,240.09,620.25ZM199.77,731.6a26.48,26.48,0,0,0,5.86-.72c.93-.25,1.8-.62,2.7-.86a25.08,25.08,0,0,0,2.37-1.21,4.95,4.95,0,0,0,1.41-7.69.16.16,0,0,1,0-.07c-.57-.65-1-1.38-1.68-2s-1.31-1.21-2-1.77a45.72,45.72,0,0,0-4.55-3c-1.59-.9-3.22-1.76-4.76-2.78a40.71,40.71,0,0,1,5.49.72,24.56,24.56,0,0,1,5.41,2,21.83,21.83,0,0,1,2.59,1.71,32.38,32.38,0,0,1,2.44,2.29,12.75,12.75,0,0,1,1.86,3.47,9.62,9.62,0,0,1,.49,4.17,9.29,9.29,0,0,1-3,5.24,28.2,28.2,0,0,1,5.6,1.61,28.82,28.82,0,0,1,3,1.57l0,0a47.73,47.73,0,0,0,10.43-2.1c.91-.35,1.74-.82,2.61-1.17a26.77,26.77,0,0,0,2.26-1.49,6.2,6.2,0,0,0,2.23-3.81,6.63,6.63,0,0,0-1.74-4c-.65-.58-1.24-1.25-2-1.79-.53-.31-1-.67-1.56-1-.25-.16-.49-.34-.75-.49a41.37,41.37,0,0,0-5.12-2.42c-1.78-.7-3.61-1.34-5.4-2.14a39.54,39.54,0,0,1,5.86,0,21.46,21.46,0,0,1,8.84,2.73c.24.15.47.33.7.5.69.49,1.38,1,2.07,1.55a10.58,10.58,0,0,1,3.26,7.33,10.16,10.16,0,0,1-4,7,24.21,24.21,0,0,1-3.16,1.69,28.34,28.34,0,0,1-3.28,1,21.12,21.12,0,0,1-6.57.27,28.35,28.35,0,0,1-3.34-.54l1.46,1.18a10.51,10.51,0,0,1,3.09,7.51,9.92,9.92,0,0,1-4.58,6.76,23.52,23.52,0,0,1-3.44,1.51,29.63,29.63,0,0,1-3.56.74,23,23,0,0,1-7-.18,31.47,31.47,0,0,1-6.67-1.82c2.29-.08,4.54-.17,6.72-.38a31.2,31.2,0,0,0,6.28-1c1-.29,1.9-.71,2.85-1a27.53,27.53,0,0,0,2.47-1.34,6.09,6.09,0,0,0,2.55-3.68c.13-1.34-.6-2.73-1.64-4.15-.67-.62-1.26-1.32-2-1.91s-1.54-1.14-2.37-1.66a46.76,46.76,0,0,0-5.31-2.77l-1-.43a17.14,17.14,0,0,1-2.75,1.1,27.71,27.71,0,0,1-3.34.56,19.46,19.46,0,0,1-6.49-.53,25.7,25.7,0,0,1-6-2.17C195.68,731.67,197.75,731.7,199.77,731.6Zm-17.14,14c-.6-.75-1.09-1.56-1.76-2.29s-1.41-1.42-2.16-2.16a43,43,0,0,0-5-4l-5.29-4a42.24,42.24,0,0,1,6.37,2.06,27.69,27.69,0,0,1,6.08,3.15,33.26,33.26,0,0,1,2.84,2.16,36,36,0,0,1,2.54,2.78,10.34,10.34,0,0,1,2,8,7.56,7.56,0,0,1-1.38,2.53,11.54,11.54,0,0,1-4.66,3.25,30.41,30.41,0,0,1-4,.69,33.18,33.18,0,0,1-4-.05,31.51,31.51,0,0,1-7.65-2,48.62,48.62,0,0,1-6.92-3.69c2.55.53,5,1.09,7.42,1.55a42.79,42.79,0,0,0,7,.55c1.11,0,2.18-.25,3.25-.32s2-.54,2.91-.79a6.28,6.28,0,0,0,3.2-2.73c.05-.11.13-.21.17-.32C184,748.79,183.47,747.21,182.63,745.61Zm-77.46-153a61.79,61.79,0,0,0,.35,13.9c.24,1.05.62,2,.86,3.05s.83,1.8,1.22,2.67c1,1.49,2.21,2.6,3.52,2.82a6.45,6.45,0,0,0,4.26-1.55c.64-.67,1.38-1.26,2-2s1.21-1.56,1.77-2.39c2.44-3.35,3.92-7.29,6.15-11.07-.44,4.28-1.06,8.66-3.11,12.77a27.93,27.93,0,0,1-1.7,3,34,34,0,0,1-2.37,2.84c-2,1.65-4.47,3.2-7.62,3a9.76,9.76,0,0,1-6.58-5,31.83,31.83,0,0,1-1.29-3.7,35.16,35.16,0,0,1-.56-3.8A31.32,31.32,0,0,1,105.17,592.65ZM91.38,696.39A22.85,22.85,0,0,0,94,698.68c1.83,1.07,3.53,1.6,4.76,1.1s2-2.15,2.54-4.06c.1-1.08.36-2.12.49-3.27s.17-2.34.18-3.54,0-2.45-.11-3.68-.06-2.48-.13-3.73l-.09-1.34a23.45,23.45,0,0,1-2.31-2.69,36.44,36.44,0,0,1-2-3.64A33.83,33.83,0,0,1,96,670a36,36,0,0,1-.75-3.94A34.41,34.41,0,0,1,95,658.2c.69,2.44,1.5,4.87,2.37,7.19a31.89,31.89,0,0,0,3,6.49c.62,1,1.34,1.82,1.94,2.74a26.26,26.26,0,0,0,2.15,2.19c1.6,1.07,3.17,1.68,4.45,1.36s2.33-1.64,3.21-3.21c.32-.9.81-1.76,1.1-2.73s.56-2,.77-3c.37-2.06.69-4.17.94-6.33s.37-4.34.78-6.56c.5,2.15,1.08,4.32,1.4,6.54a31.62,31.62,0,0,1,.29,3.39,26.38,26.38,0,0,1,0,3.45,35,35,0,0,1-.48,3.57c-.21,1.19-.62,2.39-1,3.62-1.08,2.36-2.83,5-5.77,6a8.11,8.11,0,0,1-6.12-1c.26,1,.48,2.06.72,3.11a34.43,34.43,0,0,1,.71,4c.2,1.35.14,2.77.29,4.16,1.1,1.67,2.23,3.3,3.32,4.85a36.66,36.66,0,0,0,5,5.44c.85.77,1.83,1.35,2.74,2a28,28,0,0,0,2.8,1.39c1.82.53,3.47.61,4.58-.12s1.69-2.33,2.07-4.11c0-1,.17-1.9.13-2.89a29.88,29.88,0,0,1-.19-3,61.1,61.1,0,0,0-1-6.21c-.31-2.12-.81-4.19-1-6.37a50,50,0,0,1,3.1,5.72,27,27,0,0,1,2.29,6.25,32.44,32.44,0,0,1,.74,3.4c.16,1.17.07,2.48.15,3.73-.22,2.51-1,5.49-3.37,7.53-2.58,1.8-5.72,1.51-8.46.59a25.76,25.76,0,0,1-3.64-2.21,35.84,35.84,0,0,1-3.17-2.87,32.62,32.62,0,0,1-4.56-7c-.56-1.32-1.08-2.65-1.53-4,0,.73-.11,1.47-.14,2.22a16.78,16.78,0,0,1-1.43,4.27,7.53,7.53,0,0,1-3,3.3,7,7,0,0,1-4.51.28,13.47,13.47,0,0,1-4.22-2A41.66,41.66,0,0,1,89,700a33.33,33.33,0,0,1-2.74-4,43.66,43.66,0,0,1-2.18-4.32,34.91,34.91,0,0,1-1.48-4.47,41.92,41.92,0,0,1-1.55-9c.58,1.38,1.07,2.73,1.68,4.07s1.25,2.67,1.86,4,1.27,2.54,1.94,3.74a41.38,41.38,0,0,0,2.33,3.44C89.71,694.49,90.59,695.39,91.38,696.39Z"/><path class="cls-3" d="M943.24,452.32c-.74-2.09,5-4.28,3-8.4s-15.1-13.37-11-20.8a79.35,79.35,0,0,1,15.91-19.41c5-4.27-5.69-19.42-4.53-26.83s-6.52-35.83-4.1-44.18-.63-17.82-10.17-21.18-8.24,1.66-18.14,5.34-39.69,11.21-47.87,5-20.68-23.35-34.68-14.67a27,27,0,0,0-4.56,3.67c.14.47.32.95.46,1.42.8.52,1.63,1,2.45,1.53a194,194,0,0,1,4.56,23.51l.85,7.33c.23,2.45.36,4.9.55,7.36s.32,5.16.38,7.75c-.35.17-.72.32-1.06.5l-.54.33a176.24,176.24,0,0,1-1.1,20.05c8.48,1.61,15.16-11.39,26.56-19.81,10.13,5.85,12.61,18,15.8,17.36,1.93-.34,1.89-9.84-1.51-20.81-.28-.91-.59-1.84-.91-2.76,23.68-5.06,38.92-14.05,44.37-5.16s14.37,32.44,6.79,39.49-19.2,4.42-26,6.18-10,8-15.85,9.13-10.83-3-14.72,4.15-7.81,22.12,1.3,29.59c3.32.76.69-12.22,4.09-13.37s6.68,2,10.7-1.06,8.56-20,16.41-11.61-.31,14.49-5.88,21.72-6.1,29.92,16.77,36.88c4.72.91-8.54-12.91-5.64-16.43s7-2.59,7.1-7.46-3.12-9,.77-15.11,5.41-9.22,8.94-3.92,5.1,15.82,1.77,21.75,18.79,19.66,32.67,10.87C958,456.53,944,454.4,943.24,452.32Z"/><path class="cls-4" d="M511.72,251.41a132.15,132.15,0,0,0-3-26.87c-5.48.05-11,.18-16.46.45-4.48.2-9,.5-13.44.85a135.42,135.42,0,0,1,3.27,29.36C492,253.72,501.9,252.43,511.72,251.41Z"/><path class="cls-5" d="M233.45,234.8a26,26,0,0,0,18,19.27c8.75,2.45,21.54,1.93,28.94-5,5.66-5.26,8.76-14.54,9.49-28.28-8.13-1.88-14-9.13-26-11.52C249.41,206.42,243.29,227.68,233.45,234.8Zm45.15-13.31s6.88,25.34-12.19,28.6c-24.59,4.2-23.12-19.55-23.12-19.55s9-18.91,19.34-18.07S278.6,221.49,278.6,221.49Z"/><path class="cls-6" d="M394.06,239q-6.17,1.34-12.3,2.82a135.13,135.13,0,0,1,7.57,31.95c8.26-2,17.56-4.2,27.6-6.41a132.45,132.45,0,0,0-9.81-31.16Q400.58,237.55,394.06,239Z"/><path class="cls-7" d="M792.26,242.55a167.31,167.31,0,0,1,25.84,38.31l.26.57a25.17,25.17,0,0,1,14.16-7.19c7.29-1.25,13.33,1.57,18,4.5s7.53,6.07,9.08,4.94c.77-.56.13-3-1.56-6.38a73.14,73.14,0,0,0-8.43-12c-7.61-8.54-18.32-16.78-28.06-18.7a131.54,131.54,0,0,0-14.18-2.14c-4.68-.46-9.15-.88-13.3-1.6Z"/><path class="cls-8" d="M448.58,260.89a132.65,132.65,0,0,0-9.5-30.39q-13.87,2.13-27.67,4.86A135.85,135.85,0,0,1,418.75,267C428.17,264.92,438.19,262.86,448.58,260.89Z"/><path class="cls-9" d="M480.16,255.49a132.86,132.86,0,0,0-5.54-29.28l-2.67.24a27.64,27.64,0,0,1-12.14,1.94c.72-.32,1.44-.62,2.15-.92-6.2.7-12.4,1.47-18.59,2.36a135.52,135.52,0,0,1,7.05,30.72C460.1,258.74,470.08,257,480.16,255.49Z"/><path class="cls-10" d="M677.43,298.8c-2.27-3.66-4.68-7.22-7.28-10.65a139.71,139.71,0,0,0-35.68-33.39c-2.13-1.38-4.3-2.69-6.49-4-.79,3.87-1.77,7.7-2.9,11.49C644.18,270,663.74,281.41,677.43,298.8Z"/><path class="cls-11" d="M583,250.56a130.91,130.91,0,0,0,2.37-17.26,234.57,234.57,0,0,0-34.26-6.55,136.4,136.4,0,0,1-.65,22.24A234.83,234.83,0,0,1,583,250.56Z"/><path class="cls-12" d="M387.49,274.23a132.47,132.47,0,0,0-10-31.33q-15.92,4-31.64,8.76c5.49,6.38,10.54,16.09,12.12,30.23C364.08,280.21,374.36,277.46,387.49,274.23Z"/><path class="cls-13" d="M828.15,338.11A211.71,211.71,0,0,0,824,314.25a197.4,197.4,0,0,0-10.11-31.49,192.3,192.3,0,0,0-23.48-40.58c-.8-.16-1.59-.33-2.37-.53-.5-.58-1-1.17-1.48-1.75a203.94,203.94,0,0,0-18.16-18.32,15.49,15.49,0,0,1,.38-2.78c1.17-4.92,4.66-9.77,10.69-13.1s12.59-2.94,17.62-1.67,8.91,2.83,9.83,1.32c.46-.75-1-2.64-3.77-5a47.57,47.57,0,0,0-5.06-3.89c-2-1.3-4.27-2.64-6.68-3.94s-5-2.6-7.6-3.75-5.45-2-8.19-2.84a62.89,62.89,0,0,0-8-1.86,36.33,36.33,0,0,0-7.57-.32c-4.71.33-9.23,1-13.54,1.6S738,186.92,734,187.36c-7.72,1-14.77.77-22.1-2.7l-1.32-.63a27.41,27.41,0,0,1-11.39-12.21c-2.37-5.16-2.81-10.83,1.2-15.46s10-6.16,15.06-6.75,9.15-.32,9.36-1.89-8.38-4.77-19.25-6.06-23.72-.8-31.82,2.69-15.15,7.76-22.3,10.72-14.39,4.52-23.31,3.08c-5.57-.93-9.79-3.55-12.09-7s-2.61-7.68-.09-12.2,7.71-7.07,12.22-8.72,8.33-2.43,8.06-3.73-9-1.73-19.47-.33-22.39,4.42-29.37,8.63-13,8.69-19.43,12.05a51,51,0,0,1-9.26,3.74q-12.61-.52-25.26-.47c-4-2.13-5.56-5.53-3.45-9.67,3.62-7.22,18.65-10.56,17.69-12.33-.48-.92-8.92.38-18.78,3.12s-21.09,6.83-27.51,10.7c-6.27,3.77-11.66,7.43-17.7,10.34l-.55,0,.52.24c2.22,1.47,4.37,3.65,4.76,6.77.12,3.15-1.62,5.68-3.46,7.53a34.72,34.72,0,0,1-3.15,2.17,32,32,0,0,1-3.35,1.49,34.13,34.13,0,0,1-13.82,1.84c4.31-1.62,8.58-2.9,12.3-5,.92-.51,1.74-1.11,2.63-1.6s1.49-1.26,2.23-1.86c1.18-1.37,2-2.8,1.88-4.13s-1.2-2.57-2.63-3.71a29.05,29.05,0,0,0-2.6-1.41c-1-.32-1.95-.77-3-1.09-.56-.15-1.15-.25-1.72-.37q-14.72,1.44-29.06,3.51c-.26-.67-.05-1.48.74-2.48,3.44-4.35,17.83-9.07,16.81-9.92-.52-.47-8.58,1.91-18,5.28s-20.3,7.61-26.67,10.42c-1.65.74-3.25,1.43-4.83,2.1q-14.78,2.86-28.78,6.29a78.8,78.8,0,0,1-16.26,2.19c-10.54,16.2-25.57,15.8-25.57,15.8s12.55-6.42,20.61-15.78c8.52-11.27,21.94-38.31,33.45-52.53,14.28-17.65,22.26-37.81,20.16-42.85s-13-6.72-13.44,0c-.42,12.6-10.5,24.36-20.58,22.68s.42-22.26,0-24.78-10.08-8.4-12.6-2.52c-9.24,16.8.84,39.91-6,51.25S326.82,146.68,317,158.14c-6,7.49-7.51,12.84-7.51,12.84s-1.28-5.78,3.16-13.71c-13.86-2-37.91.81-66.58,6.55-31.92,6.38-43.39,44.56-52.07,46.43-13.24,1.65-29.79-.55-48.55,0a13.72,13.72,0,0,0-2.23.26c-1.34-3.8-2.42-7.45-3.67-10.63a25.58,25.58,0,0,1-1.92-8.18,19.51,19.51,0,0,1,1.31-7.95,13.55,13.55,0,0,1,4.43-6c1.84-1.43,4.46-2.16,7.69-2.48s6.95-.22,11-.57a33,33,0,0,0,6.24-1.12,25.38,25.38,0,0,0,6-2.66,30.61,30.61,0,0,0,8.87-8.59,84.27,84.27,0,0,0,5.85-9.79c1.91-3.56,3.71-7.09,5.79-10.33a43.89,43.89,0,0,1,7.26-8.75,46.22,46.22,0,0,1,19.92-10.76c5.51-1.48,11.23-1.48,17.24-1.4,3,0,6.07,0,9.17-.24a48.45,48.45,0,0,0,25.83-10.32,49.51,49.51,0,0,0,12-14.2c4.63-7.94,7.46-16.45,11.14-24.44A63.45,63.45,0,0,1,312.41,50.8c7.55-7,17-11.6,26.57-15A98.54,98.54,0,0,1,371.28,30c21.1-.16,41.81,5.46,61.58,12.91,8,3,15.89,6.41,23.91,9.71s16.35,6.21,25.08,7.42a66.4,66.4,0,0,0,17,0,78.31,78.31,0,0,0,16.37-4.08c1.34-.44,2.63-1,3.94-1.51s2.6-1.08,3.87-1.68a156.85,156.85,0,0,0,24.17-14.23c1.88-1.31,3.71-2.66,6.15-4.43-2.41,1.76-5.34,3.72-9.18,6.24a135.77,135.77,0,0,1-24.54,13.22,73.14,73.14,0,0,1-29.51,5.82c-8.18-.13-16.19-2.21-23.8-5.07s-15-6.45-22.47-9.74c-15-6.58-30.4-12.43-46.6-15.9-12.51-2.66-25.43-4.5-38.61-3.27a87.35,87.35,0,0,0-28.71,8.18A80.55,80.55,0,0,0,304.43,52.5c-4.43,4.91-8.9,10.23-11.78,16.15-4.07,8.24-6.9,16.59-10.93,24a49.89,49.89,0,0,1-7.07,10.15,41,41,0,0,1-9.62,7.69,39.58,39.58,0,0,1-16.84,5.22c-5.95.47-12.27-.26-19,.18a52,52,0,0,0-40.11,24.26c-3.17,4.88-5.73,9.84-8.71,14.29s-6.33,8.35-10.52,10.29a18.1,18.1,0,0,1-6.74,1.75c-2.48.18-5.14.08-8,0a45,45,0,0,0-9.06.47,20.42,20.42,0,0,0-9.17,3.93,21.64,21.64,0,0,0-6.42,8.18,30.44,30.44,0,0,0-2.63,9.61c-.77,6.67.6,13.06,1.94,19.49a22,22,0,0,0,3.94,7.82c-8.52,8.89-12.48,26.42-7.39,40.24a33.49,33.49,0,0,0-5.65,5.64,52.06,52.06,0,0,0-7.17,12.38,40.38,40.38,0,0,0-2.8,14.43,33,33,0,0,0,3.17,14.62,26.86,26.86,0,0,0,4.34,6.4,32.55,32.55,0,0,0,5.54,4.75c3.77,2.59,7.42,4.41,10.42,6.5s5.15,4.31,6.2,7.22.86,6.4,0,10.08-2.35,7.46-3.72,11.41c-.74,2.18-1.47,4.4-2.05,6.73-.24,1.19-.49,2.39-.67,3.58s-.31,2.41-.32,3.62a40.47,40.47,0,0,0,2,14.19,39.07,39.07,0,0,0,17.57,21.9c6.27,3.49,13,5,19,7.45a35.55,35.55,0,0,1,8.3,4.52,47.29,47.29,0,0,1,7,6.58c4.33,4.88,8.18,10.47,13.1,15.43a37.91,37.91,0,0,0,18.16,10.55c10.35,2.49,20.94.64,30.44-2.74s18.33-8.62,26.67-14.09c9.8-6.3,19.77-12.44,30.32-16.94a67.55,67.55,0,0,1,17.59-5.08,65.66,65.66,0,0,1,18.3.32c11.66,1.68,23,5.53,34.61,8.61s23.84,5.5,36.14,3.77c9.91-1.28,19.18-4.9,28.08-8.75s17.59-8.13,26.67-11.17a75,75,0,0,1,18-3.85c6-.41,12.37.48,17.28,4.06a52.67,52.67,0,0,1,6.78,6.29,46.08,46.08,0,0,0,5.89,5.34,32,32,0,0,0,7,3.83A33.87,33.87,0,0,0,538,416a32.61,32.61,0,0,0,6.8-1.45A32.35,32.35,0,0,1,534,416a33.08,33.08,0,0,1-14.94-4.16c-4.69-2.49-8.13-6.64-11.73-10.35a28.72,28.72,0,0,0-6.6-5.22,24.46,24.46,0,0,0-8-2.59c-5.6-.89-11.33-.17-16.87.91-18.07,3.7-34.11,13.61-51.68,18.49a65.67,65.67,0,0,1-26.86,2.12c-9-1.12-17.73-3.63-26.46-6.35-6.78-2.1-13.53-4.41-20.54-6.26a81.69,81.69,0,0,0-21.89-3.11,58.5,58.5,0,0,0-16.91,2.91,91.34,91.34,0,0,0-15.42,6.84c-10.31,5.63-19.4,12.6-29,18.36-5.92,3.62-12.43,5.87-18.74,8.12-8.85,3.09-18.27,4.8-27.11,3.12A32,32,0,0,1,209,433.64a54.64,54.64,0,0,1-10.07-9.84c-4.52-5.34-8.81-11.41-14.92-16.22a40.77,40.77,0,0,0-10-5.68c-3.46-1.44-6.89-2.53-10.15-3.71a41.13,41.13,0,0,1-10.59-5.2,32.53,32.53,0,0,1-8-8.3,33.52,33.52,0,0,1-5.68-22.11c.5-5.55,3.16-11,5.49-17a50.27,50.27,0,0,0,2.9-9.67,21.24,21.24,0,0,0-.76-11.06,19.12,19.12,0,0,0-2.69-5.07,26.92,26.92,0,0,0-3.74-4,75.9,75.9,0,0,0-8-5.78,41.38,41.38,0,0,1-6.76-5.27,18.22,18.22,0,0,1-4.13-6.59,27,27,0,0,1-.15-17.52,28.29,28.29,0,0,1,11-14.23,26,26,0,0,0,8.48,3.84c.17.56.35,1.11.53,1.66a18.16,18.16,0,0,0,2.87,6.19c1.45,1.77,3.81,3,6,2.43a3,3,0,0,0,1.83-1.2c.66-1,.33-2.4,0-3.61a38.43,38.43,0,0,1-.8-4.41c.94,0,1.9-.06,2.89-.14l.24.74a18.16,18.16,0,0,0,2.87,6.19c1.45,1.77,3.81,3,6,2.43a3,3,0,0,0,1.83-1.2c.66-1,.33-2.4,0-3.61a39.62,39.62,0,0,1-.95-6,157.74,157.74,0,0,0,25.41-8.09,8.57,8.57,0,0,1,2.05-.22l.09,6.52a18.11,18.11,0,0,0,.94,6.76c.87,2.12,2.78,4,5.06,4.08a3,3,0,0,0,2.1-.61c.93-.81,1-2.2,1.09-3.44a39.51,39.51,0,0,1,1.26-7.71c3.28,2.91,6.48,6,10,6.76,6.52,1.4,21.63-1.9,29.86-1,0,.35,0,.71,0,1.07a18.11,18.11,0,0,0,.95,6.76c.87,2.11,2.77,4,5.06,4.08a3,3,0,0,0,2.09-.62c.94-.8,1-2.2,1.1-3.43a39.69,39.69,0,0,1,.51-4.35c10.59,3.65,31.06,6.73,48.7-11.36a40.83,40.83,0,0,0,4.67-11.64l-6.26-3.93s12.28-2.79,19,10c.46,1.85-9.51-4.87-9.51-4.87s-7.54,12-8.33,20.79v0c-.81,12-3.19,31.92-10.17,45.55a38.67,38.67,0,0,1-5-6.32c-.66-1.05-1.41-2.23-2.62-2.48a3,3,0,0,0-2.13.47c-1.95,1.2-2.73,3.74-2.47,6a18.47,18.47,0,0,0,2.43,6.37l2.91,5.46a21.18,21.18,0,0,1-2.39,2c-10.83,7.52-29.19,16.51-44.73,23.94a38.62,38.62,0,0,1-2.68-6.61c-.35-1.19-.75-2.53-1.84-3.1a3,3,0,0,0-2.18-.14c-2.2.62-3.65,2.86-4,5.12a18.27,18.27,0,0,0,.59,6.8c.18.83.37,1.67.55,2.5l-4.2,2a39.65,39.65,0,0,1-3-7.26c-.35-1.19-.74-2.53-1.84-3.1a2.91,2.91,0,0,0-2.17-.13c-2.21.61-3.65,2.85-4,5.11a18.26,18.26,0,0,0,.6,6.8l.75,3.46a30.55,30.55,0,0,0-3.53,2.12c-6.62,5,5.52,41.93,35.87,33.1,13.24-4.41,7.72-32.55,19.86-39.17s59-9.38,73.94-38.07,12.69-41.94,12.69-41.94C351,259,339,246.46,328.56,241.72c-.35-1.76,9,.27,17.31,9.94a504.7,504.7,0,0,1,96.23-26.91q16-2.85,32.25-4.55l.45-.48a4.84,4.84,0,0,0-1-7.81,27.17,27.17,0,0,0-2.37-1.37c-.9-.3-1.77-.73-2.71-1-3.79-1.12-7.94-1.24-12.25-1.69a28.11,28.11,0,0,1,12.89-1.7,30.79,30.79,0,0,1,3.36.78,28.93,28.93,0,0,1,3.27,1.49,10.23,10.23,0,0,1,4.39,6.17,59.4,59.4,0,0,0,9.24-3.88c.84-.49,1.59-1.09,2.41-1.58s1.36-1.24,2-1.83a6.39,6.39,0,0,0,1.75-4.07,6.21,6.21,0,0,0-2.35-3.79c-.77-.46-1.5-1-2.35-1.43s-1.77-.79-2.71-1.11a61.28,61.28,0,0,0-12.4-2.25,28,28,0,0,1,13.22-1.13,27.51,27.51,0,0,1,3.38.87A23.31,23.31,0,0,1,495.9,196a10.16,10.16,0,0,1,4.25,6.93,10.33,10.33,0,0,1-3.23,7.38c-.95.71-1.88,1.48-2.87,2.09a28.13,28.13,0,0,1-3,1.46,26.94,26.94,0,0,1-10.49,1.53,9.28,9.28,0,0,1-.87,4.24,358.26,358.26,0,0,1,62.58-.55c16.73,1.58,33.45,4.4,49.58,9.46a192.43,192.43,0,0,1,18.57,6.89l4.71.22c1.87,0,3.7,0,5.46-.09.88-.08,1.74-.3,2.6-.38s1.63-.53,2.44-.77a6.7,6.7,0,0,0,3.24-2.93,6.39,6.39,0,0,0-.26-4.37c-.43-.75-.78-1.57-1.3-2.31s-1.12-1.48-1.75-2.19a21.37,21.37,0,0,0-4.47-3.71l-.89-.58a20.42,20.42,0,0,1-2.84.67,21.3,21.3,0,0,1-9.46-1,33,33,0,0,1-5.75-2.2c4.14,0,8.16.19,11.94-.16.94-.12,1.85-.38,2.77-.5s1.72-.6,2.56-.87a6.48,6.48,0,0,0,3.21-3.08,6.12,6.12,0,0,0-.66-4.38c-.53-.73-1-1.54-1.6-2.27s-1.32-1.43-2.06-2.12c-3-2.85-6.87-4.59-10.77-6.75a39.94,39.94,0,0,1,6.62,1.1,21.75,21.75,0,0,1,6.21,2.88,28.86,28.86,0,0,1,2.8,2.18,29.31,29.31,0,0,1,2.39,2.78,9.65,9.65,0,0,1,1.15,7.94,9.94,9.94,0,0,1-4.06,4.58,22.13,22.13,0,0,1,2.36,1,21.46,21.46,0,0,1,2.69,1.81,24.85,24.85,0,0,1,2.43,2.28l0,0a78.66,78.66,0,0,0,10.38,1c1,0,1.88-.13,2.81-.12s1.77-.36,2.64-.52a6.46,6.46,0,0,0,3.57-2.62,6.21,6.21,0,0,0-.12-4.46,27.12,27.12,0,0,0-1.31-2.49c-.62-.76-1.13-1.61-1.79-2.4-2.69-3.1-6.39-5.28-10-8a40.13,40.13,0,0,1,6.47,2,19.28,19.28,0,0,1,5.94,3.53,30.52,30.52,0,0,1,2.51,2.57,27.58,27.58,0,0,1,2,3.1,9.73,9.73,0,0,1,.15,8.08,10.81,10.81,0,0,1-6.58,4.75,30.84,30.84,0,0,1-3.49.36,26.48,26.48,0,0,1-3.26-.31,34.82,34.82,0,0,1-6-1.76,30.1,30.1,0,0,1-2.91-1.42c.34.5.66,1,1,1.52a9.92,9.92,0,0,1,.41,7.91,11.32,11.32,0,0,1-6,5.32,26.85,26.85,0,0,1-3.24.69,22.08,22.08,0,0,1-3,0,16.87,16.87,0,0,1-2.87-.49l-.61-.17a151.82,151.82,0,0,1,20.62,12.07,134.54,134.54,0,0,1,19.42,16.29,144.66,144.66,0,0,1,16,19.54,155.38,155.38,0,0,1,16.31,32.58c.51,1.23,1,2.5,1.44,3.78,38.92,35.62,22,55.95,22,55.95h0c.15-.91.21-1.79.3-2.68A40.89,40.89,0,0,0,710.2,357c-4.06-10.31-11.43-17.94-16.33-22.49l0,0v0a45.65,45.65,0,0,0-23.31-8.14c-20.85-1.69-6.09,27.37-21.29,46.39s-21.3,35.74-31.18,32.32-31.69-16-30.29-26.24,12-15.59,16.22-21.29,2.66-12.55,6.46-17.11,10.27-4.57,8.75-12.55-8-22.05-19.78-22.05c-3,1.52,7.23,9.88,5.33,12.92s-6.47,2.66-7.61,7.61,6.09,20.91-5.32,19.39-8.95-11.41-9.23-20.53-14.25-27-36.35-17.87C542,309.58,561,311.86,561,316.42s-3.8,6.47-.76,10.27,8.08,4.94,9,12.17,1.66,10.56-4.43,8.7-14-9-15.16-15.69-27-3.28-32.15,12.31c1.69,3.42,13.85-3.8,15.75-2.66s-1.14,6.46,3,8.36,20.15.76,21.67,9.13a79.13,79.13,0,0,1,0,25.09c-1.14,6.47,16.72,11.41,20.53,17.87s27.76,23.58,31.18,31.56,11.79,13.39,21.29,9.93,5.33-6.5,10.65-15.63S665.2,394,675.46,393.61c3.74-.14,8.85.47,14.08.56q-.66,2.32-1.41,4.69a111.22,111.22,0,0,1-4.74,12.46c46,2.32,93.94-3.15,138.47,15.2a190.47,190.47,0,0,0,6.36-31.16c.66-5.51,1.08-11.06,1.33-16.61.18-4,.28-8,.26-12A246.44,246.44,0,0,0,828.15,338.11ZM392.59,29.4c1,.22,2,.47,3.05.74-.11.15-.26.44-.31.43l-3-.64ZM365.7,408.91l3.31,1.18c-.13.13-.32.4-.38.38l-3.29-1.08ZM170.31,251.75a12.36,12.36,0,0,1-3.14,2.69,8.64,8.64,0,0,1-4.45,1.27,8.53,8.53,0,0,1-4.45-1.37,14.8,14.8,0,0,1-3.21-2.72,22.23,22.23,0,0,1-4-6.92,12.21,12.21,0,0,1,.27-8.28,14.51,14.51,0,0,1,4.91-6.12,20,20,0,0,1,6.67-3.22c-3.81,2.91-7.28,6.47-8.29,10.45s.95,7.87,3.81,11.11c1.35,1.61,3,2.76,4.47,2.84s3.31-.79,4.95-2.18c3.25-2.94,5.89-7,8.48-11.11A29.21,29.21,0,0,1,170.31,251.75Zm135.35-33.83c-5.57,2.84-9.87,3.65-13.62,3.27-.79,14.22-4.11,23.92-10.17,29.56-5.31,4.93-13.08,6.87-20.43,6.87a40,40,0,0,1-10.64-1.4A28.29,28.29,0,0,1,231.45,236a9.78,9.78,0,0,1-6.68.79c-15.9-3.65-3-28.82,0-30.15s1.33,4.64,4,8.28c6.49-4.41,6.71-12,11-18.6A40.42,40.42,0,0,1,265,179c5.79-1.23,11.81-1.15,17.58-2.47s11.62-4.45,14-9.88a20.79,20.79,0,0,1-.41,22.42,130.16,130.16,0,0,0,24.45-12.43,36,36,0,0,1-3.18,17c-.9,2-3.72,6.57-5.88,6.63l12.3.11S325.14,208,305.66,217.92Zm106.48-34.23a20,20,0,0,1-5.81,4.57,31.48,31.48,0,0,1-10,3.27l1.86.56a10,10,0,0,1,5.66,5.92,10.3,10.3,0,0,1-1.93,7.94,33.56,33.56,0,0,1-2.57,2.62,28.44,28.44,0,0,1-2.87,2,32.44,32.44,0,0,1-12.67,3.95c3.75-2.29,7.54-4.23,10.69-6.82.77-.65,1.43-1.38,2.18-2s1.17-1.49,1.76-2.2a4.68,4.68,0,0,0-2.08-7.6c-.88-.31-1.72-.72-2.67-1s-2-.42-3-.56a38.8,38.8,0,0,0-7.56-.11,24.57,24.57,0,0,1-2.17,2.26c-1,.73-1.91,1.53-2.93,2.15a29.31,29.31,0,0,1-6.35,2.92,39.11,39.11,0,0,1-6.52,1.52c3.55-2.36,7.63-4.54,10.77-7.24.78-.68,1.45-1.45,2.22-2.12s1.18-1.53,1.77-2.26a6.21,6.21,0,0,0,1-4.41c-.4-1.26-1.68-2.29-3.29-3.13a25.77,25.77,0,0,0-2.78-.86c-1-.1-2-.35-3.1-.44a37.9,37.9,0,0,0-6.64.09l-3.43.35c-.55,0-1.22.15-1.67.17l-1.4.07,1.21-.69c.41-.22,1-.5,1.55-.74a33.73,33.73,0,0,1,3.35-1.31,27.09,27.09,0,0,1,7.18-1.44,31.49,31.49,0,0,1,3.76.06,32.08,32.08,0,0,1,3.79.82c2.43,1,4.94,2.73,5.95,5.72a9.2,9.2,0,0,1-.76,6.1,25.17,25.17,0,0,1,6.28-1,31.49,31.49,0,0,1,3.62.2l.06,0a72.72,72.72,0,0,0,9.83-5.81c.82-.63,1.53-1.35,2.34-2s1.27-1.46,1.9-2.16a6.25,6.25,0,0,0,1.24-4.35c-.33-1.29-1.54-2.38-3.1-3.3-.89-.33-1.75-.77-2.73-1s-2-.48-3.05-.65c-4.26-.59-8.8-.21-13.53,0a33.21,33.21,0,0,1,13.88-3.47,36.46,36.46,0,0,1,3.74.3,31.63,31.63,0,0,1,3.72,1,9.82,9.82,0,0,1,5.62,6.06C415,178.89,413.67,181.58,412.14,183.69ZM571.5,194.81a10.29,10.29,0,0,1-4.67,6.56,30.19,30.19,0,0,1-3.26,1.56,27.62,27.62,0,0,1-3.3.85c-4.4.78-8.66,0-12.76-.9,4.2-.94,8.26-1.21,12-2.49.92-.32,1.78-.77,2.69-1.09s1.59-1,2.38-1.41a6.47,6.47,0,0,0,2.54-3.7,6,6,0,0,0-1.62-4.12c-.69-.61-1.3-1.3-2.08-1.87s-1.63-1.11-2.51-1.61a57.1,57.1,0,0,0-12.08-4.51,28.12,28.12,0,0,1,13.55,1.35,29.58,29.58,0,0,1,3.23,1.52,29.07,29.07,0,0,1,3,2.18A10.18,10.18,0,0,1,571.5,194.81Zm132.67,68a11,11,0,0,1-7.71,2.48,29,29,0,0,1-3.39-.71,25.54,25.54,0,0,1-3-1.28,19.45,19.45,0,0,1-2.61-1.69,27.92,27.92,0,0,1-2.46-1.82,31.09,31.09,0,0,1-4.19-4.32l5.43,2.52c.89.4,1.79.78,2.7,1.12s1.75.75,2.65,1.05,1.8.45,2.67.74,1.78.19,2.65.31a6.45,6.45,0,0,0,4.19-1.4,6.18,6.18,0,0,0,1.3-4.25,27.33,27.33,0,0,0-.44-2.74c-.34-.92-.56-1.88-.93-2.83a21,21,0,0,0-1.33-2.79c-.54-.86-1.12-1.72-1.73-2.57-1.27-1.7-2.57-3.46-3.89-5.24a40.84,40.84,0,0,1,5.54,3.79,23.68,23.68,0,0,1,2.47,2.34,24.56,24.56,0,0,1,2,2.86,31.4,31.4,0,0,1,1.56,3.19,29,29,0,0,1,.94,3.56A9.76,9.76,0,0,1,704.17,262.83ZM764.27,367a25,25,0,0,1-1.23,3.31,9.88,9.88,0,0,1-6.5,4.68,11.37,11.37,0,0,1-7.61-2.06,30.42,30.42,0,0,1-2.38-2.25,22.35,22.35,0,0,1-1.7-2.44,18.29,18.29,0,0,1-2.22-5.27c-.3-1.21-.55-2.45-.74-3.69a11.39,11.39,0,0,1-7.49-1c-.85-.62-1.87-1.2-2.63-1.88a23,23,0,0,1-2-2.19,22.31,22.31,0,0,1-2.78-4.91,39.12,39.12,0,0,1-1.53-5.39c1.29,1.46,2.31,2.94,3.47,4.35a37,37,0,0,0,3.63,3.94c.65.58,1.38,1.06,2,1.63s1.48.84,2.2,1.27a6.88,6.88,0,0,0,4.34.47,6.32,6.32,0,0,0,3.12-3c.27-.8.66-1.59.87-2.46s.36-1.78.47-2.71a25.26,25.26,0,0,0-.14-5.75c-.23-2-.48-4-.85-6a26.68,26.68,0,0,1,3,5.46,18.28,18.28,0,0,1,1.46,6.15,23.9,23.9,0,0,1-.09,3.27,19.2,19.2,0,0,1-.83,3.32,10.49,10.49,0,0,1-5.39,5.17l2,3.16a31,31,0,0,0,3.15,4.41c.63.67,1.28,1.24,1.82,1.9s1.35,1,2,1.57a6.84,6.84,0,0,0,4.24,1.07,6.23,6.23,0,0,0,3.48-2.64c.38-.78.87-1.54,1.19-2.4s.6-1.78.77-2.72a33.86,33.86,0,0,0,.49-5.94c0-2.05-.22-4.13-.3-6.29a31.07,31.07,0,0,1,2.46,6,24.11,24.11,0,0,1,.81,6.53A26.29,26.29,0,0,1,764.27,367Zm-.89-80.71c-2.78,1.49-5.83,1-8.31.14a33.84,33.84,0,0,1-3.35-1.9,31,31,0,0,1-2.82-2.37,37.37,37.37,0,0,1-6.76-8.48c.07.65.11,1.31.17,2a9.6,9.6,0,0,1-3.53,7.36,10.71,10.71,0,0,1-8.18.94,30.9,30.9,0,0,1-3.36-1.45,27.57,27.57,0,0,1-2.86-1.94,33.82,33.82,0,0,1-4.6-4.76,38.25,38.25,0,0,1-3.71-5.3c3.57,2.48,6.92,5.07,10.29,7.17.87.49,1.78.85,2.63,1.33s1.79.57,2.66.87a6.39,6.39,0,0,0,4.46-.55,6.13,6.13,0,0,0,1.92-4.08c0-.94.05-1.89-.07-2.89s-.3-2-.54-3.06a28.79,28.79,0,0,0-2.78-7.23,25.39,25.39,0,0,1-3-1.17,33.55,33.55,0,0,1-3.19-1.9,28.45,28.45,0,0,1-5.24-4.83c-.78-.88-1.45-1.85-2.18-2.75s-1.45-1.82-2.12-2.75a60.21,60.21,0,0,1,5.71,3.8,43.91,43.91,0,0,0,5.56,3.47c1,.47,1.94.81,2.87,1.27s1.92.53,2.85.81c1.84.21,3.51.08,4.56-.73s1.44-2.44,1.52-4.28a29.55,29.55,0,0,0-.39-3c-.34-1-.55-2.08-.91-3.14a45.38,45.38,0,0,0-2.92-6.39,63.55,63.55,0,0,0-3.86-6.31c1,.75,2,1.53,3,2.35a28.93,28.93,0,0,1,2.67,2.75,33,33,0,0,1,4.42,6.42,33.71,33.71,0,0,1,1.57,3.65,30.26,30.26,0,0,1,.89,3.93,9.38,9.38,0,0,1-2.94,7.82,9.07,9.07,0,0,1-6,1.45,24.59,24.59,0,0,1,3.24,5.73,32.93,32.93,0,0,1,1.13,3.57v0a83,83,0,0,0,9.16,7.45c.86.61,1.77,1.08,2.61,1.68s1.79.8,2.66,1.21c1.75.46,3.4.57,4.54-.11s1.76-2.26,2.12-4.1c0-1,.14-2,.06-3.05s-.22-2.17-.41-3.28c-1-4.39-3.27-8.71-5.29-13.35,3.47,3.59,6.92,7.66,8.7,12.63a38.25,38.25,0,0,1,1,3.86,36.42,36.42,0,0,1,.28,4.06C767,281.57,766,284.52,763.38,286.25Zm41.82,61.54a38.62,38.62,0,0,1-.85,4.23c-1,2.64-2.91,5.36-5.94,6.17-3.12.51-5.81-1.09-8-2.77a39.51,39.51,0,0,1-2.7-3c-.74-1.08-1.45-2.16-2.1-3.26a31.72,31.72,0,0,1-3-6.85,52.08,52.08,0,0,1-1.78-7l3.75,6a48.94,48.94,0,0,0,3.8,5.72c.7.87,1.51,1.61,2.14,2.5s1.51,1.39,2.24,2.09c1.57,1.05,3.13,1.72,4.43,1.42s2.33-1.67,3.19-3.41a31.89,31.89,0,0,0,.9-3.08c.14-1.16.34-2.24.42-3.42a48.58,48.58,0,0,0-.23-7.38c-.28-2.49-.71-5-1.06-7.63a49.32,49.32,0,0,1,3.23,7.29,37.27,37.27,0,0,1,1.61,8.1A32.12,32.12,0,0,1,805.2,347.79Z"/><path class="cls-14" d="M860.08,433a42.38,42.38,0,0,0-5.9-15.52c-5.62-8.49-12.7-15.76-18.07-22.82-.36-.47-.7-.95-1-1.42-.11,1-.2,2-.32,3A189,189,0,0,1,823.37,442a20.6,20.6,0,0,1,18.21,2.32,26.87,26.87,0,0,1,7.37,7.38c1.89,2.32,2.7,5.66,3.3,8.58,1.24,6.09.87,10.41,2.9,10.82.5.08,1.11-.45,1.77-1.48a16.36,16.36,0,0,0,1-1.92,26.69,26.69,0,0,0,1-2.83,71.77,71.77,0,0,0,1.84-7.5c.1-1,.16-2,.24-3.22s.16-2.47.21-3.82A76.93,76.93,0,0,0,860.08,433Z"/><path class="cls-15" d="M590,234.61l-.41-.12A135.51,135.51,0,0,1,586,251a117.77,117.77,0,0,1,15.8,3.33c7.09,2.05,14.69,4.55,22.38,7.62,1.4-3.67,2.65-7.39,3.72-11.18Q620.65,246.54,613,243A184.2,184.2,0,0,0,590,234.61Z"/><path class="cls-16" d="M548,249a131.93,131.93,0,0,0-1.09-22.76c-1.75-.19-3.5-.36-5.26-.52-9.54-.85-19.13-1.2-28.73-1.22a136.09,136.09,0,0,1,.94,26.67C525.53,250,537,249.26,548,249Z"/><path class="cls-17" d="M254.5,217.1s.53,4.44,1.61,5.25,7.8-2.42,8.74,3.22-8.34,5.25-8.34,5.25.94,14.11,11.3,12,4-25.68,3.36-26.35C260.15,210,254.5,217.1,254.5,217.1Z"/><path class="cls-18" d="M279.06,310.57c7.22-3.94,10.17,6.21,10.58,5.8,5.39-11,9.75-45.29,9-44.54-7.63,7.87-25.59,9.74-25.72,9.74-6.56,5-13.74,34-21.2,44.33s-18.23,18.85-18.85,18.85c3.94.82,5,7,4.76,7.32a286.47,286.47,0,0,0,41.41-23.69S271.83,314.5,279.06,310.57Z"/><path class="cls-19" d="M256.64,248.27l8.29-7.8c94.15-17.2,295.74-15.36,419.72,2.77V817.4H262.86S255.06,248.27,256.64,248.27Z"/><path class="cls-20" d="M190.6,887c121-22,260.82-20,414.93.46V318.69c-126.17-23.41-274.94-13.25-415.37,0Z"/><path class="cls-21" d="M205.93,318.49l48.91-66.55c125.21-15.68,265.9-12.74,414.65-.12l-64,66.84C483.34,304.08,349.45,306.12,205.93,318.49Z"/><polygon class="cls-20" points="669.99 822.96 605.53 887.42 605.53 318.69 669.56 251.79 669.99 822.96"/><path class="cls-22" d="M592.29,917.2c-122.69-58-261-58-395.31-31.4L189.6,318.72c127.42-.44,273.73-.79,402.69,29.75Z"/><path class="cls-23" d="M550,939.5c-119.45-56.61-262.55-64.86-360-52.25l-.34-568.69c145.27-5.21,263.06,17.8,365.11,56.92Z"/><path class="cls-24" d="M552.51,374.67C515.24,797.14,277.87,819.78,189.88,793.82l.06,93.43c97.49-12.61,240.59-4.36,360,52.25l4.73-564C554,375.2,553.24,375,552.51,374.67Z"/><path class="cls-20" d="M652.06,270.38c-82.31-12.29-250.63-18.76-409.58,4,52.39-3.23,247.23-19.24,399.71,5.82Z"/><path class="cls-20" d="M628,295.19s-208.29-30.31-404.08,3.16c52.39-3.23,191.91-23.44,395.18,6.06Z"/><path class="cls-25" d="M292.82,236.19l-28.21,4c-8.41,5.66-46.74,37.84-75,78.42l19.42.22C233.56,284.46,274.23,247.83,292.82,236.19Z"/><path class="cls-26" d="M480.51,462.54c-58.87-4.69-296.23-64.1-395.85,67.76,35.05,12.59,66,35.88,99.64,51.66,22-25.33,61.26-41.91,108.05-35.44l2.1.29a3.76,3.76,0,0,1-.41.38c-2.55,2.06-7.38,2.47-11.48,2.6s-7.48,0-7.14.62,8.15,2,17.6,3.55,20.66,3,28,2.06c5.58-.7,10.87-1.83,16.32-2.75,12.47,2,25.56,4.06,39.12,6.17a10.6,10.6,0,0,1,1.43,2c1.72,3.24,1.21,7-2,10.14-6.54,6.33-20.93,2.32-20.7,4.44.11,1.05,7.81,3.9,17.63,6,2.37.53,5.23,1,8,1.39a81.71,81.71,0,0,0,8.16.53,65,65,0,0,0,7.58-.46,35.41,35.41,0,0,0,6.47-1.49c12.68-4.38,23-12,36.66-13.41q7.86,1,15.81,2a12.62,12.62,0,0,1,5.18,4.76c2.16,3.67,2.22,8.51-.54,13.35-5.52,9.8-20.75,9-20.27,11.66.24,1.31,8.61,2.66,18.77,2.38s22.11-2.28,29.48-6.88c10.51-6.46,19.25-15,30.09-19.23,9,.61,17.9,1.09,26.77,1.41a22,22,0,0,1,3.66,3c4.07,4.17,6.16,9.93,3.79,16s-7.38,9.44-11.72,11.62-8,3.21-7.63,4.79,8.79,2,18.95.36,22-5.39,28.93-11.52c9.85-8.58,17.64-19.09,27.7-25q11.82-.84,23.2-2.3a14.84,14.84,0,0,1,4,4c2.91,4.25,4.14,10.42,2.58,17.36-3.11,14.08-18.56,17.24-17.5,20.62.51,1.7,9.17,1.09,19.34-2.14a76.59,76.59,0,0,0,15.4-6.77c4.92-3,9.25-6.38,12.19-10.37,1.46-2,2.83-4,4.13-6s2.52-4.13,3.71-6.17c2.39-4,4.55-8.11,6.75-11.81.55-.92,1.11-1.82,1.67-2.68s1.08-1.78,1.63-2.62a45.78,45.78,0,0,1,3.52-4.63,29.94,29.94,0,0,1,3.09-3.08q6.39-2.42,12.41-5.21a14.69,14.69,0,0,1,8.11,3c4.4,3.21,8.19,8.74,9.58,16.13s-1.33,13.5-4.22,18.14c-1.41,2.37-3,4.16-4,5.63s-1.5,2.59-.93,3.36,3.06.25,6.48-1.43a78.14,78.14,0,0,0,12-8.27,83,83,0,0,0,11.8-13.1,45.3,45.3,0,0,0,6.61-15.06,138.51,138.51,0,0,0,1.67-14.8c.36-4.82.66-9.45,1.11-14a48.88,48.88,0,0,1,2.76-12.34,28.39,28.39,0,0,1,1.66-3.73l1.13-1a200.76,200.76,0,0,1-24.06,13,269.08,269.08,0,0,1-55.61,18,393.56,393.56,0,0,1-57.71,7.86,445.84,445.84,0,0,0,57.15-10.24,286.32,286.32,0,0,0,54.35-19.47c17.23-8.46,33.46-19,47.24-32.25a153.73,153.73,0,0,0,26.74-33.71c.05-.88.08-1.75.19-2.61q3.71-6.37,7-12.94l.07-.06c.29-.22.62-.41.94-.62a170.16,170.16,0,0,0,7.14-19.78c-44.53-18.35-92.44-12.88-138.47-15.2C646,492.86,527.59,466.29,480.51,462.54ZM130.88,539.77c1,.83,2.74.91,4.6.69,1-.29,1.93-.46,2.9-.84s1.92-.83,2.93-1.27a48.82,48.82,0,0,0,5.86-3.25l6-3.47a50.55,50.55,0,0,1-4.7,5.24,33.21,33.21,0,0,1-5.56,4.59,34.9,34.9,0,0,1-3.21,1.92c-1.13.57-2.46.93-3.67,1.43-2.56.6-5.69.8-8.3-1-2.43-2-3-5.15-2.87-8.05a26.85,26.85,0,0,1,1.07-4.17,37.1,37.1,0,0,1,1.81-3.89,34.54,34.54,0,0,1,5.21-6.65,44.07,44.07,0,0,1,4.25-3.52c-1.79-2.38-1.71-5.64-.9-8.38a35.62,35.62,0,0,1,2-4.07,28.7,28.7,0,0,1,2.68-3.64,39.83,39.83,0,0,1,14.22-10c-4.14,3.82-8.21,7.49-11,11.72-.7,1.05-1.24,2.08-1.88,3.11s-.81,2.1-1.21,3.11c-.41,2-.37,3.7.47,4.72s2.58,1.35,4.51,1.39c1-.16,2.06-.19,3.12-.44s2.2-.48,3.32-.79c4.47-1.34,8.89-3.41,13.61-5.05a53.73,53.73,0,0,1-12.67,8.44c-1.22.51-2.48,1-3.73,1.45a39.41,39.41,0,0,1-4.06.92c-2.66.13-5.6-.05-7.83-1.93-1.06,1.42-2.1,2.82-3.06,4.22a49.12,49.12,0,0,0-3.63,6.55c-.46,1.09-.71,2.23-1.11,3.3s-.35,2.11-.53,3.13C129.47,537.29,129.86,538.92,130.88,539.77ZM179.76,567c-.79.29-1.62.52-2.45.77a25.34,25.34,0,0,1-2.9.3,12.69,12.69,0,0,1-7.23-2.69,10.23,10.23,0,0,1-3.26-7.12,22.38,22.38,0,0,1,.51-3.21,14.75,14.75,0,0,1,1.19-2.85,19.16,19.16,0,0,1,8.68-7.64c-2.31,3.14-4.58,6-5.71,9.39-.27.83-.43,1.66-.66,2.47a21.16,21.16,0,0,0-.12,2.49,6.6,6.6,0,0,0,1.67,3.93,7.56,7.56,0,0,0,4,1.59c.77,0,1.56.06,2.31,0s1.58-.17,2.34-.32c3-.64,5.8-2,8.85-2.93A18,18,0,0,1,179.76,567ZM250,529.87a25.76,25.76,0,0,1-3.13-.67,26,26,0,0,1-3.16-1.37,10.77,10.77,0,0,1-4.8-6.38,9.4,9.4,0,0,1,1.11-6,22.66,22.66,0,0,1-5.84.32,30,30,0,0,1-3.34-.45l-.05,0a45.71,45.71,0,0,0-9,5.43c-.72.62-1.31,1.37-2,2a25.21,25.21,0,0,0-1.53,2.17,6.23,6.23,0,0,0-.69,4.31,6.9,6.9,0,0,0,3,3.23c.78.32,1.53.75,2.36,1s1.69.47,2.57.66c3.58.75,7.27.58,11.16.85a25.53,25.53,0,0,1-11.2,2.58,23,23,0,0,1-3-.33,28.69,28.69,0,0,1-3.15-1,11,11,0,0,1-5.43-5.74,10.22,10.22,0,0,1,1.08-7.94,24.51,24.51,0,0,1,2.29-2.64,25.85,25.85,0,0,1,2.68-2,23,23,0,0,1,9.27-3l-1.73-.64a10.62,10.62,0,0,1-5.4-6,9.86,9.86,0,0,1,2-7.93,31.45,31.45,0,0,1,2.76-2.55,30,30,0,0,1,3.1-1.91,27.5,27.5,0,0,1,6.69-2.16,39.72,39.72,0,0,1,6.85-.51l-6.17,2.59a39.62,39.62,0,0,0-5.56,3.09c-.84.58-1.56,1.28-2.36,1.88a28.27,28.27,0,0,0-1.88,2.12,6.08,6.08,0,0,0-1.18,4.3,6.43,6.43,0,0,0,2.93,3.38c.83.35,1.62.82,2.51,1.11s1.82.56,2.78.8a37.87,37.87,0,0,0,5.95.82l1.1.08a22.64,22.64,0,0,1,2.25-1.94,28.66,28.66,0,0,1,3-1.7,27,27,0,0,1,12.89-1.89c-4.06,1.54-8,2.84-11.31,5-.82.52-1.52,1.19-2.29,1.73a26.34,26.34,0,0,0-1.86,2,6.27,6.27,0,0,0-1.3,4.21,6.58,6.58,0,0,0,2.61,3.56c.77.41,1.49.92,2.32,1.27s1.7.66,2.6,1c3.62,1.13,7.5,1.36,11.53,2A27.58,27.58,0,0,1,250,529.87Zm19-33.27c-1.15-.21-2.3-.57-3.45-.89a31.07,31.07,0,0,1-3.39-1.56,10.42,10.42,0,0,1-4.71-6.72,9.82,9.82,0,0,1,3.29-7.56,31.46,31.46,0,0,1,3.18-2.18,25.72,25.72,0,0,1,3.43-1.48,32.09,32.09,0,0,1,14.15-1.09c-4.5,1.32-8.89,2.32-12.7,4.29-.94.49-1.77,1.07-2.67,1.56s-1.5,1.26-2.23,1.86a6.1,6.1,0,0,0-1.84,4.13c.14,1.32,1.19,2.57,2.55,3.71.81.46,1.57,1,2.46,1.42s1.83.81,2.8,1.15c3.92,1.33,8.2,1.85,12.58,2.7A33.51,33.51,0,0,1,269.06,496.6Zm100.57-15.11c-1,.33-1.88.78-2.83,1.1s-1.64,1-2.45,1.43a6.16,6.16,0,0,0-2.5,3.73,6.26,6.26,0,0,0,1.81,4.12c.71.6,1.35,1.28,2.14,1.84s1.66,1.09,2.55,1.59c3.61,2,7.75,3.14,11.95,4.68a32.34,32.34,0,0,1-13.38-1.51,28.35,28.35,0,0,1-3.24-1.47,35,35,0,0,1-3-2.15,10.2,10.2,0,0,1-3.33-7.46,9,9,0,0,1,2.85-5.42,26.69,26.69,0,0,1-6.16-1.32,31.11,31.11,0,0,1-3.33-1.42l0,0a61.17,61.17,0,0,0-11.11,2.38c-1,.35-1.86.84-2.79,1.2s-1.62,1-2.42,1.53a6.19,6.19,0,0,0-2.36,3.82,6.31,6.31,0,0,0,2,4c.74.57,1.4,1.23,2.21,1.76s1.69,1,2.6,1.5c3.67,1.87,7.84,2.88,12.07,4.29a32.12,32.12,0,0,1-13.38-1.08,29.72,29.72,0,0,1-3.28-1.34,31.2,31.2,0,0,1-3.11-2,10.28,10.28,0,0,1-3.61-7.34,10,10,0,0,1,4.28-7,19.28,19.28,0,0,1,6.86-2.71,28.88,28.88,0,0,1,10.57,0c-.53-.37-1.05-.76-1.59-1.13a10.2,10.2,0,0,1-3.55-7.41,10,10,0,0,1,4.52-6.91,30.17,30.17,0,0,1,3.46-1.63,30.9,30.9,0,0,1,3.58-.93,32.6,32.6,0,0,1,14,1c-4.57.67-9,1.07-13,2.4-1,.34-1.91.81-2.87,1.15a28.62,28.62,0,0,0-2.49,1.47,6.1,6.1,0,0,0-2.48,3.76c-.08,1.33.74,2.74,1.92,4.09.74.59,1.4,1.27,2.22,1.81s1.71,1.06,2.63,1.55a45.77,45.77,0,0,0,7,2.81,22,22,0,0,1,2.85-1.3,29,29,0,0,1,3.51-.87,31.25,31.25,0,0,1,13.68,1.15C378,479.86,373.59,480.21,369.63,481.49Zm59.55,11.06c-1,.29-1.89.71-2.83,1s-1.67.9-2.49,1.33a4.69,4.69,0,0,0-1,7.81c.68.63,1.29,1.34,2.06,1.93s1.6,1.15,2.46,1.69c3.53,2.12,7.62,3.42,11.77,5.06a31.41,31.41,0,0,1-13.31-1.95,30.37,30.37,0,0,1-3.17-1.6,32.43,32.43,0,0,1-2.93-2.27,8.55,8.55,0,0,1,1.82-14.24,24.8,24.8,0,0,1,20.33-.6C437.44,491.21,433.14,491.41,429.18,492.55Zm72.38,53.63A29,29,0,0,0,503.9,548c.94.47,1.81,1.06,2.78,1.54,4,1.9,8.48,2.87,13.1,4.13a34.23,34.23,0,0,1-14.53-.93,20.44,20.44,0,0,1-6.88-3.56,9.76,9.76,0,0,1-3.55-7.51c.43-3.12,2.54-5.28,4.7-6.8a32,32,0,0,1,3.49-1.6,36.05,36.05,0,0,1,3.56-1,35.65,35.65,0,0,1,13.95.52c-4.52.91-8.94,1.46-13,2.85-1,.36-1.91.83-2.87,1.17s-1.69,1-2.53,1.47c-1.39,1.15-2.44,2.43-2.57,3.75S500.33,544.81,501.56,546.18Zm16.49-53.8c.7.56,1.33,1.21,2.11,1.73s1.62,1,2.5,1.45c3.56,1.77,7.62,2.62,11.8,3.74a27.71,27.71,0,0,1-13-.49,28,28,0,0,1-3.18-1.31,25.53,25.53,0,0,1-3-2,10.35,10.35,0,0,1-3.28-6.84,59.26,59.26,0,0,0-9.7,2.29c-.9.35-1.76.8-2.64,1.13s-1.56,1-2.33,1.44a6.47,6.47,0,0,0-2.43,3.72,6.28,6.28,0,0,0,1.69,4.12c.69.6,1.3,1.28,2.08,1.84s1.61,1.1,2.48,1.58c3.52,1.93,7.62,3,11.82,4.29a28.34,28.34,0,0,1-13.2-1.11,30.53,30.53,0,0,1-3.19-1.47,26.87,26.87,0,0,1-3-2.17,10.08,10.08,0,0,1-3.07-7.52,10.38,10.38,0,0,1,4.47-6.76c1.08-.54,2.14-1.17,3.22-1.58a28.21,28.21,0,0,1,3.26-.89,27.13,27.13,0,0,1,10.52.24,10.73,10.73,0,0,1,4-6.65,31,31,0,0,1,3-1.73,27,27,0,0,1,3.14-1.06,28.34,28.34,0,0,1,12.47.1c-4,1.05-8,1.71-11.54,3.24-.87.39-1.67.88-2.53,1.26s-1.47,1.05-2.2,1.55a6.43,6.43,0,0,0-2.18,3.84A6.2,6.2,0,0,0,518.05,492.38ZM613,541.94a33.58,33.58,0,0,1-3.68-.7,28.15,28.15,0,0,1-3.59-1.46,9.93,9.93,0,0,1-4.88-6.65,9.19,9.19,0,0,1,1.8-5.88,25.52,25.52,0,0,1-6.35-.13,31.26,31.26,0,0,1-3.54-.82l-.06,0a77.65,77.65,0,0,0-10.67,4c-.92.49-1.74,1.08-2.64,1.56s-1.5,1.21-2.24,1.8a6.18,6.18,0,0,0-2,4.07c.1,1.32,1.11,2.61,2.49,3.79.82.47,1.59,1.06,2.51,1.48s1.89.8,2.9,1.14c4.09,1.35,8.63,1.71,13.32,2.32a33,33,0,0,1-14.27,1,28,28,0,0,1-3.63-.92,32.45,32.45,0,0,1-3.49-1.65,9.9,9.9,0,0,1-4.5-6.93c0-3.15,1.74-5.59,3.62-7.4a33.54,33.54,0,0,1,3.15-2.08,36.14,36.14,0,0,1,3.35-1.42A31.34,31.34,0,0,1,591,525.59l-1.74-.86a10,10,0,0,1-4.56-6.8,10.35,10.35,0,0,1,3.26-7.5,33,33,0,0,1,3-2.15,27.73,27.73,0,0,1,3.17-1.51A32.49,32.49,0,0,1,607.33,505c-4.09,1.65-8.16,2.86-11.71,4.9-.87.5-1.65,1.12-2.5,1.61s-1.4,1.27-2.1,1.87a4.67,4.67,0,0,0,.74,7.84c.81.45,1.58,1,2.47,1.4s1.86.76,2.85,1.07a40.2,40.2,0,0,0,7.43,1.4,27.08,27.08,0,0,1,2.52-1.85,29.8,29.8,0,0,1,3.25-1.62,35.13,35.13,0,0,1,13.58-2.19c-4.2,1.8-8.38,3.15-12,5.31-.89.54-1.68,1.18-2.54,1.7s-1.43,1.31-2.14,1.93c-1.11,1.41-1.86,2.85-1.72,4.18s1.25,2.55,2.69,3.64a27.3,27.3,0,0,0,2.59,1.32c1,.28,1.94.7,3,1,4.17,1.09,8.74,1.21,13.48,1.52A32.91,32.91,0,0,1,613,541.94Zm19.53-34.36A26.54,26.54,0,0,1,629,507a29.65,29.65,0,0,1-3.46-1.29,10,10,0,0,1-5-6.45,10.46,10.46,0,0,1,2.53-7.7,31.19,31.19,0,0,1,2.69-2.38,30.25,30.25,0,0,1,2.93-1.72,29.78,29.78,0,0,1,12.44-2.75c-3.76,1.94-7.54,3.5-10.77,5.78-.79.58-1.48,1.26-2.26,1.81s-1.25,1.35-1.88,2a6.32,6.32,0,0,0-1.36,4.24,6.19,6.19,0,0,0,2.74,3.51,26.57,26.57,0,0,0,2.51,1.23c1,.25,1.86.61,2.84.84,4,.93,8.26.81,12.72.94A29.16,29.16,0,0,1,632.5,507.58Zm117.57-82.82a15.88,15.88,0,0,1,.65-2.74,17.16,17.16,0,0,1,.88-2.59,45.43,45.43,0,0,1,2.47-4.81c-.08,1.82-.14,3.67-.37,5.42s-.24,3.57-.26,5.35c0,.89.17,1.77.19,2.66s.33,1.69.47,2.53a6.77,6.77,0,0,0,2.44,3.65,6.05,6.05,0,0,0,4.43.21,18,18,0,0,0,2.53-1.17c.76-.61,1.61-1.12,2.39-1.77a25.08,25.08,0,0,0,4.27-4.71c1.37-1.74,2.45-3.7,3.72-5.67a28.11,28.11,0,0,1-1.84,6.77,30.62,30.62,0,0,1-1.56,3.21,26.28,26.28,0,0,1-2.16,2.9,18.65,18.65,0,0,1-2.65,2.52,27.6,27.6,0,0,1-3.26,1.88,9.43,9.43,0,0,1-8.09-.63,11.69,11.69,0,0,1-4.21-6.76,29.51,29.51,0,0,1-.28-3.26C750,426.76,749.91,425.71,750.07,424.76Zm-61.66,49.29c.79-.77,1.54-1.61,2.37-2.3a27,27,0,0,1,8.25-4.5c-.59-.08-1.18-.19-1.77-.28a10.17,10.17,0,0,1-6.17-5,11.3,11.3,0,0,1-.08-7.92c.51-1,1-2,1.54-2.84a22.27,22.27,0,0,1,1.85-2.29,22,22,0,0,1,9-5.39c-2.24,2.67-4.76,5-6.67,7.89-.48.71-.85,1.5-1.32,2.2s-.62,1.58-1,2.34a6.88,6.88,0,0,0,.1,4.33A6.5,6.5,0,0,0,698,463a24.59,24.59,0,0,0,2.53.54c.89,0,1.8.12,2.73.11a29.31,29.31,0,0,0,6.59-1.15A21.8,21.8,0,0,1,711.1,460a23.45,23.45,0,0,1,1.89-2.53,27.06,27.06,0,0,1,9.29-6.78c-2.22,3.1-4.79,5.81-6.69,9-.44.82-.81,1.66-1.29,2.42s-.59,1.67-.9,2.48a6.71,6.71,0,0,0,.32,4.41,6.1,6.1,0,0,0,3.75,2.33,26.52,26.52,0,0,0,2.74.26c1-.11,1.94-.08,2.91-.24,4-.63,7.87-2.39,11.94-4.19A26.06,26.06,0,0,1,724,474.72a28.48,28.48,0,0,1-3.47.73,24.67,24.67,0,0,1-3.65,0,8.56,8.56,0,0,1-7.65-10.39,18.81,18.81,0,0,1-5.27,1.95,24.88,24.88,0,0,1-3.24.35h-.06a84.67,84.67,0,0,0-7.57,7c-.62.73-1.13,1.53-1.74,2.24s-.9,1.58-1.36,2.34a6.45,6.45,0,0,0-.4,4.42,6.21,6.21,0,0,0,3.41,2.86,25.72,25.72,0,0,0,2.72.66c1,0,1.95.17,3,.18,4.1,0,8.27-1.11,12.65-2.16a27.47,27.47,0,0,1-12.37,5.62,22.11,22.11,0,0,1-3.56.24,27.5,27.5,0,0,1-3.67-.53,9.84,9.84,0,0,1-6.18-5.29,10.74,10.74,0,0,1,.84-8A28.18,28.18,0,0,1,688.41,474.05Z"/><path class="cls-27" d="M560.38,415.39c.53-.16,1-.33,1.54-.51C561.38,415.08,560.88,415.23,560.38,415.39Z"/><path class="cls-28" d="M824.59,481.07c-1.32-5-2.65-9.82-3.56-14.37-.27-1.25-.51-2.47-.73-3.69a163.23,163.23,0,0,1-24.76,28.79c-4,3.64-8.09,7.07-12.35,10.32a17.89,17.89,0,0,1,5.16.84c5.56,1.73,11.24,6,15.39,13.11s3.7,14,2.65,19.63-2.93,9.48-1.16,10.67c.84.56,3-.77,5.62-3.62a75.94,75.94,0,0,0,8.54-12.16,79.45,79.45,0,0,0,6.9-16.9c1.51-6,2.33-11.84,1.48-17.21A156.68,156.68,0,0,0,824.59,481.07Z"/><path d="M957.58,221q12,.47,31.27.92t38.64.46q22.07,0,42.76-.46t29.44-.46q57,0,85.3,20.24t28.29,52q0,16.11-9.66,32.65t-29.89,29.44q-20.25,12.87-52.43,18.85v.92q43.21,3.22,68.52,15.63t36.33,29.9q11,17.48,11,36.33,0,29-15.17,48.75t-43.69,30.12q-28.53,10.35-68.07,10.35-11,0-31.73-.69t-50.12-.69q-20.25,0-39.56.22t-31.27,1.16v-9.2q14.71-.91,22.08-3.68t9.88-11q2.54-8.28,2.53-24.83V269.79q0-17-2.53-25.07a16.54,16.54,0,0,0-10.11-11q-7.59-3-21.85-3.45Zm136.13,9.2q-17.94,0-23.22,7.81t-5.29,31.74v228.1q0,16.11,2.52,24.37t9.2,11q6.66,2.76,20,2.76,33.1,0,48.51-20.92t15.41-59.56q0-35.41-17.7-54.73t-58.64-19.31h-39.09v-7.82H1085q21.62,0,33.11-10.35t16.1-27.59a143.46,143.46,0,0,0,4.6-37q0-34-10.58-51.28T1093.71,230.24Z"/><path d="M1380.67,302.44q33.57,0,58.87,12.41t39.55,40q14.25,27.58,14.25,73.12t-14.25,72.89q-14.27,27.36-39.55,39.78t-58.87,12.41q-32.65,0-58.17-12.41t-40-39.78Q1268,473.52,1268,428t14.49-73.12q14.49-27.6,40-40T1380.67,302.44Zm0,9.2q-18.39,0-30.81,27.36t-12.42,89q0,61.62,12.42,88.75t30.81,27.14q18.86,0,31-27.14T1423.9,428q0-61.62-12.19-89T1380.67,311.64Z"/><path d="M1640.5,302.44q33.55,0,58.86,12.41t39.55,40q14.25,27.58,14.26,73.12t-14.26,72.89q-14.25,27.36-39.55,39.78t-58.86,12.41q-32.65,0-58.17-12.41t-40-39.78q-14.47-27.36-14.48-72.89t14.48-73.12q14.49-27.6,40-40T1640.5,302.44Zm0,9.2q-18.4,0-30.81,27.36t-12.42,89q0,61.62,12.42,88.75t30.81,27.14q18.86,0,31-27.14T1683.73,428q0-61.62-12.19-89T1640.5,311.64Z"/><path d="M1870.43,186.55V503.87q0,19.3,6.21,26.21T1898,537v9.66q-8.74-.45-25.52-1.16t-34.27-.68q-17.92,0-36.1.68t-27.36,1.16V537q16.1,0,22.76-6.9t6.67-26.21V241.74q0-20.7-6.21-30.59t-23.22-9.89v-9.65q14.71,1.38,28.51,1.38,18.86,0,35.87-1.61A247.4,247.4,0,0,0,1870.43,186.55Zm149.93,122.33v9.2A80.79,80.79,0,0,0,1991.85,330a191.81,191.81,0,0,0-29,23.45l-35.41,36.8,4.6-8.74,78.64,131.52a113,113,0,0,0,10.58,14.72,30.76,30.76,0,0,0,13.33,9.2v9.66q-6.9-.45-20.69-1.16t-27.59-.68q-17,0-34,.68t-25.3,1.16V537q9.2,0,12.42-4.37t-.92-11.27L1893,439q-5.52-8.73-10.81-11.26t-14-3V416a78.9,78.9,0,0,0,16.78-3.22,30.81,30.81,0,0,0,13.11-8.74l35-34q15.63-14.71,15.64-26.21t-9.89-18.4q-9.9-6.9-26-7.35v-9.2q12.87.45,28,.92t25.75.46q9.2,0,19.54-.23t19.55-.46C2011.77,309.42,2016.68,309.18,2020.36,308.88Z"/><path d="M2139.47,221v9.2q-9.21,1.38-12.88,6.66t-3,13.8a77.29,77.29,0,0,0,3.91,18.17l70.37,204.19-12.42,16.55,58.86-172,6.44,12.42-72.2,217.53a62.49,62.49,0,0,0-7.82-.47h-16.55a62.38,62.38,0,0,0-7.82.47l-103-287.89q-6-17-14-23t-14.95-6.44V221q13.8.47,32.65.92t35.87.46q18.39,0,32.89-.46T2139.47,221Zm328.36,0v9.2q-10.12,3.69-21.16,15.86T2427.36,285l-81,262.6a62.21,62.21,0,0,0-7.81-.47H2322a62.49,62.49,0,0,0-7.82.47l-96.57-292.49q-4.61-14.25-11.27-19.31a25.66,25.66,0,0,0-14-5.52V221q12.89.47,30.59.92t35.18.46q20.24,0,37.94-.46t28.28-.92v9.2q-13.8.47-21.84,3.22T2293.3,244q-1.15,7.83,4.37,24.84L2363,468.46l-10.58,18.85,52-165.1q11-34.93,10.58-54.72t-10.58-28.28q-10.12-8.51-29-9V221q15.63.47,29.43.92t27.59.46q10.58,0,19.55-.46T2467.83,221Z"/><path d="M2686.27,308.88v9.2q-8.76,2.3-16.56,10.8t-15.18,28.74l-64.84,182.12-17,32.19L2472.42,344.29q-7.83-17.94-15.41-21.85t-13.1-3.91v-9.65q15.16,1.38,31.5,2.07t31.5.69q18.86,0,34.49-.92t29.43-1.84v9.65a123,123,0,0,0-17.24,1.15q-8.06,1.15-11,6.44t2.53,18.17l58,139.8-4.14,2.76,34-95.19q8.73-24.84,7.35-40.71T2630.16,327q-8.74-8-23.92-9v-9.2c4.91.3,10,.54,15.18.69l15.64.46q7.82.23,13.79.23,9.2,0,19.32-.46T2686.27,308.88Zm-96.58,230.86L2572.21,589a140.06,140.06,0,0,1-9.42,19.54A52.37,52.37,0,0,1,2552,621.6a44.62,44.62,0,0,1-16.56,8.5,83.12,83.12,0,0,1-23.45,3,75.89,75.89,0,0,1-22.76-3.68,44.69,44.69,0,0,1-19.55-11.95q-7.83-8.28-7.82-21.16,0-14.25,10.12-22.76t26.67-8.51q15.18,0,24.84,7.36t9.65,21.61a30.18,30.18,0,0,1-5.75,17.48q-5.74,8.28-17.24,12.42a29.14,29.14,0,0,0,5.52.45h5.06a37.2,37.2,0,0,0,24.37-8.73q10.58-8.75,17.48-27.59l16.09-47.37Z"/><path d="M2858.26,302.44q14.72,0,23.91,6.21a37.71,37.71,0,0,1,13.57,15.86,48.63,48.63,0,0,1,4.37,20.24q0,17-9.89,27.82t-26,10.81q-16.11,0-25.07-8.05t-9-21.38q0-12.88,5.75-21.39a53.91,53.91,0,0,1,14.48-14.48,20.59,20.59,0,0,0-12.88.45,37.67,37.67,0,0,0-16.55,7.13,54,54,0,0,0-13.34,14.26,78,78,0,0,0-8.74,18.4,61.38,61.38,0,0,0-3.21,19.08V499.27q0,22.07,10.8,29.89t32.42,7.82v9.66q-10.58-.45-30.81-1.16t-42.31-.68q-18.39,0-37.25.68t-28.51,1.16V537q16.09,0,22.76-6.9t6.67-26.21V359q0-20.69-6.21-30.58t-23.22-9.89v-9.65q14.71,1.38,28.51,1.38,19.32,0,36.1-1.61a248.27,248.27,0,0,0,31-4.83v42.77a83.68,83.68,0,0,1,14.71-22.54,68.44,68.44,0,0,1,21.16-15.86A60.72,60.72,0,0,1,2858.26,302.44Z"/><path d="M3081.76,302.44q19.3,0,31.27,4.83a50.64,50.64,0,0,1,19.31,13.1q7.36,8.75,10.58,22.77t3.22,37V503.87q0,19.3,6,26.21t20.69,6.9v9.66q-8.26-.45-25.06-1.16t-32.88-.68q-16.56,0-32.65.68t-24.38,1.16V537q12.42,0,17.25-6.9t4.83-26.21v-143a96.1,96.1,0,0,0-1.84-20q-1.85-8.5-7.13-13.34t-15.86-4.83a38.36,38.36,0,0,0-22.08,6.9,50,50,0,0,0-16.33,19.09,59.51,59.51,0,0,0-6.2,27.36V503.87q0,19.3,5.06,26.21t17,6.9v9.66q-7.37-.45-22.76-1.16t-31.51-.68q-17.47,0-35.87.68t-27.59,1.16V537q16.09,0,22.77-6.9t6.66-26.21V359q0-20.69-6.2-30.58t-23.23-9.89v-9.65q14.71,1.38,28.51,1.38,19.32,0,36.11-1.61a248.39,248.39,0,0,0,31-4.83v41.39q11-23,29.89-32.88A87.76,87.76,0,0,1,3081.76,302.44Zm138.42,0q19.32,0,31.27,4.83a50.76,50.76,0,0,1,19.32,13.1q7.35,8.75,10.58,22.77t3.22,37V503.87q0,19.3,6.67,26.21T3314,537v9.66q-8.74-.45-26.21-1.16t-34.5-.68q-16.54,0-32.65.68t-24.37,1.16V537q12.42,0,17.25-6.9t4.82-26.21v-143a84.85,84.85,0,0,0-2.07-20,24.35,24.35,0,0,0-7.81-13.34q-5.76-4.83-17.71-4.83a36.73,36.73,0,0,0-22.07,7.36,53.48,53.48,0,0,0-16.33,19.78,65.19,65.19,0,0,0-6.67,27.59l-2.3-28q12.42-27.6,32.88-37.25A101.61,101.61,0,0,1,3220.18,302.44Z"/><path class="cls-29" d="M957.58,221q12,.47,31.27.92t38.64.46q22.07,0,42.76-.46t29.44-.46q57,0,85.3,20.24t28.29,52q0,16.11-9.66,32.65t-29.89,29.44q-20.25,12.87-52.43,18.85v.92q43.21,3.22,68.52,15.63t36.33,29.9q11,17.48,11,36.33,0,29-15.17,48.75t-43.69,30.12q-28.53,10.35-68.07,10.35-11,0-31.73-.69t-50.12-.69q-20.25,0-39.56.22t-31.27,1.16v-9.2q14.71-.91,22.08-3.68t9.88-11q2.54-8.28,2.53-24.83V269.79q0-17-2.53-25.07a16.54,16.54,0,0,0-10.11-11q-7.59-3-21.85-3.45Zm136.13,9.2q-17.94,0-23.22,7.81t-5.29,31.74v228.1q0,16.11,2.52,24.37t9.2,11q6.66,2.76,20,2.76,33.1,0,48.51-20.92t15.41-59.56q0-35.41-17.7-54.73t-58.64-19.31h-39.09v-7.82H1085q21.62,0,33.11-10.35t16.1-27.59a143.46,143.46,0,0,0,4.6-37q0-34-10.58-51.28T1093.71,230.24Z"/><path class="cls-29" d="M1380.67,302.44q33.57,0,58.87,12.41t39.55,40q14.25,27.58,14.25,73.12t-14.25,72.89q-14.27,27.36-39.55,39.78t-58.87,12.41q-32.65,0-58.17-12.41t-40-39.78Q1268,473.52,1268,428t14.49-73.12q14.49-27.6,40-40T1380.67,302.44Zm0,9.2q-18.39,0-30.81,27.36t-12.42,89q0,61.62,12.42,88.75t30.81,27.14q18.86,0,31-27.14T1423.9,428q0-61.62-12.19-89T1380.67,311.64Z"/><path class="cls-29" d="M1640.5,302.44q33.55,0,58.86,12.41t39.55,40q14.25,27.58,14.26,73.12t-14.26,72.89q-14.25,27.36-39.55,39.78t-58.86,12.41q-32.65,0-58.17-12.41t-40-39.78q-14.47-27.36-14.48-72.89t14.48-73.12q14.49-27.6,40-40T1640.5,302.44Zm0,9.2q-18.4,0-30.81,27.36t-12.42,89q0,61.62,12.42,88.75t30.81,27.14q18.86,0,31-27.14T1683.73,428q0-61.62-12.19-89T1640.5,311.64Z"/><path class="cls-29" d="M1870.43,186.55V503.87q0,19.3,6.21,26.21T1898,537v9.66q-8.74-.45-25.52-1.16t-34.27-.68q-17.92,0-36.1.68t-27.36,1.16V537q16.1,0,22.76-6.9t6.67-26.21V241.74q0-20.7-6.21-30.59t-23.22-9.89v-9.65q14.71,1.38,28.51,1.38,18.86,0,35.87-1.61A247.4,247.4,0,0,0,1870.43,186.55Zm149.93,122.33v9.2A80.79,80.79,0,0,0,1991.85,330a191.81,191.81,0,0,0-29,23.45l-35.41,36.8,4.6-8.74,78.64,131.52a113,113,0,0,0,10.58,14.72,30.76,30.76,0,0,0,13.33,9.2v9.66q-6.9-.45-20.69-1.16t-27.59-.68q-17,0-34,.68t-25.3,1.16V537q9.2,0,12.42-4.37t-.92-11.27L1893,439q-5.52-8.73-10.81-11.26t-14-3V416a78.9,78.9,0,0,0,16.78-3.22,30.81,30.81,0,0,0,13.11-8.74l35-34q15.63-14.71,15.64-26.21t-9.89-18.4q-9.9-6.9-26-7.35v-9.2q12.87.45,28,.92t25.75.46q9.2,0,19.54-.23t19.55-.46C2011.77,309.42,2016.68,309.18,2020.36,308.88Z"/><path class="cls-29" d="M2139.47,221v9.2q-9.21,1.38-12.88,6.66t-3,13.8a77.29,77.29,0,0,0,3.91,18.17l70.37,204.19-12.42,16.55,58.86-172,6.44,12.42-72.2,217.53a62.49,62.49,0,0,0-7.82-.47h-16.55a62.38,62.38,0,0,0-7.82.47l-103-287.89q-6-17-14-23t-14.95-6.44V221q13.8.47,32.65.92t35.87.46q18.39,0,32.89-.46T2139.47,221Zm328.36,0v9.2q-10.12,3.69-21.16,15.86T2427.36,285l-81,262.6a62.21,62.21,0,0,0-7.81-.47H2322a62.49,62.49,0,0,0-7.82.47l-96.57-292.49q-4.61-14.25-11.27-19.31a25.66,25.66,0,0,0-14-5.52V221q12.89.47,30.59.92t35.18.46q20.24,0,37.94-.46t28.28-.92v9.2q-13.8.47-21.84,3.22T2293.3,244q-1.15,7.83,4.37,24.84L2363,468.46l-10.58,18.85,52-165.1q11-34.93,10.58-54.72t-10.58-28.28q-10.12-8.51-29-9V221q15.63.47,29.43.92t27.59.46q10.58,0,19.55-.46T2467.83,221Z"/><path class="cls-29" d="M2686.27,308.88v9.2q-8.76,2.3-16.56,10.8t-15.18,28.74l-64.84,182.12-17,32.19L2472.42,344.29q-7.83-17.94-15.41-21.85t-13.1-3.91v-9.65q15.16,1.38,31.5,2.07t31.5.69q18.86,0,34.49-.92t29.43-1.84v9.65a123,123,0,0,0-17.24,1.15q-8.06,1.15-11,6.44t2.53,18.17l58,139.8-4.14,2.76,34-95.19q8.73-24.84,7.35-40.71T2630.16,327q-8.74-8-23.92-9v-9.2c4.91.3,10,.54,15.18.69l15.64.46q7.82.23,13.79.23,9.2,0,19.32-.46T2686.27,308.88Zm-96.58,230.86L2572.21,589a140.06,140.06,0,0,1-9.42,19.54A52.37,52.37,0,0,1,2552,621.6a44.62,44.62,0,0,1-16.56,8.5,83.12,83.12,0,0,1-23.45,3,75.89,75.89,0,0,1-22.76-3.68,44.69,44.69,0,0,1-19.55-11.95q-7.83-8.28-7.82-21.16,0-14.25,10.12-22.76t26.67-8.51q15.18,0,24.84,7.36t9.65,21.61a30.18,30.18,0,0,1-5.75,17.48q-5.74,8.28-17.24,12.42a29.14,29.14,0,0,0,5.52.45h5.06a37.2,37.2,0,0,0,24.37-8.73q10.58-8.75,17.48-27.59l16.09-47.37Z"/><path class="cls-29" d="M2858.26,302.44q14.72,0,23.91,6.21a37.71,37.71,0,0,1,13.57,15.86,48.63,48.63,0,0,1,4.37,20.24q0,17-9.89,27.82t-26,10.81q-16.11,0-25.07-8.05t-9-21.38q0-12.88,5.75-21.39a53.91,53.91,0,0,1,14.48-14.48,20.59,20.59,0,0,0-12.88.45,37.67,37.67,0,0,0-16.55,7.13,54,54,0,0,0-13.34,14.26,78,78,0,0,0-8.74,18.4,61.38,61.38,0,0,0-3.21,19.08V499.27q0,22.07,10.8,29.89t32.42,7.82v9.66q-10.58-.45-30.81-1.16t-42.31-.68q-18.39,0-37.25.68t-28.51,1.16V537q16.09,0,22.76-6.9t6.67-26.21V359q0-20.69-6.21-30.58t-23.22-9.89v-9.65q14.71,1.38,28.51,1.38,19.32,0,36.1-1.61a248.27,248.27,0,0,0,31-4.83v42.77a83.68,83.68,0,0,1,14.71-22.54,68.44,68.44,0,0,1,21.16-15.86A60.72,60.72,0,0,1,2858.26,302.44Z"/><path class="cls-29" d="M3081.76,302.44q19.3,0,31.27,4.83a50.64,50.64,0,0,1,19.31,13.1q7.36,8.75,10.58,22.77t3.22,37V503.87q0,19.3,6,26.21t20.69,6.9v9.66q-8.26-.45-25.06-1.16t-32.88-.68q-16.56,0-32.65.68t-24.38,1.16V537q12.42,0,17.25-6.9t4.83-26.21v-143a96.1,96.1,0,0,0-1.84-20q-1.85-8.5-7.13-13.34t-15.86-4.83a38.36,38.36,0,0,0-22.08,6.9,50,50,0,0,0-16.33,19.09,59.51,59.51,0,0,0-6.2,27.36V503.87q0,19.3,5.06,26.21t17,6.9v9.66q-7.37-.45-22.76-1.16t-31.51-.68q-17.47,0-35.87.68t-27.59,1.16V537q16.09,0,22.77-6.9t6.66-26.21V359q0-20.69-6.2-30.58t-23.23-9.89v-9.65q14.71,1.38,28.51,1.38,19.32,0,36.11-1.61a248.39,248.39,0,0,0,31-4.83v41.39q11-23,29.89-32.88A87.76,87.76,0,0,1,3081.76,302.44Zm138.42,0q19.32,0,31.27,4.83a50.76,50.76,0,0,1,19.32,13.1q7.35,8.75,10.58,22.77t3.22,37V503.87q0,19.3,6.67,26.21T3314,537v9.66q-8.74-.45-26.21-1.16t-34.5-.68q-16.54,0-32.65.68t-24.37,1.16V537q12.42,0,17.25-6.9t4.82-26.21v-143a84.85,84.85,0,0,0-2.07-20,24.35,24.35,0,0,0-7.81-13.34q-5.76-4.83-17.71-4.83a36.73,36.73,0,0,0-22.07,7.36,53.48,53.48,0,0,0-16.33,19.78,65.19,65.19,0,0,0-6.67,27.59l-2.3-28q12.42-27.6,32.88-37.25A101.61,101.61,0,0,1,3220.18,302.44Z"/><text class="cls-30" transform="translate(1154.16 797.04)">Igniting the J<tspan class="cls-31" x="798.91" y="0">o</tspan><tspan x="876.61" y="0">y of Book Sharing</tspan></text></g></g></svg>