<svg xmlns="http://www.w3.org/2000/svg" xmlns:xlink="http://www.w3.org/1999/xlink" viewBox="0 0 1000 1000"><defs><style>.cls-1{isolation:isolate;}.cls-2{fill:url(#linear-gradient);}.cls-3{fill:url(#linear-gradient-9);}.cls-4{fill:url(#linear-gradient-10);}.cls-5{fill:url(#linear-gradient-11);}.cls-6{fill:url(#linear-gradient-12);}.cls-7{fill:url(#linear-gradient-13);}.cls-8{fill:url(#linear-gradient-14);}.cls-9{fill:url(#linear-gradient-15);}.cls-10{fill:url(#linear-gradient-16);}.cls-11{fill:url(#linear-gradient-17);}.cls-12{fill:url(#linear-gradient-18);}.cls-13{fill:url(#linear-gradient-19);}.cls-14{fill:url(#linear-gradient-20);}.cls-15{fill:url(#linear-gradient-21);}.cls-16{fill:url(#linear-gradient-22);}.cls-17{fill:url(#linear-gradient-23);}.cls-18{fill:url(#linear-gradient-24);}.cls-19{fill:url(#linear-gradient-25);}.cls-20{fill:url(#linear-gradient-26);}.cls-21{fill:#fff;}.cls-22{fill:url(#linear-gradient-27);}.cls-23{fill:url(#linear-gradient-28);}.cls-24{fill:url(#linear-gradient-29);}.cls-25{mix-blend-mode:multiply;opacity:0.2;fill:url(#New_Gradient_Swatch_1);}.cls-26{fill:url(#linear-gradient-30);}.cls-27{fill:url(#linear-gradient-31);}.cls-28{fill:url(#linear-gradient-32);}.cls-29{fill:url(#linear-gradient-33);}.cls-30{font-size:45.11px;fill:#0c134f;font-family:Lato-Light, Lato;font-weight:300;}.cls-31{letter-spacing:-0.01em;}</style><linearGradient id="linear-gradient" x1="137.58" y1="842.51" x2="865.4" y2="842.51" gradientUnits="userSpaceOnUse"><stop offset="0" stop-color="#0c134f"/><stop offset="0.75" stop-color="#5c469c"/><stop offset="1" stop-color="#9b7ccf"/></linearGradient><linearGradient id="linear-gradient-9" x1="148.84" y1="578.7" x2="731.98" y2="578.7" gradientUnits="userSpaceOnUse"><stop offset="0" stop-color="#0c134f"/><stop offset="0.73" stop-color="#5c469c"/><stop offset="1" stop-color="#d4adfc"/></linearGradient><linearGradient id="linear-gradient-10" x1="752.01" y1="305.97" x2="851.16" y2="305.97" gradientUnits="userSpaceOnUse"><stop offset="0.83" stop-color="#d4adfc"/><stop offset="1" stop-color="#d4adfc"/></linearGradient><linearGradient id="linear-gradient-11" x1="486.53" y1="193.3" x2="511.61" y2="193.3" xlink:href="#linear-gradient-9"/><linearGradient id="linear-gradient-12" x1="299.48" y1="187.47" x2="342.46" y2="187.47" xlink:href="#linear-gradient-9"/><linearGradient id="linear-gradient-13" x1="412.54" y1="204.83" x2="439.34" y2="204.83" xlink:href="#linear-gradient-9"/><linearGradient id="linear-gradient-14" x1="725.46" y1="211.11" x2="777.05" y2="211.11" xlink:href="#linear-gradient-10"/><linearGradient id="linear-gradient-15" x1="435.14" y1="200.06" x2="463.47" y2="200.06" xlink:href="#linear-gradient-9"/><linearGradient id="linear-gradient-16" x1="459.5" y1="195.97" x2="487.54" y2="195.97" xlink:href="#linear-gradient-9"/><linearGradient id="linear-gradient-17" x1="598.02" y1="219.92" x2="637.92" y2="219.92" xlink:href="#linear-gradient-9"/><linearGradient id="linear-gradient-18" x1="541.13" y1="192.37" x2="567.75" y2="192.37" xlink:href="#linear-gradient-9"/><linearGradient id="linear-gradient-19" x1="385.17" y1="210.47" x2="416.9" y2="210.47" xlink:href="#linear-gradient-9"/><linearGradient id="linear-gradient-20" x1="205.94" y1="189.72" x2="754.09" y2="189.72" xlink:href="#linear-gradient-9"/><linearGradient id="linear-gradient-21" x1="749.18" y1="339.87" x2="778.11" y2="339.87" xlink:href="#linear-gradient-10"/><linearGradient id="linear-gradient-22" x1="568.23" y1="199.65" x2="600.18" y2="199.65" xlink:href="#linear-gradient-9"/><linearGradient id="linear-gradient-23" x1="512.51" y1="191.77" x2="539.33" y2="191.77" xlink:href="#linear-gradient-9"/><linearGradient id="linear-gradient-24" x1="315.52" y1="184.53" x2="330.15" y2="184.53" xlink:href="#linear-gradient-9"/><linearGradient id="linear-gradient-25" x1="299.05" y1="248.24" x2="349.25" y2="248.24" xlink:href="#linear-gradient-9"/><linearGradient id="linear-gradient-26" x1="417.87" y1="583.94" x2="579.01" y2="152.02" gradientUnits="userSpaceOnUse"><stop offset="0" stop-color="#5c469c"/><stop offset="1" stop-color="#d4adfc"/></linearGradient><linearGradient id="linear-gradient-27" x1="573.77" y1="228.26" x2="213.38" y2="220.02" gradientUnits="userSpaceOnUse"><stop offset="0" stop-color="#1d267d"/><stop offset="1" stop-color="#fcd4ad"/></linearGradient><linearGradient id="linear-gradient-28" x1="432.58" y1="271.49" x2="403.91" y2="733.08" xlink:href="#linear-gradient-27"/><linearGradient id="linear-gradient-29" x1="227.17" y1="489.67" x2="505.5" y2="489.67" gradientTransform="translate(38.88)" xlink:href="#linear-gradient-26"/><linearGradient id="New_Gradient_Swatch_1" x1="266.27" y1="511.34" x2="544.38" y2="511.34" gradientUnits="userSpaceOnUse"><stop offset="0" stop-color="#ea5634"/><stop offset="1" stop-color="#dd1db9"/></linearGradient><linearGradient id="linear-gradient-30" x1="266.06" y1="221.97" x2="344.74" y2="221.97" xlink:href="#linear-gradient-26"/><linearGradient id="linear-gradient-31" x1="186.05" y1="402.15" x2="748.02" y2="402.15" xlink:href="#linear-gradient-9"/><linearGradient id="linear-gradient-32" x1="548.7" y1="326.9" x2="549.87" y2="326.9" gradientUnits="userSpaceOnUse"><stop offset="0" stop-color="#811993"/><stop offset="1" stop-color="#cc1da2"/></linearGradient><linearGradient id="linear-gradient-33" x1="718.55" y1="395.22" x2="752.79" y2="395.22" xlink:href="#linear-gradient-10"/></defs><g class="cls-1"><g id="Layer_1" data-name="Layer 1"><path d="M137.58,784.2c2.46.1,5.68.19,9.66.29s8,.14,11.93.14q6.83,0,13.21-.14t9.09-.15q17.61,0,26.35,6.25t8.74,16.06a20,20,0,0,1-3,10.08,27.34,27.34,0,0,1-9.24,9.09q-6.26,4-16.19,5.82v.29q13.35,1,21.16,4.83T220.54,846a20.74,20.74,0,0,1,3.4,11.22q0,9-4.68,15.06t-13.5,9.3a61.75,61.75,0,0,1-21,3.2q-3.41,0-9.8-.21t-15.48-.22q-6.26,0-12.22.07t-9.66.36v-2.84a25.06,25.06,0,0,0,6.82-1.14,4.93,4.93,0,0,0,3-3.41,28,28,0,0,0,.79-7.67V799.26a28,28,0,0,0-.79-7.74,5.12,5.12,0,0,0-3.12-3.41,21.06,21.06,0,0,0-6.75-1.07Zm42,2.84q-5.55,0-7.18,2.42t-1.63,9.8v70.45a27.39,27.39,0,0,0,.78,7.53,5,5,0,0,0,2.84,3.41,17,17,0,0,0,6.18.85q10.23,0,15-6.46t4.76-18.4q0-10.93-5.47-16.9t-18.11-6H164.71v-2.42h12.22q6.67,0,10.23-3.19a17.19,17.19,0,0,0,5-8.53,44.51,44.51,0,0,0,1.42-11.43q0-10.51-3.27-15.84T179.63,787Z"/><path d="M268.26,809.34a40.75,40.75,0,0,1,18.18,3.84,27.14,27.14,0,0,1,12.22,12.36q4.39,8.52,4.4,22.58t-4.4,22.52a27.15,27.15,0,0,1-12.22,12.28,44.46,44.46,0,0,1-36.15,0,27.48,27.48,0,0,1-12.36-12.28q-4.47-8.46-4.47-22.52t4.47-22.58a27.47,27.47,0,0,1,12.36-12.36A40.55,40.55,0,0,1,268.26,809.34Zm0,2.84q-5.68,0-9.52,8.46t-3.83,27.48q0,19,3.83,27.42t9.52,8.38q5.82,0,9.59-8.38t3.76-27.42q0-19-3.76-27.48T268.26,812.18Z"/><path d="M348.51,809.34a40.72,40.72,0,0,1,18.18,3.84,27.14,27.14,0,0,1,12.22,12.36q4.39,8.52,4.4,22.58t-4.4,22.52a27.15,27.15,0,0,1-12.22,12.28,44.46,44.46,0,0,1-36.15,0,27.41,27.41,0,0,1-12.35-12.28q-4.49-8.46-4.48-22.52t4.48-22.58a27.4,27.4,0,0,1,12.35-12.36A40.55,40.55,0,0,1,348.51,809.34Zm0,2.84q-5.68,0-9.51,8.46t-3.84,27.48q0,19,3.84,27.42t9.51,8.38q5.82,0,9.59-8.38t3.77-27.42q0-19-3.77-27.48T348.51,812.18Z"/><path d="M419.53,773.55v98c0,4,.64,6.67,1.92,8.1s3.48,2.13,6.61,2.13v3l-7.89-.36c-3.46-.14-7-.21-10.58-.21s-7.41.07-11.15.21l-8.45.36v-3c3.31,0,5.66-.71,7-2.13s2.06-4.12,2.06-8.1v-81c0-4.26-.64-7.4-1.92-9.44s-3.67-3.06-7.17-3.06v-3q4.54.43,8.8.43,5.83,0,11.08-.5A76.77,76.77,0,0,0,419.53,773.55Zm46.31,37.78v2.84a25,25,0,0,0-8.81,3.7,59.25,59.25,0,0,0-8.95,7.24l-10.93,11.36,1.42-2.69,24.29,40.62a35.34,35.34,0,0,0,3.26,4.54,9.54,9.54,0,0,0,4.12,2.85v3l-6.39-.36q-4.26-.21-8.52-.21-5.26,0-10.51.21c-3.51.15-6.11.27-7.82.36v-3q2.85,0,3.84-1.35c.66-.9.57-2.06-.29-3.48l-14.06-25.43a9,9,0,0,0-3.34-3.48,11.44,11.44,0,0,0-4.33-.92v-2.7a24.27,24.27,0,0,0,5.19-1,9.63,9.63,0,0,0,4.05-2.69l10.79-10.52q4.83-4.54,4.83-8.09a6.61,6.61,0,0,0-3.05-5.68,14.59,14.59,0,0,0-8-2.28v-2.84c2.65.1,5.54.19,8.67.29s5.77.14,8,.14c1.89,0,3.91,0,6-.07l6-.14C463.19,811.5,464.7,811.43,465.84,811.33Z"/><path d="M502.63,784.2V787a5.63,5.63,0,0,0-4,2.06,6.37,6.37,0,0,0-.92,4.26,23.32,23.32,0,0,0,1.21,5.61L520.67,862l-3.84,5.12L535,814l2,3.84-22.3,67.18a20.44,20.44,0,0,0-2.41-.14h-5.12a20.44,20.44,0,0,0-2.41.14l-31.82-88.92c-1.23-3.5-2.68-5.87-4.33-7.1a9,9,0,0,0-4.62-2V784.2c2.84.1,6.2.19,10.09.29s7.57.14,11.08.14c3.78,0,7.17,0,10.15-.14S500.73,784.3,502.63,784.2Zm101.42,0V787a17.45,17.45,0,0,0-6.54,4.9q-3.4,3.76-6,12l-25,81.1a20.48,20.48,0,0,0-2.42-.14H559a20.61,20.61,0,0,0-2.42.14l-29.82-90.34q-1.42-4.4-3.48-6A8,8,0,0,0,519,787V784.2c2.65.1,5.8.19,9.45.29s7.27.14,10.87.14c4.16,0,8.07,0,11.71-.14s6.56-.19,8.74-.29V787a24.1,24.1,0,0,0-6.75,1,3.89,3.89,0,0,0-2.84,3.26c-.24,1.62.21,4.17,1.35,7.67l20.17,61.65-3.27,5.83,16.05-51q3.42-10.79,3.27-16.9t-3.27-8.74q-3.12-2.62-8.94-2.77V784.2l9.09.29q4.26.13,8.52.14,3.27,0,6-.14C601,784.39,602.63,784.3,604.05,784.2Z"/><path d="M671.52,811.33v2.84a10.8,10.8,0,0,0-5.12,3.34q-2.42,2.63-4.69,8.88l-20,56.25-5.26,9.94-31-70.31c-1.62-3.69-3.2-5.94-4.76-6.75a9.26,9.26,0,0,0-4.05-1.2v-3c3.12.29,6.37.5,9.73.64s6.6.21,9.73.21q5.82,0,10.65-.28t9.09-.57v3a38.64,38.64,0,0,0-5.32.35,4.32,4.32,0,0,0-3.41,2q-.93,1.64.78,5.61l17.9,43.18-1.28.85L655,836.9q2.7-7.67,2.27-12.57c-.28-3.27-1.33-5.73-3.12-7.39a11.64,11.64,0,0,0-7.39-2.77v-2.84c1.51.1,3.08.17,4.69.22l4.83.14c1.61,0,3,.07,4.26.07q2.83,0,6-.14C668.63,811.52,670.28,811.43,671.52,811.33Zm-29.83,71.31-5.4,15.2a43.22,43.22,0,0,1-2.91,6,16.13,16.13,0,0,1-3.34,4,13.78,13.78,0,0,1-5.11,2.63,25.91,25.91,0,0,1-7.25.92,23.65,23.65,0,0,1-7-1.13,13.84,13.84,0,0,1-6-3.7,9.11,9.11,0,0,1-2.41-6.53,8.71,8.71,0,0,1,3.12-7,14.16,14.16,0,0,1,15.91-.36,7.88,7.88,0,0,1,3,6.68,9.36,9.36,0,0,1-1.77,5.4,10.64,10.64,0,0,1-5.33,3.83,9.29,9.29,0,0,0,1.71.14h1.56a11.53,11.53,0,0,0,7.53-2.69c2.17-1.8,4-4.65,5.4-8.53l5-14.63Z"/><path d="M724.64,809.34a13,13,0,0,1,7.39,1.92,11.62,11.62,0,0,1,4.18,4.9,15,15,0,0,1,1.35,6.25,12.23,12.23,0,0,1-3,8.6,10.38,10.38,0,0,1-8,3.33c-3.32,0-5.9-.82-7.75-2.48a8.47,8.47,0,0,1-2.77-6.61,11.48,11.48,0,0,1,1.78-6.6,16.85,16.85,0,0,1,4.47-4.48,6.35,6.35,0,0,0-4,.15,11.53,11.53,0,0,0-5.12,2.2,16.67,16.67,0,0,0-4.12,4.4,24.28,24.28,0,0,0-2.69,5.68,18.83,18.83,0,0,0-1,5.9v37.64q0,6.81,3.34,9.23t10,2.42v3l-9.51-.36q-6.25-.21-13.07-.21-5.69,0-11.51.21l-8.8.36v-3q5,0,7-2.13c1.37-1.43,2.06-4.12,2.06-8.1V826.82c0-4.27-.64-7.41-1.92-9.45s-3.67-3-7.17-3v-3q4.54.43,8.8.43,6,0,11.15-.5a77.32,77.32,0,0,0,9.59-1.49V823a25.81,25.81,0,0,1,4.55-7,21.12,21.12,0,0,1,6.53-4.9A18.82,18.82,0,0,1,724.64,809.34Z"/><path d="M793.67,809.34a26,26,0,0,1,9.66,1.5,15.6,15.6,0,0,1,6,4,16.38,16.38,0,0,1,3.27,7,53,53,0,0,1,1,11.43v38.21c0,4,.61,6.67,1.84,8.1s3.36,2.13,6.39,2.13v3q-2.55-.13-7.74-.36c-3.45-.14-6.84-.21-10.15-.21s-6.77.07-10.09.21l-7.53.36v-3q3.84,0,5.33-2.13c1-1.43,1.49-4.12,1.49-8.1V827.38a29.56,29.56,0,0,0-.57-6.18,7.59,7.59,0,0,0-2.2-4.12,7.07,7.07,0,0,0-4.9-1.49,11.88,11.88,0,0,0-6.82,2.13,15.48,15.48,0,0,0-5,5.9,18.34,18.34,0,0,0-1.92,8.45v39.49c0,4,.52,6.67,1.57,8.1s2.79,2.13,5.25,2.13v3c-1.51-.09-3.86-.21-7-.36s-6.42-.21-9.73-.21q-5.4,0-11.08.21t-8.52.36v-3c3.31,0,5.66-.71,7-2.13s2.06-4.12,2.06-8.1V826.82c0-4.27-.64-7.41-1.92-9.45s-3.67-3-7.17-3v-3q4.54.43,8.81.43,6,0,11.15-.5a77.15,77.15,0,0,0,9.58-1.49v12.78q3.42-7.09,9.24-10.15A27,27,0,0,1,793.67,809.34Zm42.76,0a26,26,0,0,1,9.65,1.5,15.64,15.64,0,0,1,6,4,16.62,16.62,0,0,1,3.27,7,53.12,53.12,0,0,1,1,11.43v38.21c0,4,.69,6.67,2.06,8.1s3.72,2.13,7,2.13v3l-8.09-.36c-3.6-.14-7.16-.21-10.66-.21s-6.77.07-10.08.21l-7.53.36v-3c2.56,0,4.33-.71,5.33-2.13s1.49-4.12,1.49-8.1V827.38a26.8,26.8,0,0,0-.64-6.18,7.53,7.53,0,0,0-2.42-4.12q-1.77-1.49-5.47-1.49a11.3,11.3,0,0,0-6.81,2.28,16.47,16.47,0,0,0-5,6.1,20.42,20.42,0,0,0-2.06,8.53l-.71-8.67q3.84-8.52,10.16-11.5A31.38,31.38,0,0,1,836.43,809.34Z"/><path class="cls-2" d="M137.58,784.2c2.46.1,5.68.19,9.66.29s8,.14,11.93.14q6.83,0,13.21-.14t9.09-.15q17.61,0,26.35,6.25t8.74,16.06a20,20,0,0,1-3,10.08,27.34,27.34,0,0,1-9.24,9.09q-6.26,4-16.19,5.82v.29q13.35,1,21.16,4.83T220.54,846a20.74,20.74,0,0,1,3.4,11.22q0,9-4.68,15.06t-13.5,9.3a61.75,61.75,0,0,1-21,3.2q-3.41,0-9.8-.21t-15.48-.22q-6.26,0-12.22.07t-9.66.36v-2.84a25.06,25.06,0,0,0,6.82-1.14,4.93,4.93,0,0,0,3-3.41,28,28,0,0,0,.79-7.67V799.26a28,28,0,0,0-.79-7.74,5.12,5.12,0,0,0-3.12-3.41,21.06,21.06,0,0,0-6.75-1.07Zm42,2.84q-5.55,0-7.18,2.42t-1.63,9.8v70.45a27.39,27.39,0,0,0,.78,7.53,5,5,0,0,0,2.84,3.41,17,17,0,0,0,6.18.85q10.23,0,15-6.46t4.76-18.4q0-10.93-5.47-16.9t-18.11-6H164.71v-2.42h12.22q6.67,0,10.23-3.19a17.19,17.19,0,0,0,5-8.53,44.51,44.51,0,0,0,1.42-11.43q0-10.51-3.27-15.84T179.63,787Z"/><path class="cls-2" d="M268.26,809.34a40.75,40.75,0,0,1,18.18,3.84,27.14,27.14,0,0,1,12.22,12.36q4.39,8.52,4.4,22.58t-4.4,22.52a27.15,27.15,0,0,1-12.22,12.28,44.46,44.46,0,0,1-36.15,0,27.48,27.48,0,0,1-12.36-12.28q-4.47-8.46-4.47-22.52t4.47-22.58a27.47,27.47,0,0,1,12.36-12.36A40.55,40.55,0,0,1,268.26,809.34Zm0,2.84q-5.68,0-9.52,8.46t-3.83,27.48q0,19,3.83,27.42t9.52,8.38q5.82,0,9.59-8.38t3.76-27.42q0-19-3.76-27.48T268.26,812.18Z"/><path class="cls-2" d="M348.51,809.34a40.72,40.72,0,0,1,18.18,3.84,27.14,27.14,0,0,1,12.22,12.36q4.39,8.52,4.4,22.58t-4.4,22.52a27.15,27.15,0,0,1-12.22,12.28,44.46,44.46,0,0,1-36.15,0,27.41,27.41,0,0,1-12.35-12.28q-4.49-8.46-4.48-22.52t4.48-22.58a27.4,27.4,0,0,1,12.35-12.36A40.55,40.55,0,0,1,348.51,809.34Zm0,2.84q-5.68,0-9.51,8.46t-3.84,27.48q0,19,3.84,27.42t9.51,8.38q5.82,0,9.59-8.38t3.77-27.42q0-19-3.77-27.48T348.51,812.18Z"/><path class="cls-2" d="M419.53,773.55v98c0,4,.64,6.67,1.92,8.1s3.48,2.13,6.61,2.13v3l-7.89-.36c-3.46-.14-7-.21-10.58-.21s-7.41.07-11.15.21l-8.45.36v-3c3.31,0,5.66-.71,7-2.13s2.06-4.12,2.06-8.1v-81c0-4.26-.64-7.4-1.92-9.44s-3.67-3.06-7.17-3.06v-3q4.54.43,8.8.43,5.83,0,11.08-.5A76.77,76.77,0,0,0,419.53,773.55Zm46.31,37.78v2.84a25,25,0,0,0-8.81,3.7,59.25,59.25,0,0,0-8.95,7.24l-10.93,11.36,1.42-2.69,24.29,40.62a35.34,35.34,0,0,0,3.26,4.54,9.54,9.54,0,0,0,4.12,2.85v3l-6.39-.36q-4.26-.21-8.52-.21-5.26,0-10.51.21c-3.51.15-6.11.27-7.82.36v-3q2.85,0,3.84-1.35c.66-.9.57-2.06-.29-3.48l-14.06-25.43a9,9,0,0,0-3.34-3.48,11.44,11.44,0,0,0-4.33-.92v-2.7a24.27,24.27,0,0,0,5.19-1,9.63,9.63,0,0,0,4.05-2.69l10.79-10.52q4.83-4.54,4.83-8.09a6.61,6.61,0,0,0-3.05-5.68,14.59,14.59,0,0,0-8-2.28v-2.84c2.65.1,5.54.19,8.67.29s5.77.14,8,.14c1.89,0,3.91,0,6-.07l6-.14C463.19,811.5,464.7,811.43,465.84,811.33Z"/><path class="cls-2" d="M502.63,784.2V787a5.63,5.63,0,0,0-4,2.06,6.37,6.37,0,0,0-.92,4.26,23.32,23.32,0,0,0,1.21,5.61L520.67,862l-3.84,5.12L535,814l2,3.84-22.3,67.18a20.44,20.44,0,0,0-2.41-.14h-5.12a20.44,20.44,0,0,0-2.41.14l-31.82-88.92c-1.23-3.5-2.68-5.87-4.33-7.1a9,9,0,0,0-4.62-2V784.2c2.84.1,6.2.19,10.09.29s7.57.14,11.08.14c3.78,0,7.17,0,10.15-.14S500.73,784.3,502.63,784.2Zm101.42,0V787a17.45,17.45,0,0,0-6.54,4.9q-3.4,3.76-6,12l-25,81.1a20.48,20.48,0,0,0-2.42-.14H559a20.61,20.61,0,0,0-2.42.14l-29.82-90.34q-1.42-4.4-3.48-6A8,8,0,0,0,519,787V784.2c2.65.1,5.8.19,9.45.29s7.27.14,10.87.14c4.16,0,8.07,0,11.71-.14s6.56-.19,8.74-.29V787a24.1,24.1,0,0,0-6.75,1,3.89,3.89,0,0,0-2.84,3.26c-.24,1.62.21,4.17,1.35,7.67l20.17,61.65-3.27,5.83,16.05-51q3.42-10.79,3.27-16.9t-3.27-8.74q-3.12-2.62-8.94-2.77V784.2l9.09.29q4.26.13,8.52.14,3.27,0,6-.14C601,784.39,602.63,784.3,604.05,784.2Z"/><path class="cls-2" d="M671.52,811.33v2.84a10.8,10.8,0,0,0-5.12,3.34q-2.42,2.63-4.69,8.88l-20,56.25-5.26,9.94-31-70.31c-1.62-3.69-3.2-5.94-4.76-6.75a9.26,9.26,0,0,0-4.05-1.2v-3c3.12.29,6.37.5,9.73.64s6.6.21,9.73.21q5.82,0,10.65-.28t9.09-.57v3a38.64,38.64,0,0,0-5.32.35,4.32,4.32,0,0,0-3.41,2q-.93,1.64.78,5.61l17.9,43.18-1.28.85L655,836.9q2.7-7.67,2.27-12.57c-.28-3.27-1.33-5.73-3.12-7.39a11.64,11.64,0,0,0-7.39-2.77v-2.84c1.51.1,3.08.17,4.69.22l4.83.14c1.61,0,3,.07,4.26.07q2.83,0,6-.14C668.63,811.52,670.28,811.43,671.52,811.33Zm-29.83,71.31-5.4,15.2a43.22,43.22,0,0,1-2.91,6,16.13,16.13,0,0,1-3.34,4,13.78,13.78,0,0,1-5.11,2.63,25.91,25.91,0,0,1-7.25.92,23.65,23.65,0,0,1-7-1.13,13.84,13.84,0,0,1-6-3.7,9.11,9.11,0,0,1-2.41-6.53,8.71,8.71,0,0,1,3.12-7,14.16,14.16,0,0,1,15.91-.36,7.88,7.88,0,0,1,3,6.68,9.36,9.36,0,0,1-1.77,5.4,10.64,10.64,0,0,1-5.33,3.83,9.29,9.29,0,0,0,1.71.14h1.56a11.53,11.53,0,0,0,7.53-2.69c2.17-1.8,4-4.65,5.4-8.53l5-14.63Z"/><path class="cls-2" d="M724.64,809.34a13,13,0,0,1,7.39,1.92,11.62,11.62,0,0,1,4.18,4.9,15,15,0,0,1,1.35,6.25,12.23,12.23,0,0,1-3,8.6,10.38,10.38,0,0,1-8,3.33c-3.32,0-5.9-.82-7.75-2.48a8.47,8.47,0,0,1-2.77-6.61,11.48,11.48,0,0,1,1.78-6.6,16.85,16.85,0,0,1,4.47-4.48,6.35,6.35,0,0,0-4,.15,11.53,11.53,0,0,0-5.12,2.2,16.67,16.67,0,0,0-4.12,4.4,24.28,24.28,0,0,0-2.69,5.68,18.83,18.83,0,0,0-1,5.9v37.64q0,6.81,3.34,9.23t10,2.42v3l-9.51-.36q-6.25-.21-13.07-.21-5.69,0-11.51.21l-8.8.36v-3q5,0,7-2.13c1.37-1.43,2.06-4.12,2.06-8.1V826.82c0-4.27-.64-7.41-1.92-9.45s-3.67-3-7.17-3v-3q4.54.43,8.8.43,6,0,11.15-.5a77.32,77.32,0,0,0,9.59-1.49V823a25.81,25.81,0,0,1,4.55-7,21.12,21.12,0,0,1,6.53-4.9A18.82,18.82,0,0,1,724.64,809.34Z"/><path class="cls-2" d="M793.67,809.34a26,26,0,0,1,9.66,1.5,15.6,15.6,0,0,1,6,4,16.38,16.38,0,0,1,3.27,7,53,53,0,0,1,1,11.43v38.21c0,4,.61,6.67,1.84,8.1s3.36,2.13,6.39,2.13v3q-2.55-.13-7.74-.36c-3.45-.14-6.84-.21-10.15-.21s-6.77.07-10.09.21l-7.53.36v-3q3.84,0,5.33-2.13c1-1.43,1.49-4.12,1.49-8.1V827.38a29.56,29.56,0,0,0-.57-6.18,7.59,7.59,0,0,0-2.2-4.12,7.07,7.07,0,0,0-4.9-1.49,11.88,11.88,0,0,0-6.82,2.13,15.48,15.48,0,0,0-5,5.9,18.34,18.34,0,0,0-1.92,8.45v39.49c0,4,.52,6.67,1.57,8.1s2.79,2.13,5.25,2.13v3c-1.51-.09-3.86-.21-7-.36s-6.42-.21-9.73-.21q-5.4,0-11.08.21t-8.52.36v-3c3.31,0,5.66-.71,7-2.13s2.06-4.12,2.06-8.1V826.82c0-4.27-.64-7.41-1.92-9.45s-3.67-3-7.17-3v-3q4.54.43,8.81.43,6,0,11.15-.5a77.15,77.15,0,0,0,9.58-1.49v12.78q3.42-7.09,9.24-10.15A27,27,0,0,1,793.67,809.34Zm42.76,0a26,26,0,0,1,9.65,1.5,15.64,15.64,0,0,1,6,4,16.62,16.62,0,0,1,3.27,7,53.12,53.12,0,0,1,1,11.43v38.21c0,4,.69,6.67,2.06,8.1s3.72,2.13,7,2.13v3l-8.09-.36c-3.6-.14-7.16-.21-10.66-.21s-6.77.07-10.08.21l-7.53.36v-3c2.56,0,4.33-.71,5.33-2.13s1.49-4.12,1.49-8.1V827.38a26.8,26.8,0,0,0-.64-6.18,7.53,7.53,0,0,0-2.42-4.12q-1.77-1.49-5.47-1.49a11.3,11.3,0,0,0-6.81,2.28,16.47,16.47,0,0,0-5,6.1,20.42,20.42,0,0,0-2.06,8.53l-.71-8.67q3.84-8.52,10.16-11.5A31.38,31.38,0,0,1,836.43,809.34Z"/><path class="cls-3" d="M183.51,418.63C153.73,461.91,161,534.26,206.32,581.69c21.35-20.33,45.6-4.64,42-5.84h0l-.78-.21c-7.22-2-13.71-2-20.1.5-5.13,2-10.2,5.62-15.52,11l0,0h0c-.48.6-1,1.2-1.42,1.84-9.35,12.91,15.42,14.8,21.79,32.24s14.85,28,8.7,33.1-22.94,14.32-29.08,9.35-5.39-14-7.45-19-7.12-6.7-8.58-11,1.09-8.49-4.71-10.66-17.53-3.53-22.2,4.15c-.21,2.58,9.3-.79,10.53,1.65s-.83,5.26,1.94,8,16,4.32,10.53,11.15-11,1.31-17-2.12-23.23-1.4-26,16.61c-.18,3.66,8.83-7.83,11.8-6s2.71,5,6.39,4.56,6.42-3.31,11.48-1,7.54,3.1,3.92,6.32S171,671.84,166.2,670s-12.82,16.29-4.71,25.82c2.9.25,3-10.54,4.51-11.32s3.76,3.3,6.65,1.33,8.48-12.83,14.53-10.51a60.4,60.4,0,0,1,16.35,9.94c3.75,3.3,14.05-6.37,19.76-6.3s26.35-8.75,32.91-7.82,13.38-2.38,14.89-9.94-2.12-6-6-13.12c-3.4-6.28-10.74-24-9.71-32.71.93.4,1.86.79,2.81,1.17C347.72,652.1,511.3,578,511.3,578s54.87-21.67,104.43-10.71a7,7,0,0,1,.65-.36,5.17,5.17,0,0,0,2-2.59,5.11,5.11,0,0,0-.69-3.28,12.31,12.31,0,0,0-1.23-1.55c-.54-.4-1-.9-1.58-1.32a24.23,24.23,0,0,0-3.75-2.19l-2.06-1-2.16-.82c.78-.06,1.56-.1,2.35-.1a23.16,23.16,0,0,1,2.33.29,16.69,16.69,0,0,1,4.54,1.45,13.29,13.29,0,0,1,2.09,1.32,20.64,20.64,0,0,1,1.79,1.93,7.88,7.88,0,0,1,1.25,5.53l2.85-.09a24.64,24.64,0,0,0,4.12-.23c.67-.11,1.33-.33,2-.44s1.25-.49,1.86-.72a5.28,5.28,0,0,0,2.39-2.33,4.66,4.66,0,0,0-.37-3.32,17.63,17.63,0,0,0-1.13-1.68c-.51-.49-1-1.07-1.49-1.57a23.6,23.6,0,0,0-3.66-2.74l-4.22-2.26a28.18,28.18,0,0,1,4.88.72,18.43,18.43,0,0,1,4.56,2.15,20.8,20.8,0,0,1,2,1.6,12.43,12.43,0,0,1,1.68,2.13,7.74,7.74,0,0,1,.55,6.12,8.4,8.4,0,0,1-4.38,4.13c-.81.18-1.63.48-2.44.64a17.28,17.28,0,0,1-2.34.19,13.7,13.7,0,0,1-4.32-.75,18.68,18.68,0,0,1-2.73-.93,7.74,7.74,0,0,1-1.73,2.89c26.45,6.76,50.94,23.3,64.18,58,.91,2.37,1.71,4.69,2.46,7l.51.32a4,4,0,0,0,5.85-1.37,16.22,16.22,0,0,0,.83-1.73c.14-.64.39-1.27.54-2a19,19,0,0,0,.36-4.22c0-.25,0-.51-.05-.76a15.4,15.4,0,0,1-1.69-1.31,18.36,18.36,0,0,1-1.57-1.78,20.84,20.84,0,0,1-2.23-3.89,32.44,32.44,0,0,1-1.3-4.17c1,1.07,1.82,2.27,2.75,3.35a35.8,35.8,0,0,0,2.9,3.12c.49.47,1.06.87,1.55,1.35s1.14.7,1.69,1.06a5.1,5.1,0,0,0,3.34.47,4.63,4.63,0,0,0,2.35-2.39c.2-.65.49-1.29.64-2s.25-1.46.33-2.22a21.93,21.93,0,0,0-.31-4.68c-.27-1.58-.48-3.25-.88-4.89a22,22,0,0,1,2.49,4.46,15,15,0,0,1,1.32,5,20.14,20.14,0,0,1,0,2.69,21.57,21.57,0,0,1-.57,2.72,6.54,6.54,0,0,1-9,3.93,15.38,15.38,0,0,1,.53,4.19,18,18,0,0,1-.28,2.4v0c.54,1,1,2,1.49,3a31.51,31.51,0,0,0,2.26,3.7c.39.58.87,1.09,1.26,1.67s1,.93,1.45,1.4a5.08,5.08,0,0,0,3.19,1.14,4.65,4.65,0,0,0,2.77-1.92c.32-.61.73-1.19,1-1.86s.53-1.4.75-2.15a24.08,24.08,0,0,0,.59-4.71c.06-1.63.16-3.35.07-5a20.74,20.74,0,0,1,1.59,4.93,15.85,15.85,0,0,1,.34,5.29,13.92,13.92,0,0,1-1.63,5.27A7.36,7.36,0,0,1,706,645a8.47,8.47,0,0,1-5.71-2.18,22.12,22.12,0,0,1-1.72-2,21.14,21.14,0,0,1-1.19-2.1,20.39,20.39,0,0,1-1.45-4.35,16.51,16.51,0,0,1-.31-2.33c-.18.42-.37.83-.55,1.24a7.84,7.84,0,0,1-4.86,3.55,8.24,8.24,0,0,1-3.12-.14C714.8,728.14,618.61,741,554.6,724.27c-42.32-11-71.72-15.43-88.48-15.17a21.08,21.08,0,0,0-2.47-7.2c-3.57-5.94-10.74-8.39-17-11.36-9.11-4.32-18.09-12.1-18.13-22.19a26.33,26.33,0,0,0-4.44,17c.18,2,.81,4.36,2.67,5.21s4.13.12,5.38,1.56c1.05,1.21.42,3.25-.88,4.2a8.28,8.28,0,0,1-4.61,1.16c-3.62.14-7.54,0-10.39-2.28-2.68-2.11-3.83-5.56-5.69-8.41-3.77-5.8-10.59-9.09-17.44-10.06s-13.82.09-20.62,1.37c-8.42,1.58-17.21,3.73-23.44,9.6,1.71.69,3.61-.07,5.37-.61a22.7,22.7,0,0,1,24.78,8.78c-3.87-4.44-10.43-5.47-16.28-4.77s-11.44,2.83-17.28,3.58a23.1,23.1,0,0,1-11.36-1.14c8.3,9.24,15,20.54,26.28,25.51,7.34,3.23,15.71,3.27,23.66,2.14s15.7-3.35,23.64-4.47c4.2-.59,8.82-.77,12.28,1.67-5.48-2.69-12-.07-17.26,3.09-4.15,2.51-8.4,5.45-13,6.46,6.15-.08,12.29,2.32,18.28,4.18,11.57,3.6,24,5.23,35.84,2.54,11-2.51,21.27-9.13,26.8-18.84a214.25,214.25,0,0,1,82.85,14.72C616.18,755.06,740.77,759,731.49,621a100.65,100.65,0,0,0-11.26-37.78h0a112.12,112.12,0,0,0-6.58-11.09c-.45-1.51-.14-2.34.9-1.72,1.41.85,3.07,3.63,3.9,6.32s1.44,5,1.41,4.67c0-.14-.28-1.61-.79-3.85-.22-.94-.47-2-.77-3.21-.06-.23-.11-.45-.18-.69-.43-1.43-1-2.93-1.61-4.52s-1.31-3.19-2-4.79-1.77-3-2.72-4.45a33.45,33.45,0,0,0-2.93-3.83,23.34,23.34,0,0,0-3.12-2.69c-3.87-2.87-8.44-4.23-12.91-5.85l-2.23-.71a125.36,125.36,0,0,0-17.08-11.74c0-.16-.06-.32-.07-.49a8.13,8.13,0,0,1,4.08-7.42c3-1.89,6.72-1.32,9.72-.38s5.07,2.43,5.33,1.64c.13-.4-.87-1.66-2.64-3.37a50.54,50.54,0,0,0-7.58-5.46,45.4,45.4,0,0,0-5-2.4,31.28,31.28,0,0,0-5.32-1.76,33.69,33.69,0,0,0-5.26-.76A15.34,15.34,0,0,0,662,515a61.68,61.68,0,0,0-8.39,2.66c-2.73,1.13-5.38,2.35-8,3.38-1,.39-2.08.79-3.13,1.17-.4-.12-.81-.21-1.21-.32a7.14,7.14,0,0,1,1.54,6.15,7.91,7.91,0,0,1-4.94,4.15,30,30,0,0,1-3,.53c-1,0-2,.09-3,.09a23.82,23.82,0,0,1-5.64-.76c-1.82-.47-3.58-1.1-5.31-1.66.93,0,1.85-.09,2.76-.08l2.69.07a37.81,37.81,0,0,0,5.24-.23c.85-.11,1.65-.33,2.48-.44s1.49-.41,2.23-.6a3.33,3.33,0,0,0,1.73-5.75,21,21,0,0,0-1.62-1.83c-.54-.39-1.05-.81-1.59-1.23-3.9-.88-7.91-1.65-12.06-2.26-.05-.14-.11-.27-.16-.42a16.46,16.46,0,0,1,1.5-12.25,15.34,15.34,0,0,1,9.39-7.53c3.28-1,6-1.2,6-2.42s-5.91-3-13.23-2.92a42.6,42.6,0,0,0-11.3,1.61,26.79,26.79,0,0,0-9.61,5c-5.07,4.57-9.3,9.92-13.66,14.46-.91.92-1.84,1.8-2.77,2.62q-6,.19-12.33.74c.44.21.87.43,1.31.63a7.46,7.46,0,0,1,3.49,5.38c0,2.41-1.51,4.17-3,5.55a26.27,26.27,0,0,1-2.49,1.61,25.39,25.39,0,0,1-2.62,1.08,21.33,21.33,0,0,1-5.35,1c-.94.09-1.87.14-2.8.17.46.19.92.41,1.38.61a7.48,7.48,0,0,1,3.56,5.17,8,8,0,0,1-2.44,5.71,23.47,23.47,0,0,1-2.23,1.73,22.91,22.91,0,0,1-2.37,1.2,18.44,18.44,0,0,1-4.93,1.26,36.11,36.11,0,0,1-5,.37l4.5-2a30,30,0,0,0,4.23-2c.65-.4,1.23-.88,1.87-1.27s1.05-1,1.57-1.46a5,5,0,0,0,1.31-3.19,4.55,4.55,0,0,0-2-2.78,20.47,20.47,0,0,0-1.92-1c-.74-.22-1.45-.54-2.21-.76a31.79,31.79,0,0,0-4.89-.89l-.92,0a21.94,21.94,0,0,1-1.88,1.52,25.57,25.57,0,0,1-2.45,1.35,26.78,26.78,0,0,1-10.3,2.09c3-1.52,6.28-2.62,9-4.41.67-.44,1.26-1,1.91-1.39s1.07-1,1.6-1.56a4.86,4.86,0,0,0,1.22-3.27,4.49,4.49,0,0,0-2.18-2.66c-.68-.29-1.32-.66-2.06-.9s-1.53-.45-2.35-.63a33.81,33.81,0,0,0-5.14-.58l-2.67-.09-2.55-.07c.79-.31,1.6-.6,2.42-.86a25.13,25.13,0,0,1,2.72-.64,23.11,23.11,0,0,1,5.71-.39,26.38,26.38,0,0,1,2.91.39,23,23,0,0,1,2.84.94,7.61,7.61,0,0,1,4,5,6.86,6.86,0,0,1-1.28,4.49,21,21,0,0,1,4.95,0,22.5,22.5,0,0,1,2.76.56h0l3.67-1.33a33.75,33.75,0,0,0,4.65-1.82c.72-.37,1.37-.82,2.08-1.18s1.19-.94,1.78-1.38a4.77,4.77,0,0,0,1.6-3.12,4.44,4.44,0,0,0-1.93-2.88c-.65-.36-1.26-.8-2-1.12s-1.51-.61-2.32-.87-1.35-.37-2-.52l-.25,0a.75.75,0,0,1-.07-.12c-.92-.2-1.86-.37-2.83-.51-1.78-.21-3.61-.32-5.49-.5a32.12,32.12,0,0,1,5.58-1.16c.5,0,1-.06,1.5-.07a22.89,22.89,0,0,1-1.19-13c2-11.47,12.53-13.72,11.85-16.51-.18-.73-1.74-1-4.14-.75a36.13,36.13,0,0,0-9,2.12,56,56,0,0,0-5.21,2.21,43.31,43.31,0,0,0-5.06,3,27.92,27.92,0,0,0-8,8c-4.94,7.77-8.29,16.55-13.05,22.59-7,1.28-13.94,2.67-20.91,4.12-.33-.24-.66-.47-1-.74a17.9,17.9,0,0,1-6.58-13.62c-.24-11.92,9.39-16.61,8.15-19.36-.6-1.34-6.25.3-12.34,4.28s-12.59,10.09-15.32,16.76-4.4,13.72-7.25,19.5c-.15.31-.32.6-.48.91-8.16,1.88-16.29,3.76-24.34,5.59a20.8,20.8,0,0,1-2.75-10.89c0-11.07,8.36-16.15,7-18.66-.66-1.27-5.48.76-10.93,4.73-5.52,3.68-11.72,9.45-15,15.15s-6.06,11.85-9.69,16.45C414.26,549,406,550.46,398,551.74a12.9,12.9,0,0,1-2-10.33c1.66-8.84,10.71-12.89,9.79-15-.46-1.12-5.53.53-11.52,3.62-6,2.94-13,7.23-17.16,11.34-2.05,2.1-4,4.21-6,6.15a45.93,45.93,0,0,1-6.1,5,24.53,24.53,0,0,1-6,3,6.75,6.75,0,0,1,1,2.7,7.72,7.72,0,0,1-2.31,5.72,24.15,24.15,0,0,1-2.23,1.65,17.94,17.94,0,0,1-2.4,1.12,21.42,21.42,0,0,1-9.94.9,49,49,0,0,0,8.89-3.34c.65-.37,1.24-.82,1.87-1.19a19.25,19.25,0,0,0,1.56-1.41,4.8,4.8,0,0,0,1.29-3.14,4.57,4.57,0,0,0-1.6-2.61c-3,.07-6,.09-8.91,0a13.18,13.18,0,0,1-5.75-3,4.7,4.7,0,0,1-.8-6.25c1.4-2.44,4.52-4.28,7.2-5.7,2.11-1.18,3.92-2.09,4.46-2.77a11.81,11.81,0,0,0,9-1.91c1.21-2.3-8.87-2.89-9.05-5.62s2.8-4.52,1.31-8.09-13.09-10.21-5.36-14.36,10.62,3.06,14.86,8.58,20.85,10.33,30.44-5.17c1.6-3.3-11.17,3.77-13.2,1s-.54-5.69-4.11-6.69-7.21.55-11-3.51-5.74-5.79-1.14-7.35,12.65-.68,16.37,2.93,18.15-10,14.38-22c-2.57-1.36-6.87,8.53-8.55,8.68s-2.18-4.51-5.61-3.82-12.8,8.52-17.47,4A60.43,60.43,0,0,1,351,469.39c-2.18-4.5-15.43.41-20.66-1.89s-27.68-2.19-33.36-5.6-13.25-3-17.59,3.36-.39,6.4.39,14.41.52,31.44-5.66,36.25c-2.81,2.2-7.47,4.61-11.36,7.73-20.39-22.46-17.37-50.27.32-70.65-25.66-12-49.25-29.78-76-39.38C185.89,415.25,184.69,416.92,183.51,418.63ZM710.12,680.76a22.45,22.45,0,0,1-.5,2.52,19.68,19.68,0,0,1-1.91,4.84,18.87,18.87,0,0,1-1.65,2.15A20.67,20.67,0,0,1,704,692.1a7.28,7.28,0,0,1-6.05.87,8.59,8.59,0,0,1-4.31-4.38,21,21,0,0,1-.68-2.48,19.46,19.46,0,0,1-.17-2.38,14.79,14.79,0,0,1,.5-4.49c.19-.72.44-1.41.69-2.11s.47-1.38.75-2.06q.09,1.13.18,2.22c0,.73,0,1.45,0,2.16a26.41,26.41,0,0,0,.44,4.25,20.45,20.45,0,0,1,.48,2c.17.65.48,1.24.7,1.86A5.06,5.06,0,0,0,698.9,690a4.76,4.76,0,0,0,3.34-.53c.56-.4,1.17-.74,1.72-1.21a21.39,21.39,0,0,0,1.55-1.61,26.58,26.58,0,0,0,2.56-3.93c.39-.71.79-1.43,1.15-2.18s.69-1.51,1-2.28C710.24,679.05,710.2,679.9,710.12,680.76Zm-40.24-99.55c1.3.68,2.68,1.22,4,1.77.67.25,1.35.4,2,.64s1.35.21,2,.32a5.06,5.06,0,0,0,3.28-.88,4.58,4.58,0,0,0,1.16-3.16,19.59,19.59,0,0,0-.26-2.11c-.24-.71-.38-1.46-.64-2.2a19.08,19.08,0,0,0-2.25-4.25c-.9-1.38-1.88-2.79-2.87-4.24a30.73,30.73,0,0,1,4.17,3.19,22.5,22.5,0,0,1,1.86,1.92,14.82,14.82,0,0,1,1.49,2.27,22.72,22.72,0,0,1,1.12,2.52,21.22,21.22,0,0,1,.62,2.76,7.43,7.43,0,0,1-2.29,5.79,8.31,8.31,0,0,1-5.93,1.43,21.11,21.11,0,0,1-2.55-.64,18.7,18.7,0,0,1-2.21-1,21.61,21.61,0,0,1-1.92-1.31,17.55,17.55,0,0,1-1.77-1.43,24.55,24.55,0,0,1-3-3.41Zm-136-34a24.57,24.57,0,0,1,2.68.35,21.1,21.1,0,0,1,2.68.9,6.53,6.53,0,0,1,2.26,10.7,24.47,24.47,0,0,1-2.08,1.9,21.17,21.17,0,0,1-2.3,1.41,23.63,23.63,0,0,1-9.95,2.28,60.49,60.49,0,0,0,8.59-4.56c.62-.46,1.16-1,1.76-1.43s1-1.07,1.44-1.59a4.78,4.78,0,0,0,1-3.27,4.71,4.71,0,0,0-2.21-2.6c-.64-.28-1.26-.64-2-.87s-1.44-.43-2.2-.59c-3.07-.63-6.34-.51-9.74-.62A23.54,23.54,0,0,1,533.93,547.24Zm-73,15.69a22.69,22.69,0,0,1,2.68.37,23.36,23.36,0,0,1,2.68.89,7.8,7.8,0,0,1,4,4.75,7,7,0,0,1-.89,4.57,20,20,0,0,1,4.72-.36,25.26,25.26,0,0,1,2.7.35h0a47.41,47.41,0,0,0,7.52-4c.62-.46,1.17-1,1.77-1.44a21.47,21.47,0,0,0,1.45-1.59,3.58,3.58,0,0,0-1.27-5.87c-.65-.27-1.26-.63-2-.86s-1.44-.42-2.2-.58c-3.07-.63-6.35-.51-9.75-.64a24,24,0,0,1,10.06-2,22.74,22.74,0,0,1,2.69.34,23.43,23.43,0,0,1,2.69.88,6.53,6.53,0,0,1,2.31,10.7,24.86,24.86,0,0,1-2.09,1.91,23.25,23.25,0,0,1-2.32,1.42,21.89,21.89,0,0,1-7.61,2.12l1.38.5a6.5,6.5,0,0,1,2.29,10.7,25.21,25.21,0,0,1-2.12,1.91,23.29,23.29,0,0,1-2.33,1.41,24,24,0,0,1-10.13,2.27c3.11-1.49,6.18-2.72,8.76-4.55.63-.46,1.18-1,1.79-1.43s1-1.08,1.46-1.59a3.57,3.57,0,0,0-1.25-5.88c-.65-.27-1.27-.63-2-.86s-1.46-.42-2.22-.59a33.41,33.41,0,0,0-5.65-.54,18.48,18.48,0,0,1-1.76,1.57,24.36,24.36,0,0,1-2.33,1.4A23.87,23.87,0,0,1,454,580.42c3.1-1.47,6.17-2.68,8.74-4.5.64-.46,1.19-1,1.8-1.42s1-1.07,1.46-1.59a3.58,3.58,0,0,0-1.22-5.88c-.65-.27-1.27-.63-2-.87s-1.44-.43-2.2-.6c-3.07-.65-6.35-.56-9.75-.72A24.26,24.26,0,0,1,461,562.93Zm-45.34,5.49a22.39,22.39,0,0,1,2.66.45,23,23,0,0,1,2.65,1,6.5,6.5,0,0,1,1.94,10.77,21.79,21.79,0,0,1-2.18,1.83,23.45,23.45,0,0,1-2.39,1.34,23.84,23.84,0,0,1-10.22,1.88c3.17-1.37,6.29-2.47,8.93-4.21.65-.44,1.22-1,1.84-1.37s1-1,1.52-1.54a4.7,4.7,0,0,0,1.08-3.24,4.78,4.78,0,0,0-2.13-2.67c-.64-.3-1.24-.68-1.94-.93s-1.43-.48-2.18-.67a62.91,62.91,0,0,0-9.69-1A24.15,24.15,0,0,1,415.61,568.42ZM311.14,551.35h0l.59.18Zm33.93,42.09a23.77,23.77,0,0,1,2.69.72,25.8,25.8,0,0,1,2.61,1.24,7.89,7.89,0,0,1,3.43,4.81,43.19,43.19,0,0,0,7.78-3c.7-.39,1.32-.85,2-1.23s1.11-1,1.66-1.43a3.55,3.55,0,0,0-.63-6c-.62-.34-1.2-.75-1.89-1.06s-1.41-.58-2.16-.83a71.85,71.85,0,0,0-9.71-1.8,25.54,25.54,0,0,1,10.33-.77,25,25,0,0,1,2.66.63,25.92,25.92,0,0,1,2.61,1.15,7.85,7.85,0,0,1,3.61,5.11,7.62,7.62,0,0,1-2.43,5.77,22.71,22.71,0,0,1-2.35,1.69,21.6,21.6,0,0,1-2.55,1.17,23,23,0,0,1-8.85,1.2,7.72,7.72,0,0,1-2.65,5.46,22.18,22.18,0,0,1-2.47,1.61A24.14,24.14,0,0,1,346.1,609a25.41,25.41,0,0,1-10.94.74c3.5-1,6.91-1.73,9.87-3.18.72-.37,1.37-.82,2.07-1.18s1.17-.93,1.74-1.38a4.64,4.64,0,0,0,1.49-3.11,4.84,4.84,0,0,0-1.92-2.88c-.62-.36-1.21-.8-1.89-1.12s-1.42-.62-2.17-.89a72.74,72.74,0,0,0-9.85-2.13A26.78,26.78,0,0,1,345.07,593.44ZM304.54,483.26C312.18,481,331.25,479,335,486s-.49,15-.53,20.4,3.95,8.94,3.63,13.46-4.31,7.4.19,11.66a27.94,27.94,0,0,0,10.88,6.23c-.41.07-.85.16-1.35.27-2.16.46-5.08,1.2-8.29,2.15-6.4,1.88-14,4.07-18.59,5.57a42.26,42.26,0,0,1-9.3,2.34c-.84-7.5-12.61-17.26-11.93-30.9C300.6,498.61,296.9,485.56,304.54,483.26Zm-30.73,84.89a20.63,20.63,0,0,0,4.46-.56c.71-.18,1.38-.46,2.06-.65s1.21-.63,1.8-.92a3.77,3.77,0,0,0,1.08-5.86l0-.06c-.43-.49-.8-1.05-1.28-1.52s-1-.93-1.54-1.35a32.91,32.91,0,0,0-3.47-2.28c-1.21-.69-2.45-1.34-3.62-2.12a29.22,29.22,0,0,1,4.18.55,18.44,18.44,0,0,1,4.12,1.53,17.27,17.27,0,0,1,2,1.3,25.13,25.13,0,0,1,1.86,1.75,9.81,9.81,0,0,1,1.41,2.65,7.28,7.28,0,0,1,.38,3.17,7,7,0,0,1-2.3,4,21.08,21.08,0,0,1,4.27,1.23,22.83,22.83,0,0,1,2.3,1.19v0a36.37,36.37,0,0,0,7.95-1.6c.69-.27,1.33-.63,2-.89s1.15-.77,1.72-1.14a4.75,4.75,0,0,0,1.69-2.9,5,5,0,0,0-1.32-3.09c-.5-.44-.95-1-1.5-1.37-.41-.23-.8-.51-1.19-.78-.19-.13-.38-.26-.57-.37a31.79,31.79,0,0,0-3.91-1.85c-1.36-.53-2.75-1-4.11-1.63a30.31,30.31,0,0,1,4.47,0,18.47,18.47,0,0,1,4.51,1,19.49,19.49,0,0,1,2.22,1.06c.18.11.36.25.54.38.53.37,1,.79,1.58,1.18a8.09,8.09,0,0,1,2.48,5.58,7.75,7.75,0,0,1-3.07,5.34,17.6,17.6,0,0,1-2.41,1.29,20.35,20.35,0,0,1-2.5.73,16.22,16.22,0,0,1-5,.2,21.84,21.84,0,0,1-2.55-.41l1.12.9A8,8,0,0,1,296,577.6a7.58,7.58,0,0,1-3.49,5.16,17.79,17.79,0,0,1-2.63,1.15,23.12,23.12,0,0,1-2.7.56,17.54,17.54,0,0,1-5.37-.13A24.39,24.39,0,0,1,276.7,583c1.75-.07,3.46-.13,5.12-.29a24.08,24.08,0,0,0,4.79-.79c.76-.23,1.45-.54,2.17-.77a19.91,19.91,0,0,0,1.89-1,4.61,4.61,0,0,0,1.94-2.81,4.89,4.89,0,0,0-1.25-3.15c-.51-.48-1-1-1.52-1.46s-1.18-.87-1.81-1.27a35.26,35.26,0,0,0-4-2.11l-.75-.33a13.14,13.14,0,0,1-2.1.84,20.57,20.57,0,0,1-2.55.43,14.86,14.86,0,0,1-4.95-.41,19.69,19.69,0,0,1-4.54-1.65C270.69,568.2,272.27,568.22,273.81,568.15Zm-13.07,10.68c-.46-.57-.83-1.2-1.34-1.75s-1.08-1.08-1.65-1.65a32.92,32.92,0,0,0-3.8-3l-4-3a31.51,31.51,0,0,1,4.85,1.57,20.61,20.61,0,0,1,4.63,2.4,25.21,25.21,0,0,1,2.17,1.64,28.29,28.29,0,0,1,1.93,2.12,7.87,7.87,0,0,1,1.49,6.09,5.67,5.67,0,0,1-1.05,1.92,8.78,8.78,0,0,1-3.55,2.48,22.76,22.76,0,0,1-3,.53,25.7,25.7,0,0,1-3,0,24.6,24.6,0,0,1-5.83-1.49,37.28,37.28,0,0,1-5.27-2.81c1.94.4,3.82.83,5.65,1.17a33.25,33.25,0,0,0,5.36.43c.85,0,1.66-.2,2.48-.25s1.49-.41,2.22-.6a4.81,4.81,0,0,0,2.44-2.08,2,2,0,0,0,.13-.25A4.87,4.87,0,0,0,260.74,578.83ZM201.69,462.22a47.33,47.33,0,0,0,.27,10.59c.18.81.47,1.56.65,2.33s.63,1.37.93,2a4.58,4.58,0,0,0,2.69,2.15,4.91,4.91,0,0,0,3.24-1.18c.5-.52,1.05-1,1.52-1.53s.93-1.19,1.36-1.82c1.85-2.56,3-5.56,4.69-8.44a27.82,27.82,0,0,1-2.37,9.74,24.32,24.32,0,0,1-1.3,2.32,23.81,23.81,0,0,1-1.81,2.16,8,8,0,0,1-5.8,2.25,7.39,7.39,0,0,1-5-3.84,22.42,22.42,0,0,1-1-2.82,26,26,0,0,1-.43-2.9A23.83,23.83,0,0,1,201.69,462.22ZM191.18,541.3a16.76,16.76,0,0,0,2,1.75c1.39.82,2.69,1.22,3.62.83s1.52-1.64,1.94-3.09c.08-.82.28-1.61.37-2.49s.13-1.78.14-2.7,0-1.86-.08-2.8,0-1.89-.1-2.85c0-.34,0-.68-.07-1a18.88,18.88,0,0,1-1.76-2,26.34,26.34,0,0,1-1.49-2.77,25,25,0,0,1-1.1-3,27.86,27.86,0,0,1-.58-3,26.07,26.07,0,0,1-.19-6c.53,1.86,1.14,3.72,1.8,5.48a24.42,24.42,0,0,0,2.33,5c.48.74,1,1.39,1.48,2.09a21.63,21.63,0,0,0,1.64,1.67,4.5,4.5,0,0,0,3.39,1A4.74,4.74,0,0,0,207,525c.24-.69.61-1.35.83-2.08s.43-1.5.59-2.28q.44-2.36.72-4.83c.17-1.64.28-3.31.6-5,.38,1.64.81,3.29,1.06,5a24.48,24.48,0,0,1,.22,2.58,19.17,19.17,0,0,1,0,2.63,26.44,26.44,0,0,1-.37,2.72c-.16.91-.47,1.83-.73,2.76a8.27,8.27,0,0,1-4.4,4.6,6.12,6.12,0,0,1-4.66-.73c.2.78.37,1.57.55,2.37a27.17,27.17,0,0,1,.54,3c.15,1,.1,2.12.22,3.18.83,1.27,1.7,2.51,2.53,3.69a28,28,0,0,0,3.79,4.15c.65.59,1.39,1,2.09,1.55a21.07,21.07,0,0,0,2.13,1.06,4.31,4.31,0,0,0,3.49-.09,5.06,5.06,0,0,0,1.58-3.14c0-.73.13-1.45.1-2.2s-.11-1.51-.15-2.31c-.11-1.61-.47-3.14-.74-4.74s-.62-3.2-.79-4.86a37.44,37.44,0,0,1,2.37,4.36,21.15,21.15,0,0,1,1.74,4.77,22.79,22.79,0,0,1,.56,2.59c.13.9.06,1.89.12,2.84a8.21,8.21,0,0,1-2.57,5.74c-2,1.37-4.36,1.16-6.45.45a19.46,19.46,0,0,1-2.77-1.68,27.8,27.8,0,0,1-2.42-2.19,25.19,25.19,0,0,1-3.48-5.35c-.42-1-.82-2-1.16-3,0,.56-.08,1.12-.11,1.69a12.83,12.83,0,0,1-1.09,3.25,5.7,5.7,0,0,1-2.25,2.52,5.41,5.41,0,0,1-3.44.22,10.41,10.41,0,0,1-3.22-1.55,29.76,29.76,0,0,1-2.67-2.6,23.78,23.78,0,0,1-2.09-3,31.81,31.81,0,0,1-1.66-3.3,26.75,26.75,0,0,1-1.14-3.41,31.59,31.59,0,0,1-1.17-6.86c.43,1,.81,2.08,1.27,3.1l1.42,3c.48,1,1,1.93,1.48,2.85s1.16,1.8,1.77,2.62S190.57,540.54,191.18,541.3Z"/><path class="cls-4" d="M840.56,355.24c-.57-1.59,3.79-3.25,2.25-6.4S831.3,338.65,834.45,333a59.83,59.83,0,0,1,12.13-14.79c3.79-3.26-4.34-14.81-3.46-20.46s-5-27.32-3.12-33.68-.48-13.58-7.76-16.14S826,249.18,818.41,252s-30.25,8.55-36.49,3.81S766.16,238,755.49,244.6a20.74,20.74,0,0,0-3.48,2.8c.11.36.24.73.35,1.09.61.39,1.24.78,1.87,1.16a147.79,147.79,0,0,1,3.48,17.93l.65,5.58c.17,1.87.27,3.74.41,5.61s.25,3.94.29,5.91c-.27.13-.55.25-.8.38s-.28.18-.42.26A134.26,134.26,0,0,1,757,300.6c6.47,1.23,11.56-8.69,20.26-15.1,7.72,4.46,9.61,13.73,12,13.23,1.46-.26,1.44-7.5-1.16-15.86-.21-.7-.44-1.4-.69-2.11,18-3.86,29.67-10.71,33.83-3.93s11,24.73,5.17,30.1-14.63,3.37-19.86,4.71-7.63,6.11-12.08,7-8.26-2.27-11.22,3.17-6,16.86,1,22.56c2.53.57.52-9.32,3.11-10.2s5.1,1.56,8.16-.8,6.53-15.27,12.52-8.86-.24,11-4.49,16.56-4.65,22.81,12.79,28.11c3.59.7-6.51-9.83-4.31-12.52s5.37-2,5.42-5.69-2.38-6.82.58-11.51,4.13-7,6.82-3,3.89,12.05,1.35,16.58,14.33,15,24.9,8.28C851.79,358.46,841.13,356.84,840.56,355.24Z"/><path class="cls-5" d="M511.61,202.1a101.13,101.13,0,0,0-2.29-20.49c-4.18,0-8.37.14-12.55.35-3.42.15-6.83.37-10.24.64A103.79,103.79,0,0,1,489,205C496.54,203.86,504.12,202.87,511.61,202.1Z"/><path class="cls-6" d="M299.48,189.43a19.8,19.8,0,0,0,13.68,14.69c6.67,1.87,16.42,1.48,22.07-3.78,4.31-4,6.67-11.08,7.23-21.55-6.2-1.44-10.68-7-19.8-8.79C311.65,167.8,307,184,299.48,189.43Zm34.42-10.14s5.24,19.31-9.3,21.8c-18.74,3.2-17.62-14.9-17.62-14.9s6.87-14.42,14.74-13.78A17.61,17.61,0,0,1,333.9,179.29Z"/><path class="cls-7" d="M421.92,192.64c-3.14.68-6.26,1.4-9.38,2.15a103.36,103.36,0,0,1,5.77,24.36c6.29-1.54,13.38-3.2,21-4.89a101,101,0,0,0-7.47-23.76Q426.88,191.52,421.92,192.64Z"/><path class="cls-8" d="M725.46,195.34a127.66,127.66,0,0,1,19.7,29.21c.07.14.13.28.2.43a19.15,19.15,0,0,1,10.79-5.48c5.56-1,10.17,1.19,13.73,3.42s5.74,4.63,6.92,3.77c.59-.42.1-2.25-1.19-4.86a56.48,56.48,0,0,0-6.42-9.13c-5.81-6.51-14-12.78-21.39-14.25A97.69,97.69,0,0,0,737,196.82c-3.56-.35-7-.67-10.13-1.22Z"/><path class="cls-9" d="M463.47,209.32a101.09,101.09,0,0,0-7.24-23.17q-10.58,1.64-21.09,3.71a104.28,104.28,0,0,1,5.6,24.1C447.91,212.39,455.55,210.82,463.47,209.32Z"/><path class="cls-10" d="M487.54,205.2a100.81,100.81,0,0,0-4.22-22.32l-2,.18a20.94,20.94,0,0,1-9.26,1.48l1.65-.69q-7.1.79-14.18,1.79a103.17,103.17,0,0,1,5.37,23.42C472.26,207.68,479.86,206.37,487.54,205.2Z"/><path class="cls-11" d="M637.92,238.22c-1.73-2.79-3.56-5.51-5.55-8.12a106.36,106.36,0,0,0-27.2-25.45c-1.62-1.06-3.27-2.05-4.94-3-.6,2.95-1.35,5.87-2.21,8.76C612.58,216.28,627.49,225,637.92,238.22Z"/><path class="cls-12" d="M565.94,201.45a99.36,99.36,0,0,0,1.81-13.16,180,180,0,0,0-26.12-5,103.18,103.18,0,0,1-.5,17A177.49,177.49,0,0,1,565.94,201.45Z"/><path class="cls-13" d="M416.9,219.49a101.35,101.35,0,0,0-7.6-23.88q-12.14,3-24.13,6.68c4.19,4.86,8,12.26,9.25,23C399.06,224.05,406.9,222,416.9,219.49Z"/><path class="cls-14" d="M752.82,268.18A162.56,162.56,0,0,0,749.67,250,150.53,150.53,0,0,0,742,226a146,146,0,0,0-17.9-30.93l-1.8-.4c-.38-.45-.75-.9-1.13-1.34a154.68,154.68,0,0,0-13.84-14,13,13,0,0,1,.28-2.12c.9-3.75,3.56-7.44,8.16-10s9.6-2.24,13.42-1.28,6.8,2.16,7.5,1c.35-.57-.76-2-2.87-3.85a39.16,39.16,0,0,0-3.86-3c-1.53-1-3.25-2-5.09-3s-3.78-2-5.79-2.86-4.16-1.55-6.25-2.16a48.75,48.75,0,0,0-6.12-1.41,27.16,27.16,0,0,0-5.77-.25c-3.59.25-7,.75-10.32,1.22s-6.46,1.23-9.55,1.57c-5.88.77-11.26.59-16.84-2.06l-1-.48a20.9,20.9,0,0,1-8.68-9.31c-1.81-3.93-2.15-8.25.91-11.78s7.62-4.7,11.49-5.15,7-.24,7.13-1.44-6.39-3.64-14.68-4.62-18.08-.61-24.25,2-11.55,5.92-17,8.17A31.07,31.07,0,0,1,600.33,131c-4.25-.71-7.47-2.7-9.21-5.3s-2-5.85-.07-9.3,5.87-5.38,9.31-6.64,6.35-1.86,6.14-2.85-6.89-1.31-14.84-.25-17.06,3.37-22.39,6.58-9.87,6.63-14.81,9.18a38.46,38.46,0,0,1-7.06,2.85q-9.61-.39-19.25-.35c-3-1.63-4.24-4.22-2.64-7.37,2.76-5.51,14.23-8,13.5-9.4-.37-.7-6.81.28-14.32,2.38s-16.08,5.2-21,8.15-8.89,5.67-13.49,7.89l-.41,0,.39.19a7.47,7.47,0,0,1,3.63,5.16,7.79,7.79,0,0,1-2.64,5.73,24.54,24.54,0,0,1-2.4,1.66,27.28,27.28,0,0,1-2.55,1.14,26.24,26.24,0,0,1-10.54,1.4,65.62,65.62,0,0,0,9.38-3.82c.7-.38,1.32-.85,2-1.22s1.14-1,1.7-1.42a4.7,4.7,0,0,0,1.44-3.14,4.66,4.66,0,0,0-2-2.83,21.91,21.91,0,0,0-2-1.08c-.76-.24-1.49-.58-2.28-.83-.43-.11-.88-.19-1.32-.28-7.47.73-14.87,1.63-22.15,2.67a2,2,0,0,1,.57-1.88c2.62-3.32,13.59-6.92,12.81-7.57-.39-.36-6.54,1.46-13.75,4s-15.47,5.8-20.33,7.94c-1.26.56-2.48,1.09-3.68,1.6-7.51,1.46-14.84,3.06-21.94,4.8a59.94,59.94,0,0,1-12.39,1.67c-8,12.35-19.5,12-19.5,12s9.57-4.9,15.72-12c6.48-8.59,16.72-29.2,25.49-40,10.89-13.44,17-28.81,15.37-32.66s-9.92-5.12-10.24,0c-.32,9.61-8,18.58-15.69,17.29s.32-17,0-18.89-7.69-6.4-9.61-1.92c-7,12.81.64,30.42-4.54,39.07S370.65,122.26,363.16,131c-4.56,5.7-5.72,9.78-5.72,9.78s-1-4.41,2.41-10.45c-10.57-1.56-28.9.62-50.76,5-24.33,4.87-33.08,34-39.69,35.4-10.09,1.26-22.71-.42-37,0a9.52,9.52,0,0,0-1.7.2c-1-2.9-1.84-5.68-2.8-8.11a19.52,19.52,0,0,1-1.46-6.24,14.82,14.82,0,0,1,1-6A10.21,10.21,0,0,1,230.8,146a11.39,11.39,0,0,1,5.87-1.9c2.45-.25,5.29-.16,8.35-.43a25,25,0,0,0,4.76-.85,20.15,20.15,0,0,0,4.57-2,23.35,23.35,0,0,0,6.75-6.55,65.38,65.38,0,0,0,4.47-7.46c1.45-2.72,2.82-5.41,4.41-7.88a33.72,33.72,0,0,1,5.53-6.67A35.43,35.43,0,0,1,290.7,104c4.2-1.12,8.56-1.13,13.14-1.07,2.29,0,4.62,0,7-.18a36.78,36.78,0,0,0,19.69-7.87,37.8,37.8,0,0,0,9.16-10.82c3.53-6,5.69-12.54,8.49-18.63a48.27,48.27,0,0,1,11.5-16.26c5.75-5.36,13-8.84,20.25-11.46a75.19,75.19,0,0,1,24.63-4.41c16.08-.12,31.87,4.16,46.94,9.84,6.12,2.28,12.11,4.89,18.23,7.4a80.54,80.54,0,0,0,19.12,5.66,50.79,50.79,0,0,0,12.92,0,59.25,59.25,0,0,0,12.48-3.12c1-.33,2-.75,3-1.15s2-.82,3-1.28a118.43,118.43,0,0,0,18.43-10.84c1.44-1,2.83-2,4.69-3.38-1.84,1.34-4.07,2.83-7,4.76A103.33,103.33,0,0,1,517.6,51.26a55.66,55.66,0,0,1-22.49,4.44A54.2,54.2,0,0,1,477,51.83c-5.82-2.17-11.41-4.91-17.13-7.42-11.41-5-23.17-9.48-35.51-12.12-9.54-2-19.39-3.43-29.44-2.49A66.61,66.61,0,0,0,373,36a61.6,61.6,0,0,0-19.41,14.44c-3.37,3.74-6.78,7.8-9,12.3-3.1,6.29-5.26,12.65-8.33,18.29a37.86,37.86,0,0,1-5.4,7.74,30.65,30.65,0,0,1-7.33,5.86,29.91,29.91,0,0,1-12.84,4c-4.53.36-9.35-.2-14.47.14a39.64,39.64,0,0,0-30.57,18.49c-2.41,3.72-4.37,7.51-6.64,10.89s-4.82,6.37-8,7.85a13.65,13.65,0,0,1-5.13,1.33c-1.9.14-3.92.06-6.09,0a34.39,34.39,0,0,0-6.91.36,15.61,15.61,0,0,0-7,3,16.62,16.62,0,0,0-4.89,6.24,23.27,23.27,0,0,0-2,7.33c-.58,5.08.46,9.95,1.48,14.85a16.86,16.86,0,0,0,3,6c-6.5,6.78-9.51,20.14-5.64,30.68a25,25,0,0,0-4.3,4.3,39.92,39.92,0,0,0-5.47,9.44,30.77,30.77,0,0,0-2.13,11,25,25,0,0,0,2.42,11.15,20.07,20.07,0,0,0,3.3,4.88,25.39,25.39,0,0,0,4.22,3.62c2.88,2,5.66,3.37,8,5a11.46,11.46,0,0,1,4.72,5.5,13.54,13.54,0,0,1,0,7.68c-.68,2.81-1.79,5.69-2.83,8.7-.57,1.66-1.13,3.35-1.56,5.13-.19.91-.38,1.82-.52,2.73s-.23,1.84-.24,2.76a31.11,31.11,0,0,0,1.54,10.82,29.76,29.76,0,0,0,13.39,16.69c4.78,2.67,9.91,3.82,14.47,5.68a27.05,27.05,0,0,1,6.33,3.45,35.77,35.77,0,0,1,5.3,5c3.3,3.71,6.23,8,10,11.76a29,29,0,0,0,13.85,8c7.88,1.9,16,.5,23.2-2.08s14-6.57,20.33-10.74c7.48-4.8,15.07-9.48,23.12-12.91a51.25,51.25,0,0,1,13.4-3.88,49.88,49.88,0,0,1,14,.25c8.88,1.27,17.52,4.21,26.38,6.56s18.17,4.19,27.55,2.87c7.55-1,14.62-3.73,21.4-6.67s13.41-6.19,20.34-8.51A57.36,57.36,0,0,1,491.62,311c4.6-.31,9.43.37,13.17,3.1a40.81,40.81,0,0,1,5.17,4.8,34.87,34.87,0,0,0,4.49,4.07,24.71,24.71,0,0,0,5.31,2.91,25.83,25.83,0,0,0,11.85,1.71,24.22,24.22,0,0,0,5.18-1.1,24.55,24.55,0,0,1-8.2,1,25.12,25.12,0,0,1-11.39-3.17c-3.58-1.9-6.2-5.06-8.94-7.88a21.73,21.73,0,0,0-5-4,18.65,18.65,0,0,0-6.1-2,37.13,37.13,0,0,0-12.86.69c-13.78,2.82-26,10.38-39.4,14.09a50,50,0,0,1-20.47,1.62,115.64,115.64,0,0,1-20.17-4.84c-5.17-1.59-10.32-3.36-15.66-4.77a62.25,62.25,0,0,0-16.69-2.37A44.43,44.43,0,0,0,359,317.15a69.33,69.33,0,0,0-11.75,5.21c-7.87,4.29-14.79,9.61-22.11,14-4.51,2.76-9.47,4.48-14.29,6.19-6.74,2.36-13.92,3.66-20.66,2.38a24.4,24.4,0,0,1-9.34-3.92,41.77,41.77,0,0,1-7.68-7.5c-3.44-4.07-6.71-8.7-11.37-12.37a31.19,31.19,0,0,0-7.63-4.33c-2.64-1.09-5.25-1.92-7.74-2.82a31.94,31.94,0,0,1-8.07-4,24.91,24.91,0,0,1-6.09-6.32,25.6,25.6,0,0,1-4.33-16.86c.38-4.24,2.41-8.41,4.19-13a39.51,39.51,0,0,0,2.21-7.36,16.17,16.17,0,0,0-.58-8.43,14.79,14.79,0,0,0-2.05-3.87,20.28,20.28,0,0,0-2.86-3,56.85,56.85,0,0,0-6.09-4.41,30.76,30.76,0,0,1-5.16-4,13.79,13.79,0,0,1-3.15-5,20.63,20.63,0,0,1-.11-13.36,21.57,21.57,0,0,1,8.42-10.84,19.9,19.9,0,0,0,6.46,2.93c.13.42.27.84.4,1.26a13.87,13.87,0,0,0,2.19,4.72,4.74,4.74,0,0,0,4.6,1.85,2.26,2.26,0,0,0,1.39-.91,3.63,3.63,0,0,0,0-2.75,27.35,27.35,0,0,1-.61-3.37c.71,0,1.44,0,2.2-.1l.18.56a13.87,13.87,0,0,0,2.19,4.72,4.73,4.73,0,0,0,4.6,1.85,2.29,2.29,0,0,0,1.39-.91,3.63,3.63,0,0,0,0-2.75,29.75,29.75,0,0,1-.72-4.6,121.57,121.57,0,0,0,19.37-6.17,6.48,6.48,0,0,1,1.56-.17l.06,5a14.22,14.22,0,0,0,.72,5.16,4.74,4.74,0,0,0,3.86,3.11,2.27,2.27,0,0,0,1.6-.47,3.6,3.6,0,0,0,.83-2.62,30.18,30.18,0,0,1,1-5.88c2.5,2.22,4.94,4.58,7.65,5.16,5,1.06,16.49-1.45,22.76-.76,0,.28,0,.55,0,.82a14,14,0,0,0,.72,5.16,4.75,4.75,0,0,0,3.86,3.11,2.32,2.32,0,0,0,1.6-.47,3.6,3.6,0,0,0,.83-2.62,31,31,0,0,1,.39-3.32c8.08,2.79,23.67,5.14,37.13-8.65a31,31,0,0,0,3.55-8.88l-4.77-3s9.37-2.13,14.49,7.59c.35,1.41-7.24-3.71-7.24-3.71s-5.75,9.11-6.35,15.85v0c-.62,9.15-2.43,24.33-7.75,34.73a29.54,29.54,0,0,1-3.82-4.82c-.5-.8-1.07-1.7-2-1.89a2.28,2.28,0,0,0-1.62.35,4.73,4.73,0,0,0-1.88,4.59,13.86,13.86,0,0,0,1.85,4.86l2.22,4.16a17,17,0,0,1-1.82,1.5c-8.26,5.73-22.25,12.59-34.1,18.25a29.42,29.42,0,0,1-2.05-5,3.56,3.56,0,0,0-1.4-2.36,2.21,2.21,0,0,0-1.66-.1,4.74,4.74,0,0,0-3.07,3.89,14.06,14.06,0,0,0,.46,5.19c.14.63.27,1.27.41,1.91l-3.19,1.53A29.4,29.4,0,0,1,289,281.4a3.64,3.64,0,0,0-1.4-2.36,2.22,2.22,0,0,0-1.66-.1,4.74,4.74,0,0,0-3.07,3.89,13.84,13.84,0,0,0,.45,5.19l.57,2.63a26,26,0,0,0-2.68,1.62c-5.05,3.79,4.2,32,27.34,25.24,10.09-3.37,5.89-24.82,15.14-29.86s45-7.15,56.36-29,9.67-32,9.67-32c-.63-18.82-9.72-28.34-17.71-31.95-.26-1.35,6.84.2,13.19,7.58a385.3,385.3,0,0,1,73.36-20.52q12.21-2.18,24.58-3.47l.35-.36a4.92,4.92,0,0,0,1.16-3.16,4.79,4.79,0,0,0-1.9-2.8c-.59-.33-1.15-.75-1.81-1s-1.34-.56-2.06-.79c-2.89-.86-6.05-1-9.34-1.3a21.41,21.41,0,0,1,9.83-1.28,19.69,19.69,0,0,1,2.56.59,21.22,21.22,0,0,1,2.49,1.13,7.8,7.8,0,0,1,3.35,4.7,45.44,45.44,0,0,0,7-3c.64-.38,1.21-.83,1.84-1.2s1-1,1.55-1.4a4.9,4.9,0,0,0,1.33-3.11,4.73,4.73,0,0,0-1.79-2.88c-.59-.35-1.14-.78-1.79-1.1s-1.35-.59-2.07-.84a46.44,46.44,0,0,0-9.45-1.72,21.37,21.37,0,0,1,10.08-.86,21.6,21.6,0,0,1,2.57.67,16.57,16.57,0,0,1,2.49,1.25,7.76,7.76,0,0,1,3.24,5.29,7.9,7.9,0,0,1-2.46,5.63c-.72.54-1.43,1.12-2.18,1.58a20.68,20.68,0,0,1-2.33,1.12,20.39,20.39,0,0,1-8,1.16,7.26,7.26,0,0,1-.66,3.24,272.31,272.31,0,0,1,47.7-.42,183.39,183.39,0,0,1,37.8,7.21,149.22,149.22,0,0,1,14.15,5.25l3.59.17c1.43,0,2.82,0,4.16-.07.68-.06,1.33-.23,2-.29s1.24-.4,1.86-.59a5.09,5.09,0,0,0,2.47-2.23,4.87,4.87,0,0,0-.2-3.33c-.33-.57-.59-1.19-1-1.76s-.85-1.13-1.34-1.67a16.3,16.3,0,0,0-3.4-2.83l-.68-.44a16.41,16.41,0,0,1-2.16.51,19.47,19.47,0,0,1-2.51.11,20.86,20.86,0,0,1-4.7-.85,25.48,25.48,0,0,1-4.39-1.67c3.16,0,6.22.14,9.1-.13.72-.09,1.41-.29,2.11-.38s1.31-.45,1.95-.66a5,5,0,0,0,2.45-2.35,4.68,4.68,0,0,0-.5-3.34c-.41-.56-.74-1.18-1.22-1.73s-1-1.09-1.57-1.61c-2.28-2.18-5.24-3.51-8.21-5.15a29.14,29.14,0,0,1,5,.84,16.55,16.55,0,0,1,4.74,2.19,22.55,22.55,0,0,1,2.13,1.66,21.83,21.83,0,0,1,1.82,2.12,7.37,7.37,0,0,1,.88,6.06,7.55,7.55,0,0,1-3.1,3.49,15,15,0,0,1,1.81.75,16.72,16.72,0,0,1,2,1.38,18.78,18.78,0,0,1,1.85,1.73l0,0a59.39,59.39,0,0,0,7.92.77c.72,0,1.43-.09,2.13-.09a19,19,0,0,0,2-.4,5,5,0,0,0,2.72-2,4.77,4.77,0,0,0-.09-3.4c-.33-.62-.59-1.28-1-1.9s-.87-1.23-1.36-1.83c-2.06-2.37-4.88-4-7.64-6.09a30.52,30.52,0,0,1,4.94,1.51,14.42,14.42,0,0,1,4.52,2.69,22.23,22.23,0,0,1,1.92,2,22.87,22.87,0,0,1,1.55,2.36,7.44,7.44,0,0,1,.11,6.16,8.22,8.22,0,0,1-5,3.62,22.52,22.52,0,0,1-2.65.28,19.83,19.83,0,0,1-2.49-.24,26.92,26.92,0,0,1-4.61-1.34,24,24,0,0,1-2.22-1.08c.26.38.5.77.76,1.15a7.65,7.65,0,0,1,.31,6,8.65,8.65,0,0,1-4.56,4,21.31,21.31,0,0,1-2.46.53,16.5,16.5,0,0,1-2.33,0,12,12,0,0,1-2.18-.38c-.16,0-.31-.08-.47-.12a116.68,116.68,0,0,1,15.73,9.2,102.2,102.2,0,0,1,14.8,12.42,110.76,110.76,0,0,1,12.21,14.89,118.18,118.18,0,0,1,12.43,24.83c.39,1,.75,1.91,1.1,2.89,29.67,27.15,16.8,42.65,16.8,42.65h0c.1-.69.16-1.36.22-2a31,31,0,0,0-2.07-14.42c-3.09-7.85-8.71-13.67-12.44-17.14l0,0,0,0v0a34.83,34.83,0,0,0-17.77-6.21c-15.9-1.29-4.64,20.87-16.23,35.36s-16.24,27.25-23.77,24.64-24.16-12.18-23.09-20,9.17-11.89,12.36-16.23,2-9.57,4.93-13,7.83-3.48,6.67-9.56-6.09-16.81-15.08-16.81c-2.31,1.16,5.51,7.53,4.06,9.85s-4.93,2-5.79,5.8,4.63,15.94-4.06,14.78-6.82-8.69-7-15.65-10.86-20.58-27.71-13.62c-3.22,1.74,11.27,3.47,11.27,7s-2.9,4.93-.58,7.83,6.16,3.77,6.85,9.27,1.27,8.06-3.37,6.64-10.66-6.86-11.56-12-20.58-2.5-24.51,9.38c1.29,2.61,10.56-2.9,12-2s-.87,4.93,2.32,6.38,15.36.58,16.52,7a60.28,60.28,0,0,1,0,19.13c-.87,4.92,12.74,8.69,15.65,13.62s21.16,18,23.77,24.06,9,10.2,16.23,7.56,4.06-4.95,8.12-11.91,18-25.8,25.8-26.09c2.85-.1,6.74.36,10.73.43-.34,1.18-.7,2.37-1.08,3.58a82.75,82.75,0,0,1-3.61,9.49c35.09,1.77,71.61-2.4,105.55,11.59a144.15,144.15,0,0,0,4.85-23.75c.5-4.2.83-8.43,1-12.67.13-3,.21-6.1.2-9.15A191.71,191.71,0,0,0,752.82,268.18Zm-332-235.33c.78.17,1.56.37,2.32.57-.07.12-.19.34-.23.33l-2.3-.49Zm-20.5,289.31,2.52.89c-.09.11-.24.31-.28.3l-2.51-.83ZM251.35,202.35a9.46,9.46,0,0,1-2.4,2.05,6.22,6.22,0,0,1-6.78-.07,11.34,11.34,0,0,1-2.44-2.08,16.73,16.73,0,0,1-3.08-5.27,9.4,9.4,0,0,1,.2-6.32A11.13,11.13,0,0,1,240.6,186a15.11,15.11,0,0,1,5.08-2.45c-2.9,2.22-5.54,4.93-6.32,8s.73,6,2.91,8.47a5.33,5.33,0,0,0,3.41,2.17c1.16.16,2.52-.6,3.77-1.67,2.48-2.24,4.49-5.35,6.46-8.46A22.15,22.15,0,0,1,251.35,202.35Zm103.18-25.78c-4.25,2.16-7.53,2.78-10.39,2.49-.6,10.83-3.13,18.23-7.75,22.53-4.05,3.76-10,5.24-15.58,5.24a30.42,30.42,0,0,1-8.11-1.07A21.57,21.57,0,0,1,298,190.36a7.39,7.39,0,0,1-5.09.6c-12.12-2.78-2.27-22,0-23s1,3.54,3,6.32c4.95-3.37,5.12-9.16,8.37-14.19a30.79,30.79,0,0,1,19.26-13.25c4.42-.94,9-.88,13.4-1.89s8.86-3.39,10.65-7.53a15.85,15.85,0,0,1-.31,17.09,99.61,99.61,0,0,0,18.64-9.47,27.35,27.35,0,0,1-2.43,13c-.68,1.5-2.83,5-4.48,5.06l9.37.08S369.37,169,354.53,176.57Zm81.16-26.1a23,23,0,0,1-2.1,2,21.28,21.28,0,0,1-10,4l1.42.42a7.62,7.62,0,0,1,4.31,4.52,7.83,7.83,0,0,1-1.47,6.05,26.54,26.54,0,0,1-2,2,22.93,22.93,0,0,1-2.19,1.55,24.69,24.69,0,0,1-9.66,3,73.44,73.44,0,0,0,8.15-5.2c.59-.5,1.1-1.06,1.67-1.55s.89-1.13,1.34-1.68a4.77,4.77,0,0,0,.79-3.31,4.68,4.68,0,0,0-2.38-2.48,20.39,20.39,0,0,0-2-.72c-.75-.11-1.49-.33-2.27-.44a29.93,29.93,0,0,0-5.77-.08,16.85,16.85,0,0,1-1.65,1.72c-.74.56-1.46,1.17-2.23,1.64a22.55,22.55,0,0,1-4.85,2.23,30.46,30.46,0,0,1-5,1.16c2.7-1.8,5.81-3.46,8.21-5.52.59-.52,1.1-1.11,1.68-1.61s.91-1.17,1.36-1.73a4.78,4.78,0,0,0,.75-3.36,4.69,4.69,0,0,0-2.5-2.39,19.58,19.58,0,0,0-2.13-.65c-.78-.08-1.55-.27-2.36-.34a28.63,28.63,0,0,0-5.06.07l-2.61.27c-.42,0-.93.11-1.28.13l-1.06.05.91-.53c.32-.17.79-.38,1.19-.56a27,27,0,0,1,2.55-1A21.08,21.08,0,0,1,405,147a23,23,0,0,1,2.87.05,25.19,25.19,0,0,1,2.88.63,7.51,7.51,0,0,1,4.54,4.35,7,7,0,0,1-.59,4.65,19.61,19.61,0,0,1,4.79-.73,23.39,23.39,0,0,1,2.77.16h0a55.56,55.56,0,0,0,7.49-4.43c.63-.48,1.17-1,1.79-1.49s1-1.11,1.45-1.65a4.75,4.75,0,0,0,.94-3.32,4.64,4.64,0,0,0-2.36-2.51c-.68-.25-1.34-.59-2.08-.79s-1.53-.36-2.33-.49a58.16,58.16,0,0,0-10.31,0,25.33,25.33,0,0,1,10.58-2.65,27.58,27.58,0,0,1,2.85.23,24.45,24.45,0,0,1,2.84.78,7.54,7.54,0,0,1,4.28,4.62A7.79,7.79,0,0,1,435.69,150.47ZM557.17,159a7.84,7.84,0,0,1-3.55,5,24.43,24.43,0,0,1-2.49,1.19,23.33,23.33,0,0,1-2.52.65,24.8,24.8,0,0,1-9.73-.69c3.21-.72,6.3-.92,9.17-1.9.7-.25,1.36-.59,2.05-.83s1.21-.73,1.82-1.07a4.9,4.9,0,0,0,1.93-2.82,4.57,4.57,0,0,0-1.24-3.15c-.52-.46-1-1-1.58-1.42s-1.24-.84-1.91-1.23a44.11,44.11,0,0,0-9.21-3.44,21.42,21.42,0,0,1,10.33,1,23.9,23.9,0,0,1,2.46,1.16,21.25,21.25,0,0,1,2.27,1.66A7.73,7.73,0,0,1,557.17,159ZM658.31,210.8a8.36,8.36,0,0,1-5.88,1.89,22.62,22.62,0,0,1-2.58-.54,21,21,0,0,1-2.27-1,15,15,0,0,1-2-1.28,23.22,23.22,0,0,1-1.87-1.39,23.68,23.68,0,0,1-3.19-3.3l4.13,1.93c.69.3,1.37.59,2.07.85s1.32.57,2,.8,1.37.34,2,.56,1.35.15,2,.24a4.91,4.91,0,0,0,3.19-1.07,4.74,4.74,0,0,0,1-3.24c-.12-.68-.15-1.38-.34-2.09s-.43-1.43-.71-2.15a16.59,16.59,0,0,0-1-2.13c-.41-.66-.86-1.31-1.33-2l-3-4a29.75,29.75,0,0,1,4.22,2.89,15.79,15.79,0,0,1,1.88,1.78,18.81,18.81,0,0,1,1.52,2.18,24.86,24.86,0,0,1,1.19,2.43,23.93,23.93,0,0,1,.71,2.71A7.42,7.42,0,0,1,658.31,210.8Zm45.82,79.38a21.93,21.93,0,0,1-.94,2.52,7.57,7.57,0,0,1-5,3.57,8.64,8.64,0,0,1-5.8-1.57,21.4,21.4,0,0,1-1.81-1.72,16,16,0,0,1-1.3-1.86,13.78,13.78,0,0,1-1.69-4c-.23-.92-.42-1.86-.57-2.81a8.69,8.69,0,0,1-5.71-.76c-.64-.47-1.42-.92-2-1.43a17.23,17.23,0,0,1-1.55-1.67,16.54,16.54,0,0,1-2.11-3.75,29.68,29.68,0,0,1-1.18-4.1c1,1.11,1.77,2.24,2.65,3.31a29.59,29.59,0,0,0,2.77,3c.49.44,1.05.81,1.53,1.24s1.13.64,1.68,1a5.22,5.22,0,0,0,3.31.35,4.71,4.71,0,0,0,2.37-2.29c.21-.61.51-1.21.67-1.87s.28-1.36.36-2.07a19.53,19.53,0,0,0-.11-4.38c-.18-1.5-.37-3-.65-4.6a20.5,20.5,0,0,1,2.26,4.17,13.82,13.82,0,0,1,1.11,4.68,17.44,17.44,0,0,1-.07,2.5,14.62,14.62,0,0,1-.63,2.53,7.93,7.93,0,0,1-4.11,3.94c.51.81,1,1.63,1.54,2.41a22.58,22.58,0,0,0,2.4,3.36c.47.51,1,1,1.38,1.45s1,.8,1.53,1.2a5.17,5.17,0,0,0,3.23.81,4.72,4.72,0,0,0,2.65-2,19.44,19.44,0,0,0,.9-1.83c.18-.69.47-1.36.59-2.07a25.8,25.8,0,0,0,.38-4.53c0-1.56-.17-3.15-.23-4.8a23.62,23.62,0,0,1,1.87,4.56,18.43,18.43,0,0,1,.63,5A20.89,20.89,0,0,1,704.13,290.18Zm-.69-61.53a7.77,7.77,0,0,1-6.33.11,25.17,25.17,0,0,1-2.55-1.45,23.54,23.54,0,0,1-2.15-1.8,28,28,0,0,1-5.15-6.47c0,.5.08,1,.13,1.5a7.33,7.33,0,0,1-2.7,5.6,8.15,8.15,0,0,1-6.23.72,21.91,21.91,0,0,1-2.56-1.1,21.35,21.35,0,0,1-2.18-1.48,26.1,26.1,0,0,1-3.51-3.63,28.59,28.59,0,0,1-2.83-4.05c2.72,1.9,5.28,3.88,7.85,5.48.66.37,1.35.64,2,1s1.36.43,2,.66a4.84,4.84,0,0,0,3.39-.42,4.63,4.63,0,0,0,1.47-3.11c0-.72,0-1.44,0-2.2s-.23-1.55-.42-2.33a21.88,21.88,0,0,0-2.11-5.52,18.14,18.14,0,0,1-2.31-.89,24.35,24.35,0,0,1-2.43-1.45,21.31,21.31,0,0,1-4-3.68c-.59-.67-1.11-1.41-1.66-2.1s-1.11-1.38-1.62-2.09a46.47,46.47,0,0,1,4.36,2.9,33.74,33.74,0,0,0,4.23,2.64c.73.36,1.48.62,2.19,1s1.46.4,2.18.62a4.94,4.94,0,0,0,3.47-.56,4.43,4.43,0,0,0,1.16-3.26c-.1-.75-.12-1.5-.3-2.28s-.41-1.59-.69-2.4a35.64,35.64,0,0,0-2.23-4.86,46.6,46.6,0,0,0-2.94-4.81c.77.56,1.54,1.16,2.29,1.79a21.2,21.2,0,0,1,2,2.09,25.35,25.35,0,0,1,3.37,4.9,26.46,26.46,0,0,1,1.2,2.78,24.92,24.92,0,0,1,.68,3,7.15,7.15,0,0,1-2.25,6,6.82,6.82,0,0,1-4.56,1.11,18.51,18.51,0,0,1,2.46,4.37,24.63,24.63,0,0,1,.87,2.72v0a63.61,63.61,0,0,0,7,5.68c.66.46,1.35.82,2,1.28s1.37.61,2,.92a3.42,3.42,0,0,0,5.07-3.21,22.35,22.35,0,0,0,0-2.33c-.13-.82-.16-1.65-.31-2.49-.8-3.35-2.5-6.64-4-10.18,2.65,2.73,5.28,5.84,6.64,9.62a28.91,28.91,0,0,1,.74,2.95,24.45,24.45,0,0,1,.21,3.1A7.38,7.38,0,0,1,703.44,228.65Zm31.88,46.91a27.53,27.53,0,0,1-.64,3.23c-.77,2-2.22,4.08-4.53,4.7-2.38.39-4.43-.83-6.1-2.11A29.2,29.2,0,0,1,722,279.1c-.56-.83-1.1-1.66-1.6-2.49a24,24,0,0,1-2.26-5.23,39.21,39.21,0,0,1-1.36-5.35l2.86,4.6a37.08,37.08,0,0,0,2.9,4.36c.53.67,1.15,1.23,1.63,1.91s1.15,1.06,1.71,1.59a4.74,4.74,0,0,0,3.37,1.09,4.54,4.54,0,0,0,2.44-2.6c.22-.77.52-1.51.68-2.35s.26-1.71.32-2.61a36.86,36.86,0,0,0-.17-5.62c-.22-1.9-.54-3.83-.81-5.82a36.63,36.63,0,0,1,2.46,5.56,28.24,28.24,0,0,1,1.23,6.17A23.57,23.57,0,0,1,735.32,275.56Z"/><path class="cls-15" d="M777.16,340.5a32.14,32.14,0,0,0-4.5-11.83c-4.28-6.47-9.68-12-13.77-17.4-.28-.36-.53-.72-.8-1.08-.08.75-.15,1.5-.24,2.25a144.43,144.43,0,0,1-8.67,34.91,15.7,15.7,0,0,1,13.88,1.77,20.53,20.53,0,0,1,5.62,5.62c1.44,1.78,2.05,4.32,2.51,6.55.95,4.64.67,7.93,2.22,8.24.37.07.84-.34,1.34-1.13a11.2,11.2,0,0,0,.79-1.46,20.72,20.72,0,0,0,.77-2.15,55.88,55.88,0,0,0,1.4-5.72c.08-.78.12-1.54.18-2.46s.13-1.88.16-2.91A58.69,58.69,0,0,0,777.16,340.5Z"/><path class="cls-16" d="M571.25,189.29c-.1,0-.21-.06-.31-.09a102.83,102.83,0,0,1-2.71,12.56,91.56,91.56,0,0,1,12,2.54c5.4,1.57,11.2,3.47,17.06,5.81q1.6-4.19,2.84-8.52-5.55-3.21-11.38-5.89A141,141,0,0,0,571.25,189.29Z"/><path class="cls-17" d="M539.25,200.28a100.49,100.49,0,0,0-.82-17.35c-1.34-.14-2.68-.28-4-.4-7.27-.64-14.58-.91-21.9-.93a102.52,102.52,0,0,1,.71,20.33C522.13,201.05,530.89,200.46,539.25,200.28Z"/><path class="cls-18" d="M315.52,175.94s.41,3.38,1.23,4,5.95-1.85,6.66,2.46-6.35,4-6.35,4,.72,10.76,8.61,9.13,3.07-19.58,2.56-20.09C319.83,170.51,315.52,175.94,315.52,175.94Z"/><path class="cls-19" d="M334.25,247.19c5.5-3,7.75,4.74,8.07,4.42,4.1-8.37,7.42-34.52,6.87-34-5.82,6-19.51,7.42-19.61,7.42-5,3.79-10.48,25.9-16.16,33.79s-13.89,14.37-14.37,14.37c3,.64,3.79,5.37,3.63,5.59a218.86,218.86,0,0,0,31.57-18.06S328.74,250.19,334.25,247.19Z"/><path class="cls-20" d="M317.16,199.7l6.31-5.94c71.78-13.11,225.45-11.71,320,2.11V633.55H321.9S316,199.7,317.16,199.7Z"/><path class="cls-21" d="M266.81,686.57c92.26-16.79,198.83-15.22,316.31.35V253.38c-96.18-17.84-209.59-10.1-316.64,0Z"/><path class="cls-22" d="M278.5,253.23l37.28-50.73c95.45-12,202.7-9.71,316.09-.09l-48.78,50.94C490,242.24,387.9,243.8,278.5,253.23Z"/><polygon class="cls-21" points="632.25 637.79 583.12 686.92 583.12 253.38 631.92 202.38 632.25 637.79"/><path class="cls-23" d="M573,709.62c-93.53-44.2-199-44.19-301.34-23.93L266.05,253.4c97.13-.33,208.67-.6,307,22.68Z"/><path class="cls-24" d="M540.77,726.63c-91.06-43.16-200.14-49.44-274.46-39.83l-.26-433.52c110.74-4,200.53,13.57,278.33,43.4Z"/><path class="cls-25" d="M542.7,296.05C514.29,618.11,333.34,635.36,266.27,615.58l0,71.22c74.32-9.61,183.4-3.33,274.46,39.83l3.61-429.95C543.82,296.46,543.26,296.27,542.7,296.05Z"/><path class="cls-21" d="M618.58,216.55c-62.74-9.36-191.05-14.29-312.22,3.09,39.94-2.47,188.47-14.67,304.7,4.43Z"/><path class="cls-21" d="M600.21,235.47s-158.77-23.11-308,2.41c39.93-2.47,146.29-17.87,301.24,4.62Z"/><path class="cls-26" d="M344.74,190.49l-21.51,3c-6.41,4.31-35.62,28.84-57.17,59.78l14.8.17C299.56,227.28,330.56,199.37,344.74,190.49Z"/><path class="cls-27" d="M487.81,363c-44.87-3.57-225.82-48.86-301.76,51.65,26.72,9.6,50.31,27.35,76,39.38,16.77-19.31,46.7-31.95,82.36-27l1.61.23a2.87,2.87,0,0,1-.31.29c-1.94,1.57-5.63,1.88-8.75,2s-5.71,0-5.44.47,6.21,1.54,13.41,2.71,15.75,2.27,21.3,1.57c4.26-.54,8.29-1.4,12.45-2.1,9.5,1.5,19.48,3.1,29.82,4.71a8.12,8.12,0,0,1,1.09,1.53c1.31,2.47.92,5.33-1.56,7.73-5,4.82-15.95,1.77-15.78,3.38.09.8,6,3,13.44,4.59,1.81.41,4,.77,6.09,1.06a60.06,60.06,0,0,0,6.21.4,48.13,48.13,0,0,0,5.78-.35,27.45,27.45,0,0,0,4.94-1.13c9.66-3.34,17.52-9.13,27.94-10.22q6,.78,12.05,1.51a9.75,9.75,0,0,1,3.95,3.63c1.65,2.8,1.69,6.49-.41,10.18-4.21,7.47-15.82,6.86-15.45,8.89.18,1,6.56,2,14.31,1.81s16.85-1.73,22.47-5.24c8-4.92,14.67-11.44,22.94-14.66,6.83.46,13.64.83,20.41,1.07a17,17,0,0,1,2.78,2.27c3.11,3.17,4.7,7.57,2.89,12.19s-5.62,7.19-8.93,8.85-6.08,2.45-5.82,3.65,6.71,1.53,14.45.28,16.75-4.11,22-8.78c7.51-6.54,13.45-14.56,21.12-19.09q9-.65,17.68-1.75a11.3,11.3,0,0,1,3,3c2.21,3.25,3.16,7.95,2,13.24-2.38,10.73-14.15,13.14-13.34,15.71.38,1.31,7,.84,14.74-1.63a57.66,57.66,0,0,0,11.74-5.16,32.21,32.21,0,0,0,9.29-7.9c1.11-1.49,2.16-3,3.15-4.54s1.92-3.15,2.82-4.7c1.82-3.08,3.47-6.19,5.15-9,.42-.7.85-1.38,1.28-2s.82-1.36,1.24-2a34.08,34.08,0,0,1,2.68-3.53,22.67,22.67,0,0,1,2.35-2.35q4.88-1.83,9.46-4a11.22,11.22,0,0,1,6.19,2.29,19.48,19.48,0,0,1,7.3,12.3c1.07,5.63-1,10.28-3.22,13.82-1.07,1.81-2.26,3.17-3,4.3s-1.14,2-.71,2.56,2.33.19,4.94-1.1a59.83,59.83,0,0,0,9.17-6.3,62.74,62.74,0,0,0,9-10,34.38,34.38,0,0,0,5-11.48A105.23,105.23,0,0,0,694.61,429c.28-3.67.5-7.2.85-10.65a36.85,36.85,0,0,1,2.1-9.4,21.3,21.3,0,0,1,1.26-2.84l.87-.8a154.49,154.49,0,0,1-18.34,9.91A205.47,205.47,0,0,1,639,428.89a301.59,301.59,0,0,1-44,6,340.64,340.64,0,0,0,43.57-7.81A218.21,218.21,0,0,0,680,412.24a142.33,142.33,0,0,0,36-24.58A117.59,117.59,0,0,0,736.36,362c0-.67.06-1.34.14-2q2.82-4.86,5.32-9.87l0,0c.23-.17.48-.32.72-.48A129.52,129.52,0,0,0,748,334.51c-33.94-14-70.46-9.82-105.55-11.59C614,386.15,523.7,365.9,487.81,363ZM221.29,421.91a4.86,4.86,0,0,0,3.51.53c.72-.23,1.47-.35,2.2-.64s1.47-.64,2.24-1a37.72,37.72,0,0,0,4.47-2.48l4.58-2.65a37.59,37.59,0,0,1-3.59,4,24.46,24.46,0,0,1-4.23,3.5,26.84,26.84,0,0,1-2.45,1.46c-.86.44-1.87.71-2.79,1.09a7.94,7.94,0,0,1-6.34-.73c-1.85-1.52-2.28-3.92-2.18-6.13a20.86,20.86,0,0,1,.81-3.18,29.61,29.61,0,0,1,1.38-3,25.89,25.89,0,0,1,4-5.07,32.9,32.9,0,0,1,3.24-2.68c-1.37-1.81-1.31-4.3-.69-6.39a28.73,28.73,0,0,1,1.51-3.11,23.62,23.62,0,0,1,2.05-2.77,30.42,30.42,0,0,1,10.84-7.59c-3.16,2.91-6.26,5.71-8.43,8.94-.53.79-.94,1.58-1.43,2.36s-.62,1.61-.92,2.38c-.31,1.5-.28,2.81.36,3.6s2,1,3.43,1.06c.79-.13,1.57-.15,2.38-.34s1.68-.36,2.53-.61c3.41-1,6.78-2.59,10.38-3.84a41.38,41.38,0,0,1-9.66,6.43c-.93.39-1.89.74-2.84,1.11s-2,.47-3.1.7c-2,.1-4.27,0-6-1.47-.8,1.08-1.59,2.15-2.33,3.21a37.57,37.57,0,0,0-2.76,5c-.36.83-.54,1.7-.85,2.52s-.27,1.61-.41,2.39A4.34,4.34,0,0,0,221.29,421.91Zm37.26,20.79c-.6.22-1.23.4-1.87.59a18.58,18.58,0,0,1-2.21.22,9.66,9.66,0,0,1-5.51-2,7.79,7.79,0,0,1-2.48-5.43,16.26,16.26,0,0,1,.39-2.45,10.43,10.43,0,0,1,.9-2.17,14.54,14.54,0,0,1,6.61-5.82c-1.75,2.39-3.48,4.6-4.34,7.15-.21.64-.34,1.27-.51,1.89a17.43,17.43,0,0,0-.09,1.89,5,5,0,0,0,1.28,3,5.68,5.68,0,0,0,3,1.21c.58,0,1.18,0,1.76,0s1.2-.13,1.78-.24a65.58,65.58,0,0,0,6.74-2.23A13.63,13.63,0,0,1,258.55,442.7Zm53.57-28.34a12.3,12.3,0,0,1-4.79-1.55,8.18,8.18,0,0,1-3.67-4.86,7.15,7.15,0,0,1,.85-4.54,17.75,17.75,0,0,1-4.45.24,22.94,22.94,0,0,1-2.55-.35h0a34.65,34.65,0,0,0-6.84,4.14c-.55.47-1,1-1.51,1.51s-.78,1.12-1.17,1.66a4.78,4.78,0,0,0-.52,3.28,5.19,5.19,0,0,0,2.26,2.47c.6.24,1.17.57,1.8.77s1.29.35,2,.5c2.73.57,5.54.44,8.51.64a19.32,19.32,0,0,1-8.54,2,16.93,16.93,0,0,1-2.31-.24,21.58,21.58,0,0,1-2.4-.78,8.38,8.38,0,0,1-4.14-4.37,7.79,7.79,0,0,1,.82-6.06,12.79,12.79,0,0,1,3.79-3.56,17.43,17.43,0,0,1,7.07-2.3c-.44-.16-.88-.34-1.32-.49a8.13,8.13,0,0,1-4.12-4.6,7.51,7.51,0,0,1,1.56-6,21.37,21.37,0,0,1,2.1-2,23,23,0,0,1,2.36-1.45,20.67,20.67,0,0,1,5.1-1.65,29.93,29.93,0,0,1,5.23-.39l-4.71,2a28.86,28.86,0,0,0-4.24,2.35c-.64.44-1.19,1-1.79,1.44a19.54,19.54,0,0,0-1.44,1.61,4.63,4.63,0,0,0-.9,3.28,4.91,4.91,0,0,0,2.23,2.57c.64.27,1.24.63,1.92.85s1.39.42,2.12.61a28.35,28.35,0,0,0,4.54.62l.83.07a15.85,15.85,0,0,1,1.72-1.48,17,17,0,0,1,12.1-2.74,44.32,44.32,0,0,0-8.62,3.81c-.62.4-1.16.91-1.75,1.32s-.95,1-1.42,1.51a4.73,4.73,0,0,0-1,3.21,4.91,4.91,0,0,0,2,2.71,20,20,0,0,0,1.77,1c.66.21,1.29.51,2,.74,2.76.86,5.72,1,8.79,1.53A20.89,20.89,0,0,1,312.12,414.36ZM326.62,389c-.88-.16-1.75-.43-2.63-.67a23.8,23.8,0,0,1-2.58-1.19,7.94,7.94,0,0,1-3.59-5.13,7.49,7.49,0,0,1,2.51-5.76,24.15,24.15,0,0,1,2.42-1.66,18.16,18.16,0,0,1,2.62-1.13,24.48,24.48,0,0,1,10.78-.83c-3.43,1-6.77,1.77-9.68,3.27-.71.37-1.35.82-2,1.18s-1.15,1-1.71,1.42a4.7,4.7,0,0,0-1.4,3.15,4.8,4.8,0,0,0,1.95,2.84c.62.34,1.2.77,1.87,1.08s1.4.61,2.14.87a73.38,73.38,0,0,0,9.59,2.06A25.39,25.39,0,0,1,326.62,389Zm76.67-11.52c-.75.25-1.43.6-2.15.84s-1.26.74-1.88,1.09a4.68,4.68,0,0,0-1.9,2.85,4.77,4.77,0,0,0,1.38,3.14c.54.45,1,1,1.63,1.4s1.26.83,1.94,1.21c2.75,1.53,5.91,2.4,9.11,3.57a20.76,20.76,0,0,1-12.66-2.27,25.13,25.13,0,0,1-2.32-1.64A7.81,7.81,0,0,1,393.9,382a6.89,6.89,0,0,1,2.18-4.13,21,21,0,0,1-4.7-1,23.39,23.39,0,0,1-2.54-1.09l0,0a47,47,0,0,0-8.47,1.82c-.74.27-1.41.64-2.13.92a19.64,19.64,0,0,0-1.83,1.16,4.66,4.66,0,0,0-1.8,2.91,4.81,4.81,0,0,0,1.49,3.09c.56.43,1.06.93,1.69,1.34s1.28.78,2,1.14c2.8,1.43,6,2.2,9.2,3.27a24.64,24.64,0,0,1-10.2-.82,23.11,23.11,0,0,1-2.5-1,22.78,22.78,0,0,1-2.36-1.55,7.84,7.84,0,0,1-2.76-5.59,7.67,7.67,0,0,1,3.26-5.34,24.77,24.77,0,0,1,2.57-1.3,23.53,23.53,0,0,1,2.66-.76,22,22,0,0,1,8.06,0c-.4-.28-.8-.58-1.21-.86a7.74,7.74,0,0,1-2.7-5.65,7.63,7.63,0,0,1,3.44-5.27,26.11,26.11,0,0,1,2.63-1.24,26.91,26.91,0,0,1,2.74-.71,24.92,24.92,0,0,1,10.66.75,60.29,60.29,0,0,0-10,1.83c-.75.26-1.45.62-2.18.87s-1.28.76-1.9,1.12a4.7,4.7,0,0,0-1.9,2.88,4.81,4.81,0,0,0,1.47,3.11,21.27,21.27,0,0,0,1.7,1.38c.68.36,1.3.81,2,1.18a33.61,33.61,0,0,0,5.34,2.14,16.75,16.75,0,0,1,2.17-1,23.27,23.27,0,0,1,2.68-.66,24,24,0,0,1,10.43.87A58.42,58.42,0,0,0,403.29,377.48Zm45.39,8.43c-.74.23-1.43.55-2.15.76s-1.27.69-1.9,1a3.57,3.57,0,0,0-.77,6c.52.47,1,1,1.57,1.46s1.22.89,1.88,1.29c2.68,1.62,5.8,2.61,9,3.86a23.75,23.75,0,0,1-10.15-1.49,21.1,21.1,0,0,1-2.42-1.22,25.09,25.09,0,0,1-2.23-1.72A6.52,6.52,0,0,1,442.87,385a23.52,23.52,0,0,1,2.62-1.1,22.47,22.47,0,0,1,2.66-.56,23.83,23.83,0,0,1,10.22,1.2C455,384.9,451.7,385,448.68,385.91Zm55.18,40.88a20.62,20.62,0,0,0,1.78,1.39c.72.35,1.38.81,2.12,1.17,3,1.45,6.46,2.19,10,3.15a26,26,0,0,1-11.08-.71,23.88,23.88,0,0,1-2.71-1.08,26.61,26.61,0,0,1-2.54-1.63,7.46,7.46,0,0,1-2.7-5.72,7.78,7.78,0,0,1,3.58-5.19A26.19,26.19,0,0,1,505,417a24.84,24.84,0,0,1,2.72-.72,27.06,27.06,0,0,1,10.63.39,76.27,76.27,0,0,0-9.89,2.18c-.76.26-1.45.62-2.19.89s-1.29.76-1.93,1.12a4.67,4.67,0,0,0-1.95,2.85A4.6,4.6,0,0,0,503.86,426.79Zm12.57-41c.53.42,1,.92,1.61,1.32s1.24.77,1.9,1.1a48.35,48.35,0,0,0,9,2.85,17.87,17.87,0,0,1-12.33-1.37,18.43,18.43,0,0,1-2.27-1.53,7.81,7.81,0,0,1-2.5-5.22,45.47,45.47,0,0,0-7.4,1.75c-.69.27-1.34.61-2,.86s-1.18.74-1.77,1.1a4.84,4.84,0,0,0-1.85,2.83,4.73,4.73,0,0,0,1.29,3.14c.52.46,1,1,1.58,1.41s1.23.83,1.89,1.2a48.35,48.35,0,0,0,9,3.27,21.61,21.61,0,0,1-10.06-.84,23.19,23.19,0,0,1-2.43-1.13,20.22,20.22,0,0,1-2.25-1.65,7.69,7.69,0,0,1-2.34-5.73A7.94,7.94,0,0,1,498.9,384c.82-.41,1.63-.89,2.45-1.2a20.88,20.88,0,0,1,2.49-.67,20.39,20.39,0,0,1,8,.17,8.14,8.14,0,0,1,3-5.06,22.64,22.64,0,0,1,2.32-1.33,22.34,22.34,0,0,1,2.39-.8,21.63,21.63,0,0,1,9.51.07,62.27,62.27,0,0,0-8.79,2.47c-.67.31-1.28.68-1.93,1s-1.13.8-1.68,1.19a4.91,4.91,0,0,0-1.67,2.93A4.79,4.79,0,0,0,516.43,385.79Zm72.36,37.78A24.85,24.85,0,0,1,586,423a22.65,22.65,0,0,1-2.73-1.11,7.54,7.54,0,0,1-3.72-5.07,6.94,6.94,0,0,1,1.36-4.48,19.66,19.66,0,0,1-4.84-.1,23.28,23.28,0,0,1-2.69-.63l0,0a58.73,58.73,0,0,0-8.14,3.07c-.7.38-1.33.83-2,1.19s-1.15.93-1.71,1.37a4.72,4.72,0,0,0-1.5,3.1,4.66,4.66,0,0,0,1.89,2.89,21.06,21.06,0,0,0,1.92,1.13c.74.26,1.44.61,2.21.87,3.12,1,6.58,1.3,10.16,1.77a25.33,25.33,0,0,1-10.88.8,21.25,21.25,0,0,1-2.77-.71,24.7,24.7,0,0,1-2.66-1.26,7.54,7.54,0,0,1-3.43-5.28,7.86,7.86,0,0,1,2.75-5.64,23.72,23.72,0,0,1,2.41-1.58c.85-.38,1.69-.8,2.55-1.09a24,24,0,0,1,8-1.15l-1.33-.66a7.59,7.59,0,0,1-3.47-5.18,7.85,7.85,0,0,1,2.49-5.71,15.37,15.37,0,0,1,4.69-2.8,24.81,24.81,0,0,1,10-1.31c-3.12,1.25-6.22,2.18-8.93,3.73-.66.39-1.25.85-1.9,1.23s-1.07,1-1.61,1.42A4.8,4.8,0,0,0,570.7,405a4.72,4.72,0,0,0,1.92,2.84,20.17,20.17,0,0,0,1.89,1.07c.72.24,1.41.58,2.16.82a31.09,31.09,0,0,0,5.67,1.06,21,21,0,0,1,1.92-1.41,22.85,22.85,0,0,1,2.48-1.23,26.52,26.52,0,0,1,10.35-1.67c-3.2,1.37-6.39,2.4-9.14,4.05-.68.41-1.28.89-1.94,1.29s-1.09,1-1.63,1.48a3.51,3.51,0,0,0,.74,6c.65.32,1.26.72,2,1s1.48.53,2.26.75a55.36,55.36,0,0,0,10.28,1.15A25.07,25.07,0,0,1,588.79,423.57Zm14.89-26.19A20.33,20.33,0,0,1,601,397a22.89,22.89,0,0,1-2.64-1,7.63,7.63,0,0,1-3.78-4.91,7.94,7.94,0,0,1,1.93-5.87,21.43,21.43,0,0,1,2.05-1.81,22.11,22.11,0,0,1,2.23-1.32,22.63,22.63,0,0,1,9.49-2.09,68,68,0,0,0-8.22,4.4c-.6.44-1.13,1-1.72,1.38s-1,1-1.43,1.52a4.86,4.86,0,0,0-1,3.24,4.75,4.75,0,0,0,2.09,2.68,21.33,21.33,0,0,0,1.92.93c.72.19,1.41.46,2.16.64,3,.71,6.3.62,9.7.71A22.26,22.26,0,0,1,603.68,397.38Zm89.62-63.14a11.59,11.59,0,0,1,.49-2.09,14.87,14.87,0,0,1,.67-2,35.14,35.14,0,0,1,1.89-3.66c-.06,1.39-.11,2.79-.28,4.13s-.19,2.72-.2,4.08c0,.67.13,1.35.14,2s.25,1.29.36,1.93a5.2,5.2,0,0,0,1.86,2.78,4.63,4.63,0,0,0,3.38.16,12.92,12.92,0,0,0,1.93-.9c.57-.46,1.22-.85,1.82-1.34a18.74,18.74,0,0,0,3.25-3.6c1-1.32,1.87-2.82,2.84-4.31a21.52,21.52,0,0,1-1.4,5.15,22.14,22.14,0,0,1-1.19,2.45,19.53,19.53,0,0,1-1.65,2.21,13.61,13.61,0,0,1-2,1.92,21.07,21.07,0,0,1-2.48,1.44,7.17,7.17,0,0,1-6.17-.49,8.84,8.84,0,0,1-3.21-5.15,22,22,0,0,1-.21-2.48C693.21,335.76,693.18,335,693.3,334.24Zm-47,37.57c.61-.59,1.18-1.23,1.82-1.75a20.45,20.45,0,0,1,6.28-3.43l-1.34-.21a7.76,7.76,0,0,1-4.71-3.82,8.57,8.57,0,0,1-.06-6c.39-.74.75-1.51,1.17-2.17a16.28,16.28,0,0,1,1.42-1.74,16.65,16.65,0,0,1,6.88-4.11,69,69,0,0,0-5.08,6c-.37.55-.65,1.14-1,1.68s-.47,1.2-.72,1.78a5.18,5.18,0,0,0,.08,3.3,4.86,4.86,0,0,0,2.61,2.08,18.24,18.24,0,0,0,1.93.41c.68,0,1.37.09,2.08.08a22.59,22.59,0,0,0,5-.87,18.2,18.2,0,0,1,.93-1.93,19,19,0,0,1,1.44-1.93,20.77,20.77,0,0,1,7.08-5.16c-1.69,2.36-3.65,4.42-5.09,6.86-.34.62-.62,1.26-1,1.84s-.46,1.27-.7,1.89a5.21,5.21,0,0,0,.25,3.37,4.68,4.68,0,0,0,2.85,1.77,20.27,20.27,0,0,0,2.09.2c.74-.08,1.49-.06,2.23-.19a37.79,37.79,0,0,0,9.1-3.19,19.83,19.83,0,0,1-8.46,5.77,22.9,22.9,0,0,1-2.64.56,18.41,18.41,0,0,1-2.78,0,6.52,6.52,0,0,1-5.84-7.91,14,14,0,0,1-4,1.48,18.15,18.15,0,0,1-2.46.27h0a64.22,64.22,0,0,0-5.77,5.33c-.47.55-.86,1.16-1.32,1.71s-.69,1.2-1,1.78a4.94,4.94,0,0,0-.31,3.37,4.74,4.74,0,0,0,2.6,2.18,19.14,19.14,0,0,0,2.08.5c.74,0,1.48.13,2.25.14,3.13,0,6.31-.85,9.65-1.65a21.13,21.13,0,0,1-9.44,4.29,17.38,17.38,0,0,1-2.71.18,21,21,0,0,1-2.8-.4,7.54,7.54,0,0,1-4.71-4,8.25,8.25,0,0,1,.64-6.13A22.9,22.9,0,0,1,646.29,371.81Z"/><path class="cls-28" d="M548.7,327.1c.4-.13.8-.26,1.17-.4C549.46,326.86,549.08,327,548.7,327.1Z"/><path class="cls-29" d="M750.1,377.16c-1-3.83-2-7.48-2.71-11-.2-.95-.39-1.89-.56-2.81A123.5,123.5,0,0,1,728,385.34q-4.53,4.16-9.41,7.87a13.79,13.79,0,0,1,3.93.64c4.24,1.32,8.57,4.61,11.73,10s2.82,10.7,2,15S734,426,735.35,427c.64.42,2.3-.6,4.28-2.77a57.67,57.67,0,0,0,6.51-9.26A60.71,60.71,0,0,0,751.4,402c1.15-4.58,1.78-9,1.13-13.12A119.69,119.69,0,0,0,750.1,377.16Z"/><text class="cls-30" transform="translate(198.3 962.11)">Igniting the J<tspan class="cls-31" x="246.76" y="0">o</tspan><tspan x="270.76" y="0">y of Book Sharing</tspan></text></g></g></svg>